<?xml version="1.0" encoding="UTF-8"?>
<!DOCTYPE svg PUBLIC "-//W3C//DTD SVG 1.1//EN" "http://www.w3.org/Graphics/SVG/1.1/DTD/svg11.dtd">
<!-- Creator: CorelDRAW X7 -->
<svg xmlns="http://www.w3.org/2000/svg" xml:space="preserve" width="745px" height="475px" version="1.1" style="shape-rendering:geometricPrecision; text-rendering:geometricPrecision; image-rendering:optimizeQuality; fill-rule:evenodd; clip-rule:evenodd"
viewBox="0 0 16043 10229"
 xmlns:xlink="http://www.w3.org/1999/xlink">
 <defs>
  <style type="text/css">
   <![CDATA[
    .fil0 {fill:#2B2A29}
   ]]>
  </style>
 </defs>
 <g id="Слой_x0020_1">
  <metadata id="CorelCorpID_0Corel-Layer"/>
  <path class="fil0" d="M1968 3524c0,0 190,-427 98,-639 -91,-213 -215,-302 -373,-54 -157,248 -432,778 -365,1066 65,281 303,373 497,566 283,281 544,558 667,946 25,79 96,310 133,368 139,150 480,27 651,-19 151,-40 224,-54 335,-162 259,-250 564,-511 837,-751 90,-79 181,-158 271,-237 0,0 127,-20 158,107 30,127 -21,142 -81,233 -61,92 -219,498 -269,594 -51,97 -89,200 -21,239 68,39 76,178 432,86 355,-91 716,-386 848,-533 132,-147 523,-467 691,-782 167,-315 55,-429 -3,-553 -58,-125 -203,-150 -366,-150 -162,0 -172,-3 -172,-3 0,0 -58,-159 180,-236 239,-76 640,-116 716,244 214,1010 -1483,2552 -2052,2664 -211,41 -452,-19 -564,-152 0,0 -872,2165 -1035,2449 -22,39 -853,1731 -1025,1361 -71,-153 -31,-406 0,-467 30,-61 376,-1046 376,-1046 -9,85 -127,821 -87,840 218,104 1393,-2931 1529,-3250l309 -721c-316,310 -679,605 -1036,869 -163,120 -362,243 -556,300 -20,1184 -626,1987 -1873,2119 -131,14 -818,69 -818,-81 0,-186 492,-609 665,-738 181,-135 450,-346 724,-568 157,-127 488,-315 680,-483 229,-201 206,-177 353,-440 0,0 -63,5 -236,5 -173,0 -394,-35 -312,-208 112,-198 246,-361 414,-514 40,-36 25,-11 1,-83 -131,-383 -58,-337 -357,-663 -111,-121 -288,-249 -399,-371 -144,-159 -323,-311 -402,-477 -155,-321 136,-1108 287,-1415 279,-570 904,-1008 928,-76 8,328 -121,698 -378,816zm230 3600c-204,181 -411,360 -620,530 -229,186 -462,368 -699,544 -97,72 -234,184 -327,235 -395,280 -17,201 243,174 1261,-134 1603,-1074 1652,-1489 39,-341 -85,-139 -249,6z"/>
  <path class="fil0" d="M8205 5067c-138,175 -285,394 -415,572 -6,8 -11,16 -17,24 -94,135 -181,274 -273,411 -9,15 -18,29 -28,43 -95,142 -190,285 -294,421 -51,67 -193,271 -295,189 -117,-109 3,-481 55,-609 221,-539 433,-1083 631,-1632 126,-348 263,-692 405,-1034 184,-442 376,-882 572,-1319 290,-643 601,-1278 897,-1919 46,-101 60,-170 181,-207 92,-22 175,6 225,91 50,89 67,130 -10,213 -98,107 -174,178 -247,307l-6 11c-370,654 -610,1374 -990,2023 -84,142 -161,283 -229,434 -236,525 -424,1071 -616,1612 -37,104 -259,728 -255,862 7,-8 13,-17 17,-22 77,-94 190,-208 263,-306 148,-200 584,-843 743,-846 183,-4 59,340 37,448 -32,155 -61,307 -64,465 -1,107 -9,174 119,145 150,-39 493,-325 615,-436 128,-100 288,-221 425,-304 242,-146 -60,164 -95,202 -49,54 -96,107 -142,164 -76,92 -149,186 -225,278 -22,26 -45,51 -68,77l-8 9c-56,60 -112,118 -172,174l-9 9c-86,79 -174,154 -264,228 -170,139 -427,119 -448,-121 -19,-231 -20,-438 -15,-657z"/>
  <path class="fil0" d="M10016 4489c0,0 -149,235 -251,471 -34,77 -56,192 -66,317 -28,351 45,787 263,740 201,-43 713,-455 854,-688 -47,229 -369,860 62,829 115,-8 1192,-1352 1340,-1547 12,222 58,589 328,621 108,12 208,-65 295,-122 429,-281 691,-580 1044,-951 208,-218 409,-425 618,-637 68,-69 221,-188 206,-289 -11,-70 -153,-56 -196,-32 -166,94 -272,241 -417,361 -122,101 -290,232 -411,333 -45,37 -473,363 -493,365 -81,6 -164,-35 -205,-169 -32,-109 212,-792 253,-963 -44,-94 -119,-106 -171,-28 -129,191 -247,390 -377,582 -144,212 -280,391 -447,585 -257,298 -513,597 -770,895 0,0 -191,54 -176,-81 1,-13 456,-912 541,-1068 120,-219 388,-755 318,-987 -79,-263 -253,-93 -439,95 -247,248 -1080,1215 -1024,1585 6,43 67,-11 81,-28 240,-295 317,-385 527,-685 172,-245 326,-178 161,176 -113,241 -179,365 -213,406 -262,321 -632,683 -981,909 -30,20 -121,75 -157,50 -201,-137 -114,-689 -29,-958 62,-195 -68,-87 -68,-87z"/>
  <ellipse class="fil0" cx="14470" cy="1492" rx="344" ry="353"/>
  <path class="fil0" d="M14743 3301c-18,212 -118,554 -79,748 57,286 242,257 429,98 303,-259 557,-596 853,-868l33 -30 64 60 -25 37c-130,199 -262,396 -396,592 -72,104 -144,207 -218,309 -52,72 -108,150 -167,216 -167,187 -314,328 -571,312 -78,-5 -150,-31 -208,-86 -210,-196 -134,-640 -62,-885 55,-184 143,-390 261,-539l41 -53 45 89z"/>
  <ellipse class="fil0" cx="9815" cy="2782" rx="344" ry="353"/>
  <path class="fil0" d="M14430 3296l137 -74c0,0 194,-91 178,47 -15,138 -146,115 -156,135 -10,20 -154,5 -154,5l-5 -113z"/>
 </g>
</svg>
