<?xml version="1.0" encoding="UTF-8"?>
<!DOCTYPE svg PUBLIC "-//W3C//DTD SVG 1.1//EN" "http://www.w3.org/Graphics/SVG/1.1/DTD/svg11.dtd">
<!-- Creator: CorelDRAW X7 -->
<svg xmlns="http://www.w3.org/2000/svg" xml:space="preserve" width="235px" height="229px" version="1.1" style="shape-rendering:geometricPrecision; text-rendering:geometricPrecision; image-rendering:optimizeQuality; fill-rule:evenodd; clip-rule:evenodd"
viewBox="0 0 8953 8729"
 xmlns:xlink="http://www.w3.org/1999/xlink">
 <defs>
  <style type="text/css">
   <![CDATA[
    .fil0 {fill:white}
   ]]>
  </style>
 </defs>
 <g id="Слой_x0020_1">
  <metadata id="CorelCorpID_0Corel-Layer"/>
  <path class="fil0" d="M0 0c2984,0 5968,0 8953,0 0,2910 0,5819 0,8729 -2985,0 -5969,0 -8953,0 0,-2910 0,-5819 0,-8729zm373 373c1,2661 0,5322 0,7983 2736,0 5471,0 8207,0 0,-2661 0,-5322 0,-7983 -2736,0 -5471,1 -8207,0zm1958 1626c339,-15 678,-19 1017,-18 245,7 492,45 716,148 154,71 295,175 400,308 122,152 196,337 230,526 33,183 36,371 12,554 -28,201 -97,398 -216,563 -152,215 -382,366 -631,449 -239,81 -493,106 -744,101 -72,-3 -143,-4 -214,-7 0,480 0,960 -1,1440 4,22 -15,40 -37,36 -196,0 -392,0 -588,0 -21,4 -40,-14 -37,-36 0,-1151 0,-2301 0,-3452 0,-192 -2,-385 1,-577 21,-28 59,-34 92,-35zm570 587c0,273 0,546 0,818 1,207 -3,414 2,621 207,7 419,19 622,-30 148,-35 292,-110 385,-233 104,-135 139,-311 137,-479 1,-163 -38,-334 -144,-462 -99,-124 -250,-194 -403,-224 -197,-38 -400,-19 -599,-11zm3157 434c116,-9 233,-5 350,4 145,13 292,36 428,91 30,11 49,43 46,74 0,175 1,349 0,523 5,32 -34,43 -58,30 -156,-88 -333,-134 -510,-151 -112,-10 -228,-14 -336,22 -69,24 -135,69 -168,136 -43,82 -32,190 28,261 58,70 137,120 215,167 143,87 298,152 441,240 141,87 276,190 374,325 86,117 133,260 143,405 15,186 -14,381 -107,545 -74,135 -191,244 -325,318 -161,89 -344,131 -526,143 -170,9 -341,-1 -509,-32 -129,-25 -259,-62 -373,-129 -19,-9 -24,-32 -23,-52 0,-183 0,-366 -1,-550 1,-15 0,-33 13,-43 14,-5 27,4 39,11 238,155 527,230 811,215 91,-7 187,-27 260,-87 79,-63 107,-175 80,-270 -24,-82 -89,-143 -154,-193 -116,-89 -245,-158 -376,-222 -165,-85 -327,-182 -454,-318 -102,-107 -174,-243 -201,-389 -31,-166 -24,-341 35,-500 59,-158 168,-295 306,-390 162,-113 357,-170 552,-184z"/>
 </g>
</svg>
