<?xml version="1.0" encoding="UTF-8"?>
<!DOCTYPE svg PUBLIC "-//W3C//DTD SVG 1.1//EN" "http://www.w3.org/Graphics/SVG/1.1/DTD/svg11.dtd">
<!-- Creator: CorelDRAW 2018 (64-Bit) -->
<svg xmlns="http://www.w3.org/2000/svg" xml:space="preserve" width="50px" height="39px" version="1.1" style="shape-rendering:geometricPrecision; text-rendering:geometricPrecision; image-rendering:optimizeQuality; fill-rule:evenodd; clip-rule:evenodd"
viewBox="0 0 50 39"
 xmlns:xlink="http://www.w3.org/1999/xlink">
 <defs>
  <style type="text/css">
   <![CDATA[
    .fil0 {fill:#FEFEFE}
   ]]>
  </style>
 </defs>
 <g id="Слой_x0020_1">
  <metadata id="CorelCorpID_0Corel-Layer"/>
  <g id="_998621280">
   <path class="fil0" d="M48.54 37.59l-40.54 0 0 -29.38 40.54 0 0 29.38zm0.73 -30.78l-7.85 0c0,-0.39 -0.32,-0.71 -0.73,-0.71 -0.4,0 -0.73,0.32 -0.73,0.71l-32.69 0c-0.41,0 -0.73,0.31 -0.73,0.7l0 21.31c-0.4,0 -0.73,0.32 -0.73,0.71 0,0.39 0.33,0.7 0.73,0.7l0 8.06c0,0.39 0.32,0.71 0.73,0.71l42 0c0.41,0 0.73,-0.32 0.73,-0.71l0 -30.78c0,-0.39 -0.33,-0.7 -0.73,-0.7l0 0z"/>
   <path class="fil0" d="M45.06 33.87l-9.09 0 -8.22 -7.06 6.04 -5.2 11.27 9.69 0 2.57zm0.73 -8.86c-0.41,0 -0.73,0.32 -0.73,0.71l0 3.69 -10.79 -9.27c-0.27,-0.23 -0.69,-0.23 -0.97,0l-6.65 5.73 -4.9 -4.21c-0.28,-0.25 -0.7,-0.25 -0.97,0l-4.13 3.53c-0.3,0.26 -0.33,0.7 -0.06,1 0.27,0.29 0.73,0.31 1.04,0.05l3.63 -3.12 12.51 10.75 -22.29 0 0 -2.34 3.93 -3.38c0.3,-0.26 0.33,-0.7 0.06,-0.99 -0.27,-0.29 -0.73,-0.32 -1.03,-0.06l-2.96 2.54 0 -12.45c0,-0.39 -0.33,-0.7 -0.73,-0.7 -0.41,0 -0.73,0.31 -0.73,0.7l0 14.02 0 3.36c0,0.39 0.32,0.71 0.73,0.71l35.04 0c0.41,0 0.73,-0.32 0.73,-0.71l0 -3.58 0 -5.27c0,-0.39 -0.32,-0.71 -0.73,-0.71l0 0z"/>
   <path class="fil0" d="M10.02 11.23l0 3.14c0,0.39 0.32,0.71 0.73,0.71 0.4,0 0.73,-0.32 0.73,-0.71l0 -2.44 33.58 0 0 10.97c0,0.39 0.32,0.71 0.73,0.71 0.41,0 0.73,-0.32 0.73,-0.71l0 -11.67c0,-0.39 -0.32,-0.7 -0.73,-0.7l-35.04 0c-0.41,0 -0.73,0.31 -0.73,0.7l0 0z"/>
   <path class="fil0" d="M40.69 2.83c-0.4,0 -0.73,0.32 -0.73,0.71l0 1.14c0,0.38 0.33,0.7 0.73,0.7 0.41,0 0.73,-0.32 0.73,-0.7l0 -1.14c0,-0.39 -0.32,-0.71 -0.73,-0.71z"/>
   <path class="fil0" d="M39.96 1.41c0,0.39 0.33,0.7 0.73,0.7 0.41,0 0.73,-0.31 0.73,-0.7l0 -0.71c0,-0.39 -0.32,-0.7 -0.73,-0.7l-0.73 0c-0.4,0 -0.73,0.31 -0.73,0.7 0,0.4 0.33,0.71 0.73,0.71z"/>
   <path class="fil0" d="M20.01 1.41l1.4 0c0.4,0 0.73,-0.31 0.73,-0.71 0,-0.39 -0.33,-0.7 -0.73,-0.7l-1.4 0c-0.4,0 -0.73,0.31 -0.73,0.7 0,0.4 0.33,0.71 0.73,0.71z"/>
   <path class="fil0" d="M8.05 1.41l1.39 0c0.41,0 0.73,-0.31 0.73,-0.71 0,-0.39 -0.32,-0.7 -0.73,-0.7l-1.39 0c-0.41,0 -0.73,0.31 -0.73,0.7 0,0.4 0.32,0.71 0.73,0.71z"/>
   <path class="fil0" d="M16.03 1.41l1.39 0c0.4,0 0.73,-0.31 0.73,-0.71 0,-0.39 -0.33,-0.7 -0.73,-0.7l-1.39 0c-0.41,0 -0.74,0.31 -0.74,0.7 0,0.4 0.33,0.71 0.74,0.71z"/>
   <path class="fil0" d="M12.04 1.41l1.39 0c0.4,0 0.73,-0.31 0.73,-0.71 0,-0.39 -0.33,-0.7 -0.73,-0.7l-1.39 0c-0.41,0 -0.73,0.31 -0.73,0.7 0,0.4 0.32,0.71 0.73,0.71z"/>
   <path class="fil0" d="M35.97 1.41l1.4 0c0.4,0 0.72,-0.31 0.72,-0.71 0,-0.39 -0.32,-0.7 -0.72,-0.7l-1.4 0c-0.41,0 -0.73,0.31 -0.73,0.7 0,0.4 0.32,0.71 0.73,0.71z"/>
   <path class="fil0" d="M27.99 1.41l1.39 0c0.41,0 0.74,-0.31 0.74,-0.71 0,-0.39 -0.33,-0.7 -0.74,-0.7l-1.39 0c-0.4,0 -0.73,0.31 -0.73,0.7 0,0.4 0.33,0.71 0.73,0.71z"/>
   <path class="fil0" d="M31.98 1.41l1.39 0c0.41,0 0.73,-0.31 0.73,-0.71 0,-0.39 -0.32,-0.7 -0.73,-0.7l-1.39 0c-0.4,0 -0.73,0.31 -0.73,0.7 0,0.4 0.33,0.71 0.73,0.71z"/>
   <path class="fil0" d="M24 1.41l1.39 0c0.41,0 0.74,-0.31 0.74,-0.71 0,-0.39 -0.33,-0.7 -0.74,-0.7l-1.39 0c-0.4,0 -0.73,0.31 -0.73,0.7 0,0.4 0.33,0.71 0.73,0.71z"/>
   <path class="fil0" d="M6.18 0.7c0,-0.39 -0.32,-0.7 -0.73,-0.7l-1.39 0c-0.4,0 -0.73,0.31 -0.73,0.7 0,0.4 0.33,0.71 0.73,0.71l1.39 0c0.41,0 0.73,-0.31 0.73,-0.71z"/>
   <path class="fil0" d="M1.46 0l-0.73 0c-0.41,0 -0.73,0.31 -0.73,0.7l0 0.71c0,0.39 0.32,0.7 0.73,0.7 0.41,0 0.73,-0.31 0.73,-0.7 0.41,0 0.74,-0.31 0.74,-0.71 0,-0.39 -0.33,-0.7 -0.74,-0.7z"/>
   <path class="fil0" d="M0.73 26.84c0.41,0 0.73,-0.31 0.73,-0.7l0 -1.44c0,-0.39 -0.32,-0.71 -0.73,-0.71 -0.41,0 -0.73,0.32 -0.73,0.71l0 1.44c0,0.39 0.32,0.7 0.73,0.7z"/>
   <path class="fil0" d="M0.73 6.24c0.41,0 0.73,-0.32 0.73,-0.71l0 -1.44c0,-0.38 -0.32,-0.7 -0.73,-0.7 -0.41,0 -0.73,0.32 -0.73,0.7l0 1.44c0,0.39 0.32,0.71 0.73,0.71z"/>
   <path class="fil0" d="M0.73 22.72c0.41,0 0.73,-0.32 0.73,-0.7l0 -1.44c0,-0.39 -0.32,-0.71 -0.73,-0.71 -0.41,0 -0.73,0.32 -0.73,0.71l0 1.44c0,0.38 0.32,0.7 0.73,0.7z"/>
   <path class="fil0" d="M0.73 14.48c0.41,0 0.73,-0.32 0.73,-0.71l0 -1.43c0,-0.39 -0.32,-0.71 -0.73,-0.71 -0.41,0 -0.73,0.32 -0.73,0.71l0 1.43c0,0.39 0.32,0.71 0.73,0.71z"/>
   <path class="fil0" d="M0.73 10.36c0.41,0 0.73,-0.32 0.73,-0.71l0 -1.44c0,-0.38 -0.32,-0.7 -0.73,-0.7 -0.41,0 -0.73,0.32 -0.73,0.7l0 1.44c0,0.39 0.32,0.71 0.73,0.71z"/>
   <path class="fil0" d="M0.73 18.6c0.41,0 0.73,-0.32 0.73,-0.71l0 -1.43c0,-0.39 -0.32,-0.71 -0.73,-0.71 -0.41,0 -0.73,0.32 -0.73,0.71l0 1.43c0,0.39 0.32,0.71 0.73,0.71z"/>
   <path class="fil0" d="M1.46 28.82c0,-0.39 -0.32,-0.7 -0.73,-0.7 -0.41,0 -0.73,0.31 -0.73,0.7l0 0.71c0,0.39 0.32,0.7 0.73,0.7l0.73 0c0.41,0 0.74,-0.31 0.74,-0.7 0,-0.39 -0.33,-0.71 -0.74,-0.71z"/>
   <path class="fil0" d="M4.54 28.82l-1.08 0c-0.4,0 -0.73,0.32 -0.73,0.71 0,0.39 0.33,0.7 0.73,0.7l1.08 0c0.4,0 0.73,-0.31 0.73,-0.7 0,-0.39 -0.33,-0.71 -0.73,-0.71z"/>
   <path class="fil0" d="M24.7 16.81c0,-1.09 0.92,-1.97 2.04,-1.97 1.12,0 2.04,0.88 2.04,1.97 0,1.08 -0.92,1.96 -2.04,1.96 -1.12,0 -2.04,-0.88 -2.04,-1.96zm5.54 0c0,-1.87 -1.57,-3.38 -3.5,-3.38 -1.93,0 -3.5,1.51 -3.5,3.38 0,1.85 1.57,3.37 3.5,3.37 1.93,0 3.5,-1.52 3.5,-3.37z"/>
  </g>
 </g>
</svg>
