<?xml version="1.0" encoding="UTF-8"?>
<!DOCTYPE svg PUBLIC "-//W3C//DTD SVG 1.1//EN" "http://www.w3.org/Graphics/SVG/1.1/DTD/svg11.dtd">
<!-- Creator: CorelDRAW X7 -->
<svg xmlns="http://www.w3.org/2000/svg" xml:space="preserve" width="2688px" height="2549px" version="1.1" style="shape-rendering:geometricPrecision; text-rendering:geometricPrecision; image-rendering:optimizeQuality; fill-rule:evenodd; clip-rule:evenodd"
viewBox="0 0 2790 2646"
 xmlns:xlink="http://www.w3.org/1999/xlink">
 <defs>
  <style type="text/css">
   <![CDATA[
    .fil3 {fill:#2B2A29}
    .fil0 {fill:#E31E24}
    .fil1 {fill:black}
    .fil2 {fill:black}
   ]]>
  </style>
 </defs>
 <g id="Слой_x0020_1">
  <metadata id="CorelCorpID_0Corel-Layer"/>
  <g id="_2217075014384">
   <g>
    <g>
     <path class="fil0" d="M801 382c-53,-53 -128,-88 -209,-88 -82,0 -157,33 -210,88 -53,53 -88,128 -88,210 0,81 35,156 88,209 53,54 128,88 210,88 81,0 156,-33 209,-88 54,-53 88,-128 88,-209 0,-82 -33,-157 -88,-210zm-56 363c-39,39 -94,63 -153,63 -60,0 -115,-24 -154,-63 -39,-39 -62,-94 -62,-153 0,-60 23,-115 62,-154 39,-39 94,-62 154,-62 59,0 114,23 153,62 39,39 63,94 63,154 0,59 -24,114 -63,153z"/>
    </g>
   </g>
   <g>
    <g>
     <path class="fil0" d="M1143 551l-121 0c-22,0 -41,19 -41,41 0,22 19,40 41,40l121 0c21,0 40,-18 40,-40 0,-22 -19,-41 -40,-41z"/>
    </g>
   </g>
   <g>
    <g>
     <path class="fil0" d="M592 981c-22,0 -41,19 -41,41l0 121c0,21 19,40 41,40 22,0 40,-19 40,-40l0 -121c0,-22 -18,-41 -40,-41z"/>
    </g>
   </g>
   <g>
    <g>
     <path class="fil0" d="M1010 953l-87 -86c-14,-16 -40,-16 -56,0 -16,16 -16,41 0,56l86 87c16,15 41,15 57,0 15,-16 15,-41 0,-57z"/>
    </g>
   </g>
   <g>
    <g>
     <path class="fil0" d="M592 0c-22,0 -41,19 -41,41l0 120c0,22 19,41 41,41 22,0 40,-19 40,-41l0 -120c0,-22 -18,-41 -40,-41z"/>
    </g>
   </g>
   <g>
    <g>
     <path class="fil0" d="M1011 174c-16,-16 -41,-16 -56,0l-86 86c-16,15 -16,41 0,56 14,16 40,16 56,0l86 -86c16,-16 16,-41 0,-56z"/>
    </g>
   </g>
   <g>
    <g>
     <path class="fil0" d="M161 551l-120 0c-22,0 -41,19 -41,41 0,22 17,40 41,40l120 0c22,0 41,-18 41,-40 0,-22 -19,-41 -41,-41z"/>
    </g>
   </g>
   <g>
    <g>
     <path class="fil0" d="M315 867c-14,-16 -41,-16 -57,0l-86 86c-15,16 -15,41 0,57 16,15 41,15 57,0l86 -87c15,-15 15,-40 0,-56z"/>
    </g>
   </g>
   <g>
    <g>
     <path class="fil0" d="M315 260l-86 -86c-16,-16 -41,-16 -57,0 -15,15 -15,40 0,56l86 86c16,16 41,16 57,0 15,-15 15,-41 0,-56z"/>
    </g>
   </g>
  </g>
  <path class="fil1" d="M2781 752c9,9 12,23 6,35 -54,116 -149,207 -267,256 -125,51 -264,51 -389,-1 -124,-52 -222,-151 -273,-275 -52,-125 -51,-264 1,-389 52,-124 150,-222 275,-274 8,-3 18,-3 26,1 16,8 22,26 15,42 -53,113 -55,243 -8,358 45,109 131,194 240,240 109,45 230,45 340,0 12,-5 25,-2 34,7zm-90 77c-37,8 -75,12 -113,12 -281,0 -508,-227 -508,-507 0,-46 6,-91 18,-135 -127,81 -205,222 -205,375 0,245 199,444 444,444 145,0 281,-71 364,-189z"/>
  <rect class="fil2" transform="matrix(0.946766 -2.46026 2.46026 0.946766 1245.41 1067.83)" width="397.103" height="25.9536" rx="61" ry="61"/>
  <g id="_2217074952560">
   <g>
    <g>
     <path class="fil3" d="M801 1845c-53,-53 -128,-88 -209,-88 -82,0 -157,33 -210,88 -53,53 -88,128 -88,209 0,82 35,157 88,210 53,53 128,88 210,88 81,0 156,-33 209,-88 54,-53 88,-128 88,-210 0,-81 -33,-156 -88,-209zm-56 363c-39,39 -94,62 -153,62 -60,0 -115,-23 -154,-62 -39,-39 -62,-94 -62,-154 0,-59 23,-114 62,-153 39,-39 94,-63 154,-63 59,0 114,24 153,63 39,39 63,94 63,153 0,60 -24,115 -63,154z"/>
    </g>
   </g>
   <g>
    <g>
     <path class="fil3" d="M1143 2014l-121 0c-22,0 -41,19 -41,40 0,22 19,41 41,41l121 0c21,0 40,-19 40,-41 0,-21 -19,-40 -40,-40z"/>
    </g>
   </g>
   <g>
    <g>
     <path class="fil3" d="M592 2444c-22,0 -41,19 -41,41l0 120c0,22 19,41 41,41 22,0 40,-19 40,-41l0 -120c0,-22 -18,-41 -40,-41z"/>
    </g>
   </g>
   <g>
    <g>
     <path class="fil3" d="M1010 2416l-87 -86c-14,-16 -40,-16 -56,0 -16,16 -16,41 0,56l86 86c16,16 41,16 57,0 15,-15 15,-40 0,-56z"/>
    </g>
   </g>
   <g>
    <g>
     <path class="fil3" d="M592 1463c-22,0 -41,19 -41,41l0 120c0,22 19,41 41,41 22,0 40,-19 40,-41l0 -120c0,-22 -18,-41 -40,-41z"/>
    </g>
   </g>
   <g>
    <g>
     <path class="fil3" d="M1011 1637c-16,-16 -41,-16 -56,0l-86 86c-16,15 -16,40 0,56 14,16 40,16 56,0l86 -86c16,-16 16,-41 0,-56z"/>
    </g>
   </g>
   <g>
    <g>
     <path class="fil3" d="M161 2014l-120 0c-22,0 -41,19 -41,40 0,22 17,41 41,41l120 0c22,0 41,-19 41,-41 0,-21 -19,-40 -41,-40z"/>
    </g>
   </g>
   <g>
    <g>
     <path class="fil3" d="M315 2330c-14,-16 -41,-16 -57,0l-86 86c-15,16 -15,41 0,56 16,16 41,16 57,0l86 -86c15,-15 15,-40 0,-56z"/>
    </g>
   </g>
   <g>
    <g>
     <path class="fil3" d="M315 1723l-86 -86c-16,-16 -41,-16 -57,0 -15,15 -15,40 0,56l86 86c16,16 41,16 57,0 15,-16 15,-41 0,-56z"/>
    </g>
   </g>
  </g>
  <path class="fil0" d="M2781 2215c9,9 12,23 6,35 -54,116 -149,207 -267,256 -125,51 -264,51 -389,-1 -124,-52 -222,-151 -273,-276 -52,-124 -51,-263 1,-388 52,-124 150,-222 275,-274 8,-3 18,-3 26,1 16,7 22,26 15,42 -53,113 -55,243 -8,357 45,109 131,195 240,240 109,46 230,46 340,1 12,-5 25,-3 34,7zm-90 76c-37,9 -75,13 -113,13 -281,0 -508,-227 -508,-507 0,-46 6,-91 18,-135 -127,81 -205,222 -205,375 0,245 199,444 444,444 145,0 281,-72 364,-190z"/>
  <rect class="fil2" transform="matrix(0.946766 -2.46026 2.46026 0.946766 1245.41 2530.67)" width="397.103" height="25.9536" rx="61" ry="61"/>
 </g>
</svg>
