<?xml version="1.0" encoding="UTF-8"?>
<!DOCTYPE svg PUBLIC "-//W3C//DTD SVG 1.1//EN" "http://www.w3.org/Graphics/SVG/1.1/DTD/svg11.dtd">
<!-- Creator: CorelDRAW 2018 (64-Bit) -->
<svg xmlns="http://www.w3.org/2000/svg" xml:space="preserve" width="50px" height="42px" version="1.1" style="shape-rendering:geometricPrecision; text-rendering:geometricPrecision; image-rendering:optimizeQuality; fill-rule:evenodd; clip-rule:evenodd"
viewBox="0 0 50 42"
 xmlns:xlink="http://www.w3.org/1999/xlink">
 <defs>
  <style type="text/css">
   <![CDATA[
    .fil0 {fill:#FEFEFE}
   ]]>
  </style>
 </defs>
 <g id="Слой_x0020_1">
  <metadata id="CorelCorpID_0Corel-Layer"/>
  <g id="_2327969136">
   <path class="fil0" d="M17.77 40.54l-1.68 0 0 -4.36 1.5 0c0,0 0.01,0 0.01,0l8.58 0c0.41,0 0.74,-0.33 0.74,-0.73l0 0c0,0 0,0 0,0 0,-0.41 -0.33,-0.73 -0.74,-0.73l-8.16 0 -4.88 -8.16 4.37 -7.3c0.21,-0.34 0.1,-0.79 -0.25,-1 -0.35,-0.2 -0.8,-0.09 -1.01,0.26l-4.6 7.67c-0.13,0.23 -0.13,0.52 0,0.74l4.66 7.79 -0.95 0c-0.41,0 -0.73,0.32 -0.73,0.73l0 5.81c0,0.41 0.32,0.74 0.73,0.74l2.41 0c0.4,0 0.73,-0.33 0.73,-0.74 0,-0.4 -0.33,-0.72 -0.73,-0.72l0 0z"/>
   <path class="fil0" d="M48.53 28.77l-3.16 0 0 -3.14 3.16 0 0 3.14zm-21.99 -24.18l-3.16 0 0 -1.4c0,0 0,0 0,-0.01l0 -1.72 3.16 0 0 1.73c0,0 0,0 0,0l0 1.4 0 0zm-0.12 19.78c0,0.8 -0.65,1.46 -1.46,1.46 -0.81,0 -1.46,-0.66 -1.46,-1.46 0,-0.8 0.65,-1.46 1.46,-1.46 0.81,0 1.46,0.66 1.46,1.46zm-23.38 -19.68c-0.86,0 -1.57,-0.71 -1.57,-1.57 0,-0.87 0.71,-1.56 1.57,-1.56 0.87,0 1.58,0.69 1.58,1.56 0,0.86 -0.71,1.57 -1.58,1.57zm43.83 -3.13c0.87,0 1.58,0.69 1.58,1.56 0,0.86 -0.71,1.57 -1.58,1.57 -0.87,0 -1.58,-0.71 -1.58,-1.57 0,-0.87 0.71,-1.56 1.58,-1.56zm-42.25 27.21l-3.15 0 0 -3.14 3.15 0 0 3.14zm44.64 -4.6l-1.63 0c-0.17,-5.35 -2.23,-10.45 -5.86,-14.42 -2.36,-2.59 -5.26,-4.57 -8.46,-5.83l10.63 0c0.35,1.28 1.53,2.22 2.93,2.22 1.68,0 3.05,-1.35 3.05,-3.02 0,-1.66 -1.37,-3.03 -3.05,-3.03 -1.45,0 -2.66,1.02 -2.97,2.37l-15.9 0 0 -1.73c0,-0.4 -0.32,-0.73 -0.73,-0.73l-4.62 0c-0.41,0 -0.74,0.33 -0.74,0.73l0 1.73 -15.9 0c-0.3,-1.35 -1.51,-2.37 -2.97,-2.37 -1.67,0 -3.04,1.37 -3.04,3.03 0,1.67 1.37,3.02 3.04,3.02 1.41,0 2.59,-0.94 2.94,-2.22l10.63 0c-3.21,1.26 -6.1,3.24 -8.46,5.83 -3.63,3.97 -5.7,9.07 -5.86,14.42l-1.56 0c-0.4,0 -0.73,0.33 -0.73,0.73l0 4.59c0,0.41 0.33,0.73 0.73,0.73l4.63 0c0.4,0 0.73,-0.32 0.73,-0.73l0 -4.59c0,-0.4 -0.33,-0.73 -0.73,-0.73l-1.61 0c0.17,-4.99 2.1,-9.73 5.48,-13.44 3.33,-3.66 7.81,-6.02 12.68,-6.71l0 1.3c0,0.4 0.33,0.73 0.74,0.73l1.07 0 -5.96 9.95c-0.2,0.34 -0.09,0.79 0.26,0.99 0.35,0.21 0.8,0.1 1.01,-0.25l5.2 -8.67 0 13.48c-1.27,0.32 -2.21,1.46 -2.21,2.82 0,1.61 1.32,2.91 2.94,2.91 1.62,0 2.93,-1.3 2.93,-2.91 0,-1.36 -0.93,-2.5 -2.2,-2.82l0 -13.48 11.09 18.49 -4.88 8.16 -2.79 0c-0.38,0 -0.68,0.28 -0.72,0.66 -0.01,0.02 -0.01,0.04 -0.01,0.07 0,0.4 0.33,0.73 0.73,0.73l3.21 0c0,0 0.01,0 0.01,0l1.5 0 0 4.36 -13.13 0c-0.4,0 -0.73,0.32 -0.73,0.72 0,0.41 0.33,0.74 0.73,0.74l13.86 0c0.4,0 0.73,-0.33 0.73,-0.74l0 -5.81c0,-0.41 -0.33,-0.73 -0.73,-0.73l-0.95 0 4.65 -7.79c0.14,-0.22 0.14,-0.51 0,-0.74l-12.07 -20.14 1.08 0c0.41,0 0.73,-0.33 0.73,-0.73l0 -1.3c4.88,0.69 9.36,3.05 12.69,6.71 3.38,3.71 5.31,8.45 5.48,13.44l-1.53 0c-0.4,0 -0.73,0.33 -0.73,0.73l0 4.59c0,0.41 0.33,0.73 0.73,0.73l4.62 0c0.41,0 0.74,-0.32 0.74,-0.73l0 -4.59c0,-0.4 -0.33,-0.73 -0.74,-0.73l0 0z"/>
  </g>
 </g>
</svg>
