<?xml version="1.0" encoding="UTF-8"?>
<!DOCTYPE svg PUBLIC "-//W3C//DTD SVG 1.1//EN" "http://www.w3.org/Graphics/SVG/1.1/DTD/svg11.dtd">
<!-- Creator: CorelDRAW X7 -->
<svg xmlns="http://www.w3.org/2000/svg" xml:space="preserve" width="452px" height="452px" version="1.1" style="shape-rendering:geometricPrecision; text-rendering:geometricPrecision; image-rendering:optimizeQuality; fill-rule:evenodd; clip-rule:evenodd"
viewBox="0 0 8946 8946"
 xmlns:xlink="http://www.w3.org/1999/xlink">
 <defs>
  <style type="text/css">
   <![CDATA[
    .fil0 {fill:#FEFEFE}
   ]]>
  </style>
 </defs>
 <g id="Слой_x0020_1">
  <metadata id="CorelCorpID_0Corel-Layer"/>
  <path class="fil0" d="M7450 7450c-795,796 -1852,1234 -2977,1234 -1125,0 -2182,-438 -2977,-1234 -194,-193 -367,-403 -517,-625l1236 -848 2182 1548c0,0 0,0 0,0 5,4 10,7 16,10 0,0 1,0 1,0 1,1 3,2 4,2 4,2 9,4 13,5 2,1 4,2 6,2 4,1 8,2 13,3 1,0 3,1 5,1 6,1 12,1 18,1l0 0c6,0 12,0 18,-1 2,0 4,-1 6,-1 4,-1 8,-2 12,-3 2,0 4,-1 6,-2 4,-1 9,-3 13,-5 1,0 3,-1 4,-2 1,0 1,0 1,0 6,-3 11,-6 16,-10 0,0 0,0 0,0l2182 -1548 1236 848c-150,222 -323,432 -517,625zm-5007 -4096l2030 -1440 2030 1440 -2030 1441 -2030 -1441zm6241 1119c0,761 -201,1491 -577,2130l-1246 -855 0 -417c0,-72 -59,-131 -131,-131 -73,0 -131,59 -131,131l0 418 -1995 1415 0 -2141 1995 -1415 0 1198c0,73 58,132 131,132 72,0 131,-59 131,-132l0 -1452c0,-5 0,-11 -1,-17 0,-1 -1,-3 -1,-5 -1,-4 -2,-8 -3,-11 0,-2 -1,-4 -1,-6 -1,-4 -3,-7 -4,-10 -1,-2 -2,-4 -3,-6 -1,-3 -3,-6 -4,-9 -1,-2 -3,-4 -4,-6 -2,-3 -4,-6 -6,-9 -1,-1 -2,-3 -4,-5 -2,-3 -5,-5 -8,-8 -1,-1 -2,-3 -3,-4 -4,-4 -9,-7 -13,-11l-2202 -1561 0 -1421c1076,32 2082,466 2846,1231 796,795 1234,1852 1234,2977zm-1048 -3163c-845,-845 -1968,-1310 -3163,-1310 -659,0 -1294,140 -1887,417 -66,30 -94,108 -64,174 31,65 109,94 174,63 519,-241 1072,-372 1646,-390l0 1422 -2202 1561c-4,4 -9,7 -13,11 -1,1 -2,3 -3,4 -3,3 -6,5 -8,8 -2,2 -3,4 -4,5 -2,3 -4,6 -6,9 -1,2 -2,4 -4,6 -1,3 -3,6 -4,9 -1,2 -2,4 -3,6 -1,3 -2,6 -3,10 -1,2 -2,4 -2,6 -1,3 -2,7 -3,11 0,2 0,3 -1,5 0,6 -1,12 -1,17l0 645c0,73 59,132 131,132 73,0 131,-59 131,-132l0 -391 1995 1415 0 2141 -1995 -1415 0 -1225c0,-72 -58,-131 -131,-131 -72,0 -131,59 -131,131l0 1224 -1246 855c-376,-639 -577,-1369 -577,-2130 0,-727 188,-1443 544,-2072 346,-609 842,-1128 1437,-1500 61,-39 80,-119 41,-181 -38,-61 -119,-80 -181,-41 -631,395 -1158,946 -1525,1593 -378,668 -578,1429 -578,2201 0,1195 465,2318 1310,3163 845,845 1968,1310 3163,1310 1195,0 2318,-465 3163,-1310 845,-845 1310,-1968 1310,-3163 0,-1195 -465,-2318 -1310,-3163z"/>
 </g>
</svg>
