<?xml version="1.0" encoding="UTF-8"?>
<!DOCTYPE svg PUBLIC "-//W3C//DTD SVG 1.1//EN" "http://www.w3.org/Graphics/SVG/1.1/DTD/svg11.dtd">
<!-- Creator: CorelDRAW X7 -->
<svg xmlns="http://www.w3.org/2000/svg" xml:space="preserve" width="452px" height="443px" version="1.1" style="shape-rendering:geometricPrecision; text-rendering:geometricPrecision; image-rendering:optimizeQuality; fill-rule:evenodd; clip-rule:evenodd"
viewBox="0 0 6941 6806"
 xmlns:xlink="http://www.w3.org/1999/xlink">
 <defs>
  <style type="text/css">
   <![CDATA[
    .fil0 {fill:#FEFEFE}
   ]]>
  </style>
 </defs>
 <g id="Слой_x0020_1">
  <metadata id="CorelCorpID_0Corel-Layer"/>
  <g id="_2341019520">
   <path class="fil0" d="M6107 6603l-5273 0c-313,0 -574,-230 -623,-530l0 0 2312 0c46,191 218,334 424,334l1047 0c205,0 378,-143 424,-334l2312 0c-49,300 -310,530 -623,530zm-1904 -530c-37,78 -117,131 -209,131l-1047 0c-92,0 -172,-53 -210,-131l1466 0zm-1120 -1100l811 0 0 249c0,79 -64,143 -143,143l-525 0c-79,0 -143,-64 -143,-143l0 -249zm0 -445l811 0 0 242 -811 0 0 -242zm811 -203l-811 0 0 -1361 811 0 0 1361zm-578 -1928l345 0 173 363 -691 0 173 -363zm-2888 -183c0,-168 137,-305 305,-305l1236 0c-2,8 -4,16 -5,24 -2,5 -3,10 -4,14 -2,9 -4,17 -5,25 -2,7 -3,13 -4,19 -2,8 -3,16 -5,24 -1,7 -2,15 -4,22 -1,7 -2,14 -3,21 -2,14 -4,28 -6,41 -1,6 -1,11 -2,16 -1,10 -2,20 -3,30 -1,6 -1,11 -2,17 0,10 -1,19 -2,29 0,5 0,11 -1,17 0,10 -1,20 -1,31 0,5 -1,10 -1,15 0,5 0,10 0,16l-1049 0c-56,0 -101,45 -101,101l0 2543c0,56 45,101 101,101 56,0 102,-45 102,-101l0 -2441 956 0c5,45 12,90 21,135 0,0 0,1 0,1 15,74 35,147 61,218 0,1 0,2 1,3 4,14 9,27 15,41 0,1 1,2 1,3 15,38 31,75 49,111 2,5 4,10 7,15 4,9 8,17 13,25 4,8 8,15 12,23 3,7 7,14 11,21 5,9 11,19 16,28 3,5 7,11 10,16 9,15 18,30 27,44l2 3c2,3 4,7 6,10 2,3 4,6 7,9 31,46 94,59 140,27 21,-13 35,-33 41,-55 0,0 0,-1 0,-1 1,-3 2,-6 2,-8 0,-1 0,-2 1,-3 0,-2 0,-4 1,-7 0,-1 0,-2 0,-3 0,-2 0,-4 0,-7 0,-1 0,-3 0,-4 0,-2 0,-4 0,-5 -1,-3 -1,-5 -1,-7 0,-1 -1,-2 -1,-3 0,-3 -1,-5 -2,-8 0,0 0,-1 0,-2 -1,-3 -2,-6 -3,-9 0,0 0,0 -1,0 -2,-7 -5,-13 -9,-18 -3,-5 -6,-10 -9,-14 -1,-1 -1,-2 -2,-2l-2 -4c-9,-13 -17,-27 -25,-40 -4,-6 -7,-12 -11,-18 -4,-8 -8,-15 -12,-22 -5,-8 -9,-17 -13,-25 -3,-5 -6,-10 -9,-16 -5,-9 -9,-19 -14,-28 -2,-4 -4,-8 -6,-12 -5,-11 -10,-22 -14,-33 -2,-2 -3,-5 -4,-8 -5,-12 -10,-24 -15,-36 -1,-1 -1,-3 -2,-5 -5,-13 -10,-26 -15,-39 0,0 0,-1 0,-1 -45,-127 -72,-261 -79,-397l0 0c-1,-22 -2,-44 -2,-67 0,-18 1,-35 2,-53 0,-3 0,-6 0,-10 1,-16 2,-33 3,-49 0,-4 1,-8 1,-12 2,-16 3,-32 5,-47 0,-3 1,-6 1,-9 2,-15 4,-29 7,-43 1,-5 1,-10 2,-15 3,-15 6,-29 9,-44 1,-6 2,-12 3,-18 3,-12 6,-25 9,-37 2,-8 4,-15 6,-23 3,-9 5,-18 8,-28 3,-10 6,-20 9,-30 3,-9 6,-17 9,-26 184,-538 693,-926 1291,-926 598,0 1108,388 1292,926 3,9 6,17 8,26 4,10 7,20 10,31 2,9 5,18 7,27 3,8 5,15 6,23 4,12 7,25 9,37 2,6 3,12 4,18 3,15 6,29 9,44 1,5 1,10 2,15 2,14 5,28 7,43 0,3 0,6 1,9 2,15 3,31 5,47 0,4 0,8 1,12 1,16 2,33 3,49 0,4 0,7 0,10 1,18 1,35 1,53 0,22 0,45 -1,67l0 0c-7,136 -34,270 -79,397 0,0 0,1 -1,1 -4,13 -9,26 -14,39 -1,2 -2,4 -3,6 -4,12 -9,23 -14,35 -1,3 -3,6 -4,9 -5,11 -10,21 -15,32 -2,4 -4,8 -6,12 -4,10 -9,19 -14,29 -2,5 -5,11 -8,16 -5,8 -9,16 -13,24 -4,8 -9,15 -13,22 -3,6 -7,13 -10,18 -9,14 -17,27 -25,41l-3 3c0,0 0,0 0,0 -3,5 -6,10 -10,16 0,0 0,0 -1,1 -3,5 -7,11 -11,17 -10,15 -19,30 -29,45 -6,9 -11,17 -17,26 -8,12 -15,24 -23,36 -6,9 -11,18 -17,27 -7,11 -14,22 -21,34 -6,9 -11,18 -17,26 -7,11 -14,22 -20,33 -6,9 -11,18 -16,26 -7,11 -14,22 -20,33 -5,8 -10,16 -15,25 -7,10 -13,21 -20,32 -5,8 -9,16 -14,23 -6,12 -13,22 -19,33 -5,8 -9,15 -13,22 -7,12 -14,23 -20,35 -4,6 -8,12 -11,18 -9,15 -17,30 -25,44 -2,3 -3,5 -5,8 -9,17 -19,34 -28,50 -2,5 -5,8 -7,13 -7,12 -14,24 -20,36 -3,6 -6,11 -10,17 -5,10 -11,21 -16,31 -3,6 -7,12 -10,17 -5,10 -10,19 -15,29 -3,6 -6,11 -9,17 -5,9 -10,18 -15,27 -3,6 -6,12 -9,17 -4,9 -9,18 -13,27 -3,5 -6,10 -8,16 -5,8 -9,17 -14,26 -2,5 -5,9 -7,14 -3,5 -5,10 -8,15l0 -1100c0,-15 -3,-30 -10,-43 0,-1 0,-1 0,-2l-270 -565c0,0 0,0 0,0l-237 -494c-17,-36 -52,-58 -92,-58 -39,0 -74,22 -91,58l-237 494c0,0 0,0 0,0l-270 565c0,1 0,1 0,2 -7,13 -10,28 -10,43l0 1100c-2,-3 -4,-6 -5,-9 -3,-6 -6,-11 -8,-16 -3,-6 -6,-12 -9,-18 -3,-5 -6,-10 -9,-16 -3,-6 -6,-12 -9,-18 -3,-6 -6,-11 -9,-17 -3,-6 -6,-13 -10,-19 -3,-5 -5,-11 -8,-16 -4,-7 -8,-15 -12,-22 -2,-5 -5,-10 -8,-15 -5,-9 -10,-18 -14,-27 -2,-4 -4,-7 -6,-11 -7,-13 -14,-26 -21,-39 -3,-3 -5,-7 -7,-11 -5,-10 -10,-19 -16,-29 -3,-5 -5,-10 -8,-15 -5,-9 -10,-17 -15,-26 -3,-6 -6,-12 -10,-17 -4,-9 -9,-17 -14,-25 -3,-6 -7,-12 -10,-18 -5,-9 -10,-17 -15,-26 -3,-6 -7,-12 -10,-18 -5,-9 -11,-18 -16,-27 -4,-6 -7,-12 -10,-18 -6,-10 -12,-20 -19,-31 -3,-4 -5,-9 -8,-14 -9,-16 -19,-31 -28,-47 -29,-48 -92,-63 -140,-34 -9,5 -16,12 -23,19 -29,33 -34,81 -11,120 11,19 22,37 33,55 0,0 0,1 1,2 10,17 20,33 29,49 2,4 4,7 6,10 8,14 16,27 24,41 2,4 4,8 7,12 7,13 14,25 21,37 2,5 5,9 7,14 7,11 14,23 20,34 3,5 5,10 8,14 6,11 12,22 18,33 2,5 5,9 7,14 6,10 12,21 18,32 2,4 5,8 7,13 6,10 11,21 17,31 2,4 4,8 6,12 6,11 11,21 17,32 2,3 4,7 5,10 6,11 12,22 17,32 2,3 3,6 4,8 6,12 12,24 18,35 1,1 1,3 2,4 27,52 50,100 71,143 0,1 1,3 2,4 4,9 8,18 12,27 1,2 2,4 4,7 3,7 7,15 10,22 1,3 3,6 4,8 3,7 6,13 9,20 1,3 2,5 4,8 2,6 5,12 8,18 1,3 2,5 3,8 3,6 5,11 7,16 2,3 3,6 4,8 2,5 4,10 6,15 2,3 3,5 4,8 2,4 4,9 6,13 1,2 2,5 2,7 2,4 4,8 6,12 1,3 2,5 2,7 2,4 4,7 5,11 1,2 2,4 2,6 2,3 3,6 4,9 1,2 2,4 3,6 1,2 2,5 3,7 2,6 4,11 6,15 0,0 0,1 0,1 1,3 2,6 3,9 0,0 1,0 1,1 2,5 3,9 5,13l0 767c0,190 155,346 346,346l525 0c191,0 346,-155 346,-346l0 0 0 -767c2,-5 4,-11 8,-20 12,-32 37,-93 77,-180 2,-5 5,-10 7,-16 11,-23 23,-48 36,-75 4,-10 9,-20 14,-30 10,-21 21,-43 33,-66 10,-20 21,-42 32,-64 5,-10 10,-19 15,-29 78,-149 177,-329 303,-534 0,-1 1,-1 2,-2 12,-20 24,-40 37,-60 1,-3 3,-6 5,-9 12,-19 23,-37 35,-56 4,-6 8,-12 12,-18 10,-16 20,-32 31,-49 11,-17 23,-34 34,-52 4,-6 7,-11 11,-17 4,-6 8,-12 12,-18l2 -4c10,-14 19,-29 28,-43 3,-6 6,-11 9,-17 6,-9 11,-18 16,-28 4,-7 8,-14 12,-21 4,-7 8,-15 11,-22 5,-8 9,-17 13,-25 3,-5 5,-10 7,-15 18,-37 34,-74 49,-112 1,0 1,-1 1,-2 6,-14 11,-28 16,-41 0,-1 0,-2 0,-2 41,-115 68,-234 82,-355l920 0 0 556c0,56 46,102 102,102 56,0 101,-46 101,-102l0 -658c0,-56 -45,-101 -101,-101l-1013 0c0,-6 0,-11 0,-17 -1,-4 -1,-9 -1,-14 0,-11 -1,-21 -1,-31 -1,-6 -1,-12 -2,-17 0,-10 -1,-19 -2,-29 0,-6 -1,-11 -1,-17 -1,-10 -2,-20 -4,-30 0,-5 -1,-10 -1,-16 -2,-13 -4,-27 -6,-41 -1,-7 -2,-14 -4,-21 -1,-7 -2,-15 -3,-22 -2,-8 -3,-16 -5,-24 -1,-6 -2,-12 -4,-19 -2,-8 -3,-16 -5,-25 -1,-5 -3,-9 -4,-14 -2,-8 -3,-16 -5,-24l1200 0c168,0 305,137 305,305l0 3656 -343 0 0 -2435c0,-56 -45,-101 -101,-101 -57,0 -102,45 -102,101l0 2435 -4993 0 0 -550c0,-56 -46,-102 -102,-102 -56,0 -101,46 -101,102l0 550 -343 0c0,0 0,-3656 0,-3656zm6411 3656l-123 0 0 -3656c0,-280 -228,-508 -508,-508l-1267 0c-234,-574 -797,-980 -1453,-980 -655,0 -1218,406 -1452,980l-1303 0c-280,0 -508,228 -508,508l0 3656 -124 0c-56,0 -101,45 -101,102 0,459 374,834 834,834l5273 0c460,0 834,-375 834,-834 0,-57 -45,-102 -102,-102z"/>
   <path class="fil0" d="M3488 582c56,0 102,-45 102,-101l0 -380c0,-56 -46,-101 -102,-101 -56,0 -101,45 -101,101l0 380c0,56 45,101 101,101z"/>
   <path class="fil0" d="M5028 1221c17,0 35,-4 51,-13l329 -189c49,-27 65,-89 38,-138 -28,-49 -90,-66 -139,-38l-329 189c-49,27 -66,89 -38,138 19,33 53,51 88,51z"/>
   <path class="fil0" d="M4303 727c18,14 40,20 61,20 31,0 61,-13 81,-39l230 -301c34,-45 26,-109 -19,-143 -44,-34 -108,-25 -142,19l-230 301c-34,45 -26,109 19,143z"/>
   <path class="fil0" d="M1533 1019l329 189c16,9 33,13 51,13 35,0 69,-18 88,-51 28,-49 11,-111 -38,-138l-329 -189c-49,-28 -111,-11 -139,38 -27,49 -11,111 38,138z"/>
   <path class="fil0" d="M2496 708c20,26 50,39 81,39 21,0 43,-6 61,-20 45,-35 53,-98 19,-143l-230 -301c-34,-44 -98,-53 -143,-19 -44,34 -53,98 -18,143l230 301z"/>
  </g>
 </g>
</svg>
