<?xml version="1.0" encoding="UTF-8"?>
<!DOCTYPE svg PUBLIC "-//W3C//DTD SVG 1.1//EN" "http://www.w3.org/Graphics/SVG/1.1/DTD/svg11.dtd">
<!-- Creator: CorelDRAW 2018 (64-Bit) -->
<svg xmlns="http://www.w3.org/2000/svg" xml:space="preserve" width="133.907mm" height="131.303mm" version="1.1" style="shape-rendering:geometricPrecision; text-rendering:geometricPrecision; image-rendering:optimizeQuality; fill-rule:evenodd; clip-rule:evenodd"
viewBox="0 0 13390.74 13130.3"
 xmlns:xlink="http://www.w3.org/1999/xlink">
 <defs>
  <style type="text/css">
   <![CDATA[
    .fil0 {fill:#FEFEFE}
   ]]>
  </style>
 </defs>
 <g id="Слой_x0020_1">
  <metadata id="CorelCorpID_0Corel-Layer"/>
  <path class="fil0" d="M11781.77 12738.67l-10172.8 0c-603.85,0 -1107.38,-443.73 -1201.91,-1022.5l0 0 4460.37 0c88.74,368.48 420.57,644.36 817.99,644.36l2019.9 0c395.48,0 729.25,-275.88 817.99,-644.36l4460.37 0c-94.54,578.77 -598.06,1022.5 -1201.91,1022.5l0.01 0zm-3673.25 -1022.49c-71.38,150.48 -225.71,252.73 -403.2,252.73l-2019.9 0c-177.49,0 -331.82,-102.25 -405.13,-252.73l2828.24 0 -0.01 0zm-2160.73 -2122.15l1564.6 0 0 480.38c0,152.41 -123.47,275.88 -275.88,275.88l-1012.85 0c-152.41,0 -275.88,-123.47 -275.88,-275.88l0 -480.38 0.01 0zm0 -858.51l1564.6 0 0 466.87 -1564.6 0 0 -466.87zm1564.61 -391.63l-1564.6 0 0 -2625.68 1564.6 0 0 2625.68zm-1115.09 -3719.55l665.59 0 333.75 700.31 -1333.09 0 333.75 -700.31zm-5571.61 -353.04c0,-324.11 264.31,-588.42 588.42,-588.42l2384.51 0c-3.85,15.44 -7.71,30.87 -9.64,46.3 -3.85,9.65 -5.79,19.29 -7.72,27.01 -3.85,17.36 -7.72,32.8 -9.64,48.23 -3.86,13.51 -5.8,25.08 -7.72,36.65 -3.86,15.44 -5.79,30.86 -9.65,46.3 -1.92,13.51 -3.85,28.94 -7.72,42.45 -1.92,13.51 -3.85,27 -5.79,40.51 -3.85,27.01 -7.72,54.02 -11.57,79.1 -1.93,11.58 -1.93,21.22 -3.85,30.87 -1.93,19.29 -3.86,38.58 -5.8,57.87 -1.92,11.57 -1.92,21.22 -3.85,32.8 0,19.29 -1.93,36.65 -3.85,55.94 0,9.65 0,21.22 -1.93,32.8 0,19.29 -1.93,38.58 -1.93,59.81 0,9.65 -1.92,19.29 -1.92,28.94 0,9.64 0,19.29 0,30.86l-2023.76 0c-108.04,0 -194.86,86.82 -194.86,194.85l0 4906.03c0,108.03 86.82,194.85 194.86,194.85 108.03,0 196.78,-86.82 196.78,-194.85l0 -4709.24 1844.34 0c9.65,86.81 23.16,173.62 40.52,260.44 0,0 0,1.93 0,1.93 28.94,142.76 67.53,283.59 117.68,420.56 0,1.93 0,3.86 1.93,5.8 7.72,27.01 17.36,52.09 28.93,79.1 0,1.92 1.93,3.85 1.93,5.79 28.94,73.31 59.81,144.69 94.54,214.14 3.85,9.65 7.71,19.29 13.51,28.94 7.71,17.36 15.43,32.8 25.08,48.22 7.72,15.44 15.44,28.94 23.15,44.38 5.8,13.51 13.51,27 21.22,40.51 9.65,17.37 21.22,36.66 30.86,54.02 5.79,9.65 13.51,21.22 19.29,30.86 17.37,28.94 34.73,57.88 52.09,84.9l3.86 5.79c3.85,5.79 7.72,13.51 11.57,19.29 3.85,5.79 7.72,11.57 13.51,17.36 59.81,88.75 181.34,113.83 270.09,52.09 40.52,-25.08 67.53,-63.66 79.1,-106.11 0,0 0,-1.92 0,-1.92 1.93,-5.79 3.85,-11.57 3.85,-15.44 0,-1.93 0,-3.85 1.93,-5.79 0,-3.85 0,-7.72 1.93,-13.51 0,-1.93 0,-3.85 0,-5.79 0,-3.86 0,-7.72 0,-13.51 0,-1.93 0,-5.79 0,-7.72 0,-3.85 0,-7.72 0,-9.65 -1.93,-5.79 -1.93,-9.64 -1.93,-13.51 0,-1.92 -1.93,-3.85 -1.93,-5.79 0,-5.79 -1.92,-9.64 -3.85,-15.43 0,0 0,-1.93 0,-3.86 -1.93,-5.79 -3.86,-11.57 -5.79,-17.36 0,0 0,0 -1.93,0 -3.85,-13.51 -9.65,-25.08 -17.36,-34.73 -5.8,-9.64 -11.58,-19.29 -17.37,-27.01 -1.92,-1.92 -1.92,-3.85 -3.85,-3.85l-3.85 -7.72c-17.37,-25.08 -32.8,-52.09 -48.23,-77.17 -7.72,-11.58 -13.51,-23.16 -21.22,-34.73 -7.72,-15.44 -15.43,-28.94 -23.15,-42.45 -9.65,-15.43 -17.37,-32.8 -25.09,-48.22 -5.79,-9.65 -11.57,-19.29 -17.36,-30.86 -9.64,-17.37 -17.36,-36.66 -27.01,-54.02 -3.85,-7.72 -7.72,-15.44 -11.57,-23.16 -9.64,-21.21 -19.29,-42.44 -27.01,-63.66 -3.85,-3.85 -5.79,-9.65 -7.72,-15.44 -9.64,-23.15 -19.29,-46.3 -28.93,-69.45 -1.93,-1.93 -1.93,-5.79 -3.86,-9.65 -9.64,-25.08 -19.29,-50.16 -28.93,-75.23 0,0 0,-1.93 0,-1.93 -86.82,-245.01 -138.91,-503.52 -152.41,-765.9l0 0c-1.93,-42.45 -3.85,-84.89 -3.85,-129.26 0,-34.72 1.92,-67.52 3.85,-102.24 0,-5.79 0,-11.57 0,-19.29 1.93,-30.86 3.85,-63.66 5.79,-94.54 0,-7.71 1.93,-15.43 1.93,-23.15 3.85,-30.86 5.79,-61.74 9.64,-90.67 0,-5.79 1.93,-11.58 1.93,-17.37 3.85,-28.93 7.72,-55.94 13.51,-82.95 1.93,-9.65 1.93,-19.29 3.85,-28.94 5.8,-28.93 11.58,-55.94 17.37,-84.89 1.92,-11.57 3.85,-23.15 5.79,-34.72 5.79,-23.16 11.57,-48.23 17.36,-71.39 3.86,-15.43 7.72,-28.93 11.58,-44.37 5.79,-17.36 9.64,-34.73 15.43,-54.02 5.79,-19.29 11.57,-38.58 17.37,-57.87 5.79,-17.36 11.57,-32.8 17.36,-50.16 354.98,-1037.92 1336.95,-1786.46 2490.63,-1786.46 1153.67,0 2137.58,748.54 2492.55,1786.46 5.79,17.36 11.57,32.8 15.44,50.16 7.72,19.29 13.51,38.58 19.29,59.81 3.85,17.37 9.64,34.73 13.51,52.09 5.79,15.44 9.65,28.94 11.57,44.38 7.72,23.15 13.51,48.22 17.37,71.38 3.85,11.57 5.79,23.15 7.71,34.72 5.8,28.94 11.58,55.95 17.37,84.9 1.92,9.64 1.92,19.29 3.85,28.93 3.85,27.01 9.65,54.02 13.51,82.95 0,5.8 0,11.58 1.93,17.37 3.85,28.93 5.79,59.81 9.64,90.67 0,7.72 0,15.44 1.93,23.15 1.93,30.87 3.85,63.67 5.79,94.54 0,7.72 0,13.51 0,19.29 1.93,34.73 1.93,67.53 1.93,102.25 0,42.44 0,86.81 -1.93,129.25l0 0c-13.51,262.37 -65.59,520.88 -152.41,765.9 0,0 0,1.93 -1.92,1.93 -7.72,25.08 -17.37,50.16 -27.01,75.23 -1.93,3.86 -3.86,7.72 -5.79,11.58 -7.72,23.15 -17.37,44.37 -27.01,67.52 -1.93,5.8 -5.79,11.58 -7.72,17.37 -9.65,21.21 -19.29,40.52 -28.94,61.73 -3.85,7.72 -7.71,15.44 -11.57,23.16 -7.72,19.29 -17.36,36.65 -27.01,55.94 -3.85,9.65 -9.64,21.22 -15.43,30.87 -9.65,15.43 -17.37,30.86 -25.09,46.3 -7.71,15.43 -17.36,28.93 -25.08,42.44 -5.79,11.57 -13.51,25.08 -19.29,34.73 -17.36,27.01 -32.8,52.09 -48.22,79.1l-5.8 5.79c0,0 0,0 0,0 -5.79,9.64 -11.57,19.29 -19.29,30.86 0,0 0,0 -1.92,1.93 -5.8,9.64 -13.51,21.22 -21.22,32.8 -19.29,28.93 -36.65,57.87 -55.95,86.82 -11.57,17.36 -21.21,32.8 -32.8,50.16 -15.43,23.16 -28.93,46.3 -44.37,69.46 -11.57,17.36 -21.22,34.72 -32.8,52.09 -13.51,21.21 -27.01,42.44 -40.52,65.59 -11.57,17.36 -21.21,34.72 -32.8,50.16 -13.51,21.22 -27.01,42.45 -38.58,63.66 -11.57,17.37 -21.22,34.73 -30.86,50.17 -13.51,21.22 -27.01,42.44 -38.58,63.66 -9.65,15.44 -19.29,30.86 -28.94,48.23 -13.51,19.29 -25.08,40.52 -38.58,61.73 -9.64,15.44 -17.36,30.87 -27.01,44.38 -11.57,23.15 -25.08,42.44 -36.65,63.66 -9.65,15.44 -17.37,28.93 -25.08,42.44 -13.51,23.16 -27.01,44.38 -38.58,67.53 -7.72,11.57 -15.44,23.16 -21.22,34.73 -17.37,28.93 -32.8,57.87 -48.23,84.89 -3.85,5.79 -5.79,9.65 -9.64,15.44 -17.37,32.8 -36.66,65.59 -54.02,96.46 -3.85,9.65 -9.65,15.44 -13.51,25.08 -13.51,23.16 -27.01,46.3 -38.58,69.46 -5.79,11.57 -11.57,21.21 -19.29,32.8 -9.65,19.29 -21.22,40.52 -30.86,59.81 -5.8,11.57 -13.51,23.15 -19.3,32.8 -9.64,19.29 -19.29,36.65 -28.93,55.94 -5.79,11.57 -11.57,21.22 -17.36,32.8 -9.65,17.37 -19.29,34.73 -28.94,52.09 -5.79,11.58 -11.57,23.16 -17.36,32.8 -7.72,17.37 -17.37,34.73 -25.09,52.09 -5.79,9.65 -11.57,19.29 -15.43,30.87 -9.65,15.43 -17.37,32.8 -27.01,50.16 -3.86,9.65 -9.65,17.36 -13.51,27.01 -5.79,9.65 -9.65,19.29 -15.44,28.94l0 -2122.15c0,-28.94 -5.79,-57.88 -19.29,-82.96 0,-1.92 0,-1.92 0,-3.85l-520.89 -1090.01c0,0 0,0 0,0l-457.22 -953.04c-32.8,-69.46 -100.32,-111.9 -177.49,-111.9 -75.23,0 -142.76,42.44 -175.56,111.9l-457.23 953.04c0,0 0,0 0,0l-520.88 1090.01c0,1.93 0,1.93 0,3.85 -13.51,25.08 -19.29,54.02 -19.29,82.96l0 2122.15c-3.86,-5.8 -7.72,-11.58 -9.65,-17.37 -5.79,-11.57 -11.57,-21.22 -15.43,-30.86 -5.8,-11.57 -11.58,-23.16 -17.37,-34.73 -5.79,-9.64 -11.57,-19.29 -17.36,-30.86 -5.79,-11.57 -11.57,-23.16 -17.37,-34.73 -5.79,-11.57 -11.57,-21.21 -17.36,-32.8 -5.79,-11.57 -11.57,-25.08 -19.29,-36.65 -5.79,-9.65 -9.64,-21.22 -15.44,-30.86 -7.71,-13.51 -15.43,-28.94 -23.15,-42.45 -3.86,-9.65 -9.65,-19.29 -15.44,-28.94 -9.64,-17.36 -19.29,-34.72 -27.01,-52.09 -3.85,-7.72 -7.72,-13.51 -11.57,-21.21 -13.51,-25.09 -27.01,-50.17 -40.52,-75.24 -5.79,-5.79 -9.64,-13.51 -13.51,-21.22 -9.64,-19.29 -19.29,-36.65 -30.86,-55.94 -5.79,-9.65 -9.65,-19.29 -15.44,-28.94 -9.64,-17.36 -19.29,-32.8 -28.93,-50.16 -5.79,-11.57 -11.58,-23.16 -19.29,-32.8 -7.72,-17.36 -17.37,-32.8 -27.01,-48.23 -5.79,-11.57 -13.51,-23.15 -19.29,-34.72 -9.65,-17.37 -19.29,-32.8 -28.94,-50.17 -5.79,-11.57 -13.51,-23.15 -19.29,-34.73 -9.64,-17.36 -21.22,-34.72 -30.86,-52.09 -7.72,-11.57 -13.51,-23.15 -19.29,-34.72 -11.57,-19.29 -23.16,-38.58 -36.66,-59.81 -5.79,-7.72 -9.64,-17.37 -15.43,-27.01 -17.37,-30.86 -36.66,-59.81 -54.02,-90.67 -55.94,-92.6 -177.49,-121.55 -270.09,-65.59 -17.36,9.64 -30.86,23.15 -44.37,36.65 -55.95,63.66 -65.59,156.27 -21.22,231.51 21.22,36.65 42.45,71.38 63.66,106.11 0,0 0,1.92 1.93,3.85 19.29,32.8 38.58,63.66 55.95,94.54 3.85,7.72 7.71,13.51 11.57,19.29 15.43,27.01 30.86,52.09 46.3,79.1 3.85,7.72 7.72,15.43 13.51,23.15 13.51,25.08 27.01,48.23 40.52,71.38 3.85,9.65 9.64,17.37 13.51,27.01 13.51,21.22 27,44.38 38.58,65.59 5.79,9.65 9.64,19.29 15.43,27.01 11.58,21.22 23.16,42.45 34.73,63.66 3.85,9.65 9.65,17.37 13.51,27.01 11.57,19.29 23.16,40.52 34.73,61.74 3.85,7.72 9.64,15.44 13.51,25.08 11.57,19.29 21.22,40.52 32.8,59.81 3.85,7.72 7.72,15.44 11.57,23.16 11.57,21.21 21.22,40.51 32.8,61.73 3.85,5.79 7.72,13.51 9.65,19.29 11.57,21.22 23.15,42.45 32.8,61.74 3.85,5.79 5.79,11.57 7.72,15.44 11.57,23.15 23.15,46.29 34.72,67.52 1.93,1.93 1.93,5.79 3.86,7.72 52.09,100.32 96.46,192.93 136.97,275.88 0,1.93 1.92,5.79 3.85,7.72 7.72,17.36 15.44,34.73 23.16,52.09 1.92,3.85 3.85,7.72 7.71,13.51 5.8,13.51 13.51,28.94 19.29,42.45 1.93,5.79 5.8,11.57 7.72,15.43 5.79,13.51 11.58,25.09 17.37,38.58 1.92,5.8 3.85,9.65 7.72,15.44 3.85,11.57 9.64,23.16 15.43,34.73 1.93,5.79 3.86,9.64 5.79,15.44 5.8,11.57 9.65,21.21 13.51,30.86 3.86,5.79 5.8,11.57 7.72,15.43 3.86,9.65 7.72,19.29 11.57,28.94 3.86,5.79 5.8,9.65 7.72,15.44 3.86,7.72 7.72,17.36 11.57,25.08 1.93,3.85 3.86,9.64 3.86,13.51 3.85,7.72 7.72,15.44 11.57,23.15 1.93,5.8 3.85,9.65 3.85,13.51 3.86,7.72 7.72,13.51 9.65,21.22 1.93,3.86 3.85,7.72 3.85,11.57 3.86,5.8 5.79,11.58 7.72,17.37 1.93,3.85 3.85,7.72 5.79,11.57 1.93,3.85 3.86,9.64 5.79,13.51 3.86,11.57 7.72,21.22 11.58,28.93 0,0 0,1.93 0,1.93 1.92,5.79 3.85,11.57 5.79,17.37 0,0 1.92,0 1.92,1.92 3.86,9.65 5.8,17.37 9.65,25.08l0 1479.72c0,366.55 299.04,667.52 667.51,667.52l1012.85 0c368.48,0 667.52,-299.04 667.52,-667.52l0 0 0 -1479.72c3.85,-9.64 7.71,-21.21 15.43,-38.58 23.16,-61.73 71.38,-179.41 148.56,-347.26 3.85,-9.64 9.64,-19.29 13.51,-30.86 21.21,-44.37 44.37,-92.6 69.45,-144.69 7.72,-19.29 17.37,-38.58 27.01,-57.87 19.29,-40.52 40.52,-82.95 63.66,-127.33 19.29,-38.58 40.52,-81.02 61.74,-123.47 9.65,-19.29 19.29,-36.65 28.94,-55.94 150.48,-287.46 341.47,-634.72 584.56,-1030.22 0,-1.92 1.92,-1.92 3.85,-3.85 23.16,-38.58 46.3,-77.17 71.38,-115.75 1.93,-5.8 5.79,-11.58 9.65,-17.37 23.15,-36.65 44.37,-71.38 67.52,-108.03 7.72,-11.57 15.44,-23.16 23.16,-34.73 19.29,-30.86 38.58,-61.74 59.81,-94.54 21.22,-32.8 44.37,-65.59 65.59,-100.31 7.72,-11.58 13.51,-21.22 21.22,-32.8 7.71,-11.58 15.43,-23.16 23.15,-34.73l3.85 -7.72c19.3,-27.01 36.66,-55.94 54.02,-82.95 5.79,-11.58 11.57,-21.22 17.37,-32.8 11.57,-17.37 21.21,-34.73 30.86,-54.02 7.72,-13.51 15.44,-27.01 23.15,-40.52 7.72,-13.51 15.44,-28.94 21.22,-42.45 9.65,-15.43 17.36,-32.8 25.08,-48.22 5.79,-9.65 9.65,-19.29 13.51,-28.94 34.73,-71.38 65.59,-142.76 94.54,-216.07 1.93,0 1.93,-1.93 1.93,-3.85 11.57,-27.01 21.21,-54.02 30.86,-79.1 0,-1.93 0,-3.86 0,-3.86 79.1,-221.86 131.19,-451.44 158.2,-684.87l1774.89 0 0 1072.64c0,108.04 88.74,196.78 196.78,196.78 108.03,0 194.85,-88.74 194.85,-196.78l0 -1269.42c0,-108.04 -86.82,-194.86 -194.85,-194.86l-1954.31 0c0,-11.57 0,-21.21 0,-32.8 -1.92,-7.72 -1.92,-17.36 -1.92,-27.01 0,-21.21 -1.93,-40.51 -1.93,-59.81 -1.93,-11.57 -1.93,-23.15 -3.86,-32.8 0,-19.29 -1.92,-36.65 -3.85,-55.94 0,-11.57 -1.93,-21.22 -1.93,-32.8 -1.92,-19.29 -3.85,-38.58 -7.71,-57.87 0,-9.65 -1.93,-19.29 -1.93,-30.86 -3.85,-25.09 -7.72,-52.1 -11.57,-79.1 -1.93,-13.51 -3.86,-27.01 -7.72,-40.52 -1.93,-13.51 -3.85,-28.94 -5.79,-42.45 -3.86,-15.44 -5.79,-30.86 -9.65,-46.3 -1.93,-11.57 -3.85,-23.15 -7.72,-36.65 -3.85,-15.44 -5.79,-30.86 -9.64,-48.23 -1.93,-9.64 -5.79,-17.36 -7.72,-27.01 -3.85,-15.43 -5.79,-30.86 -9.65,-46.3l2315.08 0c324.11,0 588.42,264.31 588.42,588.42l0 7053.24 -661.73 0 0 -4697.67c0,-108.03 -86.82,-194.85 -194.85,-194.85 -109.96,0 -196.78,86.82 -196.78,194.85l0 4697.67 -9632.62 0 0 -1061.07c0,-108.04 -88.74,-196.78 -196.78,-196.78 -108.03,0 -194.85,88.74 -194.85,196.78l0 1061.07 -661.72 0c0,0 0,-7053.24 0,-7053.24l-0.15 -0.1zm12368.26 7053.24l-237.3 0 0 -7053.24c0,-540.19 -439.86,-980.05 -980.04,-980.05l-2444.33 0c-451.45,-1107.38 -1537.59,-1890.64 -2803.17,-1890.64 -1263.64,0 -2349.79,783.26 -2801.23,1890.64l-2513.78 0c-540.19,0 -980.05,439.86 -980.05,980.05l0 7053.24 -239.23 0c-108.03,0 -194.85,86.82 -194.85,196.78 0,885.51 721.53,1608.97 1608.97,1608.97l10172.8 0c887.44,0 1608.97,-723.46 1608.97,-1608.97 0,-109.96 -86.82,-196.78 -196.78,-196.78l0.01 0z"/>
  <path class="fil0" d="M6729.13 1122.81c108.04,0 196.78,-86.82 196.78,-194.85l0 -733.11c0,-108.03 -88.74,-194.85 -196.78,-194.85 -108.03,0 -194.85,86.82 -194.85,194.85l0 733.11c0,108.03 86.82,194.85 194.85,194.85z"/>
  <path class="fil0" d="M9700.14 2355.58c32.8,0 67.53,-7.72 98.39,-25.08l634.71 -364.62c94.54,-52.09 125.4,-171.7 73.31,-266.24 -54.01,-94.54 -173.62,-127.32 -268.16,-73.31l-634.71 364.63c-94.54,52.09 -127.33,171.7 -73.31,266.23 36.65,63.67 102.24,98.39 169.77,98.39z"/>
  <path class="fil0" d="M8301.45 1402.54c34.73,27.01 77.17,38.58 117.68,38.58 59.81,0 117.68,-25.08 156.27,-75.23l443.73 -580.7c65.59,-86.81 50.16,-210.29 -36.66,-275.88 -84.89,-65.59 -208.35,-48.22 -273.95,36.66l-443.72 580.69c-65.59,86.82 -50.17,210.29 36.65,275.88z"/>
  <path class="fil0" d="M2957.51 1965.88l634.71 364.62c30.86,17.36 63.66,25.08 98.39,25.08 67.53,0 133.12,-34.72 169.77,-98.39 54.02,-94.53 21.22,-214.14 -73.31,-266.23l-634.71 -364.63c-94.54,-54.01 -214.14,-21.21 -268.16,73.31 -52.09,94.54 -21.22,214.15 73.31,266.24z"/>
  <path class="fil0" d="M4815.35 1365.89c38.58,50.16 96.46,75.23 156.27,75.23 40.52,0 82.95,-11.57 117.68,-38.58 86.82,-67.52 102.24,-189.06 36.65,-275.88l-443.72 -580.69c-65.59,-84.89 -189.06,-102.25 -275.88,-36.66 -84.89,65.59 -102.24,189.07 -34.73,275.88l443.73 580.7z"/>
 </g>
</svg>
