<?xml version="1.0" encoding="UTF-8"?>
<!DOCTYPE svg PUBLIC "-//W3C//DTD SVG 1.1//EN" "http://www.w3.org/Graphics/SVG/1.1/DTD/svg11.dtd">
<!-- Creator: CorelDRAW 2018 (64-Bit) -->
<svg xmlns="http://www.w3.org/2000/svg" xml:space="preserve" width="473.861mm" height="422.079mm" version="1.1" style="shape-rendering:geometricPrecision; text-rendering:geometricPrecision; image-rendering:optimizeQuality; fill-rule:evenodd; clip-rule:evenodd"
viewBox="0 0 79578.75 70882.7"
 xmlns:xlink="http://www.w3.org/1999/xlink">
 <defs>
  <style type="text/css">
   <![CDATA[
    .fil0 {fill:#FEFEFE;fill-rule:nonzero}
   ]]>
  </style>
 </defs>
 <g id="Слой_x0020_1">
  <metadata id="CorelCorpID_0Corel-Layer"/>
  <path class="fil0" d="M31240.32 32.24c4573.34,-41.11 9146.77,-21.92 13720.11,-30.16 2813.13,-68.55 5513.85,1565.63 6956.05,3948.23 8710.75,15244.54 17311.92,30554.91 26039.15,45788.56 1124.15,1639.6 1620.41,3621.96 1623.13,5593.29 -104.15,2039.95 -1288.61,3767.29 -2253.76,5491.92 -1924.76,3284.73 -3676.83,6679.12 -5738.69,9881.47 -3301.14,-5530.25 -6404.84,-11178.4 -9629.27,-16755.28 -9045.26,-15814.85 -18090.6,-31627 -27133.14,-47439.13 -1146.09,-2187.92 -2552.67,-4233.39 -3583.57,-6478.9zm-6791.5 11639.05c688.22,548.4 1006.24,1392.83 1453.14,2122.17 4619.98,8082.92 9212.53,16182.33 13838.02,24259.72 874.68,1721.84 2072.83,3287.45 2739.13,5107.98 -11968.12,-8.14 -23936.18,0 -35904.37,-8.14 191.97,-403.07 370.18,-817.1 586.87,-1206.48 5768.77,-10087.2 11507.39,-20193.5 17287.2,-30275.26zm-24448.82 43079.65c997.93,-74.06 1998.67,-85.03 2999.49,-68.54 15175.99,2.72 30352.05,-13.77 45528.04,2.72 751.25,-137.1 1072.08,627.9 1381.89,1154.31 2758.31,5042.24 5777.08,9944.57 8464.05,15025.19 -14899.14,35.69 -29798.2,5.44 -44694.55,16.47 -2728.17,41.13 -5349.38,-1551.92 -6725.75,-3879.68 -1069.29,-1773.9 -2108.41,-3567.16 -3098.27,-5387.7 -1236.47,-2314.15 -2684.19,-4513.03 -3854.89,-6862.79z"/>
 </g>
</svg>
