<?xml version="1.0" encoding="UTF-8"?>
<!DOCTYPE svg PUBLIC "-//W3C//DTD SVG 1.1//EN" "http://www.w3.org/Graphics/SVG/1.1/DTD/svg11.dtd">
<!-- Creator: CorelDRAW X7 -->
<svg xmlns="http://www.w3.org/2000/svg" xml:space="preserve" width="28906px" height="6691px" version="1.1" style="shape-rendering:geometricPrecision; text-rendering:geometricPrecision; image-rendering:optimizeQuality; fill-rule:evenodd; clip-rule:evenodd"
viewBox="0 0 28906 6691"
 xmlns:xlink="http://www.w3.org/1999/xlink">
 <defs>
  <style type="text/css">
   <![CDATA[
    .fil1 {fill:none}
    .fil3 {fill:#DAE4EA}
    .fil0 {fill:#E2ECF5}
    .fil2 {fill:#F0F4F7}
    .fil5 {fill:#F0F4F7}
    .fil4 {fill:white}
    .fil6 {fill:#F0F4F7;fill-rule:nonzero}
   ]]>
  </style>
 </defs>
 <g id="Слой_x0020_1">
  <metadata id="CorelCorpID_0Corel-Layer"/>
  <polygon class="fil0" points="28234,5087 0,5087 0,6691 28906,6691 28906,5087 "/>
  <line class="fil1" x1="15550" y1="5581" x2="15550" y2= "3978" />
  <rect class="fil0" x="6175" y="2925" width="4119" height="431"/>
  <rect class="fil0" x="10153" y="3150" width="143" height="2037"/>
  <rect class="fil0" x="6175" y="3234" width="1869" height="2037"/>
  <path class="fil2" d="M7937 3403l0 478 -1675 0 0 -478 738 0c22,34 59,56 100,56 41,0 78,-22 97,-56l740 0 0 0 0 0z"/>
  <path class="fil2" d="M7937 3925l0 481 -1675 0 0 -481 738 0c22,34 59,56 100,56 41,0 78,-22 97,-56l740 0 0 0 0 0z"/>
  <path class="fil2" d="M7937 4447l0 481 -1675 0 0 -481 738 0c22,37 59,59 100,59 41,0 78,-22 97,-59l740 0 0 0 0 0z"/>
  <path class="fil0" d="M9303 2925l-1472 0c178,-69 441,-113 735,-113 296,0 559,44 737,113l0 0z"/>
  <polygon class="fil0" points="8416,2556 8416,2837 8716,2837 8716,2453 8416,2453 "/>
  <rect class="fil2" x="8634" y="2487" width="51.5039" height="291.371"/>
  <rect class="fil0" x="7441" y="2150" width="2251" height="303"/>
  <path class="fil0" d="M9872 2928l-316 0c38,-91 94,-150 160,-150 62,0 118,59 156,150l0 0z"/>
  <rect class="fil0" x="6262" y="2778" width="989" height="148"/>
  <rect class="fil2" x="6716" y="2778" width="536" height="148"/>
  <rect class="fil0" x="6222" y="2631" width="989" height="148"/>
  <rect class="fil2" x="6541" y="2634" width="671" height="148"/>
  <rect class="fil0" x="6469" y="2484" width="868" height="148"/>
  <rect class="fil2" x="6969" y="2484" width="368" height="148"/>
  <polygon class="fil3" points="8416,2475 8416,2537 8716,2537 8716,2453 8416,2453 "/>
  <path class="fil2" d="M8300 4169l309 0c3,0 7,3 7,9l0 0c0,3 -4,6 -7,6l-309 0c-6,0 -9,-3 -9,-6l0 0c0,-6 3,-9 9,-9l0 0z"/>
  <rect class="fil0" x="8044" y="3994" width="534" height="1094"/>
  <rect class="fil3" x="8044" y="3994" width="106" height="1093"/>
  <circle class="fil2" cx="8500" cy="4612" r="16"/>
  <path class="fil2" d="M8241 4075l312 0c3,0 6,3 6,6l0 3c0,3 -3,7 -6,7l-312 0c-4,0 -7,-4 -7,-7l0 -3c0,-3 3,-6 7,-6l0 0z"/>
  <path class="fil2" d="M8241 4106l312 0c3,0 6,3 6,10l0 0c0,3 -3,6 -6,6l-312 0c-4,0 -7,-3 -7,-6l0 0c0,-7 3,-10 7,-10l0 0z"/>
  <path class="fil2" d="M8241 4137l312 0c3,0 6,4 6,10l0 0c0,3 -3,6 -6,6l-312 0c-4,0 -7,-3 -7,-6l0 0c0,-6 3,-10 7,-10l0 0z"/>
  <path class="fil2" d="M8241 4175l312 0c3,0 6,3 6,6l0 0c0,3 -3,6 -6,6l-312 0c-4,0 -7,-3 -7,-6l0 0c0,-3 3,-6 7,-6l0 0z"/>
  <path class="fil2" d="M8241 4203l312 0c3,0 6,3 6,6l0 0c0,3 -3,7 -6,7l-312 0c-4,0 -7,-4 -7,-7l0 0c0,-3 3,-6 7,-6l0 0z"/>
  <path class="fil0" d="M9975 3866l0 1221 -1088 0 0 -1221c0,0 0,0 0,0 0,-79 63,-141 141,-141l803 0c78,0 144,62 144,141 0,0 0,0 0,0l0 0z"/>
  <path class="fil2" d="M9975 3866l0 87 -1088 0 0 -87c0,0 0,0 0,0 0,-79 63,-141 141,-141l803 0c78,0 144,62 144,141 0,0 0,0 0,0l0 0z"/>
  <g id="_1416819163872">
   <rect class="fil0" x="17509" y="2931" width="3166" height="2178"/>
   <rect class="fil2" x="17625" y="3778" width="2928" height="634"/>
   <rect class="fil2" x="17625" y="4475" width="2928" height="634"/>
   <rect class="fil0" x="20672" width="2100" height="5100"/>
   <rect class="fil4" x="20834" y="178" width="1794" height="1150"/>
   <rect class="fil4" x="20834" y="1453" width="1794" height="1131"/>
   <rect class="fil4" x="20834" y="2712" width="1794" height="1137"/>
   <rect class="fil4" x="20828" y="3959" width="1794" height="1150"/>
   <rect class="fil3" x="17625" y="3078" width="2928" height="634"/>
   <rect class="fil2" x="17625" y="3103" width="2906" height="609"/>
   <ellipse class="fil0" transform="matrix(0.835947 -0.54881 0.54881 0.835947 19038 3433.41)" rx="97" ry="84"/>
   <circle class="fil3" cx="19078" cy="3409" r="97"/>
   <path class="fil2" d="M19153 3416c0,0 0,-4 0,-7 0,-34 -28,-65 -63,-72 0,0 0,0 4,0 3,0 3,0 6,0 28,0 53,19 56,47 0,3 0,7 0,10 0,6 0,15 -3,22l0 0 0 0z"/>
   <rect class="fil3" x="17625" y="3778" width="2928" height="634"/>
   <rect class="fil2" x="17625" y="3803" width="2906" height="609"/>
   <ellipse class="fil0" transform="matrix(0.83595 -0.54881 0.54881 0.83595 19038.1 4132.4)" rx="97" ry="84"/>
   <circle class="fil3" cx="19078" cy="4106" r="97"/>
   <path class="fil2" d="M19153 4116c0,-4 0,-4 0,-7 0,-37 -28,-68 -63,-72 0,0 0,0 4,0 3,-3 3,-3 6,-3 28,0 53,22 56,50 0,3 0,7 0,10 0,6 0,15 -3,22l0 0z"/>
   <rect class="fil3" x="17625" y="4475" width="2928" height="634"/>
   <rect class="fil2" x="17625" y="4503" width="2906" height="609"/>
   <ellipse class="fil0" transform="matrix(0.83595 -0.54881 0.54881 0.83595 19038.1 4831.3)" rx="97" ry="84"/>
   <circle class="fil3" cx="19078" cy="4806" r="97"/>
   <path class="fil2" d="M19153 4816c0,-4 0,-7 0,-7 0,-37 -28,-68 -63,-75 0,0 0,0 4,0 3,0 3,0 6,0 28,0 53,22 56,50 0,0 0,3 0,7 0,9 0,15 -3,21l0 4z"/>
   <path class="fil0" d="M21503 2925c0,3 0,3 0,6 0,0 0,0 0,0 0,0 0,0 0,3 0,16 -6,32 -16,44 -9,9 -25,19 -40,19l-303 0c-32,0 -57,-31 -57,-66 0,-3 0,-3 3,-6l-203 0 0 925 819 0 0 -925 -203 0 0 0zm-222 344c0,9 -6,18 -16,18l-125 0 0 54 41 0c6,0 13,6 13,12l0 6c0,10 -7,16 -13,16l-41 0 0 12c0,10 -6,19 -15,19 -10,0 -19,-9 -19,-19l0 -12 -53 0 0 19c0,6 -6,12 -13,12l-6 0c-9,0 -15,-6 -15,-12l0 -19 0 0c-10,0 -16,-6 -16,-16l0 -6c0,-6 6,-12 16,-12l0 0 0 -100c0,-7 6,-13 15,-13l6 0c7,0 13,6 13,13l0 9 53 0 0 -78c0,-10 9,-19 19,-19 9,0 15,9 15,19l0 78 125 0c10,0 16,9 16,19l0 0zm359 300c0,9 -9,18 -18,18l-122 0 0 79c0,0 0,0 0,0 0,9 -10,18 -19,18 -9,0 -16,-9 -16,-18 0,0 0,0 0,0l0 -79 -53 0 0 10c0,6 -6,12 -15,12l-7 0c-6,0 -12,-6 -12,-12l0 -81 -3 0c-6,0 -16,-7 -16,-16l0 -6c0,-7 10,-13 16,-13l3 0 0 -19c0,-6 6,-12 12,-12l7 0c9,0 15,6 15,12l0 19 53 0 0 -12c0,0 0,0 0,0 0,-10 7,-19 16,-19 9,0 19,9 19,19 0,0 0,0 0,0l0 12 37 0c10,0 16,6 16,13l0 6c0,9 -6,16 -16,16l-37 0 0 53 122 0c9,0 18,9 18,18l0 -18z"/>
   <path class="fil0" d="M21281 3269l0 0c0,9 -6,18 -16,18l-125 0 0 54 41 0c6,0 13,6 13,12l0 6c0,10 -7,16 -13,16l-41 0 0 12c0,10 -6,19 -15,19 -10,0 -19,-9 -19,-19l0 -12 -53 0 0 19c0,6 -6,12 -13,12l-6 0c-9,0 -15,-6 -15,-12l0 -19 0 0c-10,0 -16,-6 -16,-16l0 -6c0,-6 6,-12 16,-12l0 0 0 -100c0,-7 6,-13 15,-13l6 0c7,0 13,6 13,13l0 9 53 0 0 -78c0,-10 9,-19 19,-19 9,0 15,9 15,19l0 78 125 0c10,0 16,9 16,19z"/>
   <path class="fil0" d="M21656 3587l0 0c0,10 -6,19 -16,19l-125 0 0 78c0,0 0,0 0,0 0,10 -6,19 -15,19 -10,0 -19,-9 -19,-19 0,0 0,0 0,0l0 -78 -53 0 0 10c0,6 -6,12 -13,12l-6 0c-9,0 -15,-6 -15,-12l0 -100 0 0c-10,0 -16,-7 -16,-16l0 -6c0,-7 6,-13 16,-13l0 0 0 -19c0,-6 6,-12 15,-12l6 0c7,0 13,6 13,12l0 19 53 0 0 -12c0,0 0,0 0,0 0,-10 9,-19 19,-19 9,0 15,9 15,19 0,0 0,0 0,0l0 12 41 0c6,0 16,6 16,13l0 6c0,9 -10,16 -16,16l-41 0 0 53 125 0c10,0 16,9 16,18z"/>
   <path class="fil2" d="M21037 3250l228 0c10,0 16,9 16,19l0 0c0,9 -6,18 -16,18l-228 0c-9,0 -15,-9 -15,-18l0 0c0,-10 6,-19 15,-19l0 0z"/>
   <path class="fil2" d="M21194 3353l0 6c0,10 -7,16 -13,16l-162 0c-10,0 -16,-6 -16,-16l0 -6c0,-6 6,-12 16,-12l162 0c6,0 13,6 13,12l0 0z"/>
   <path class="fil2" d="M21034 3228l6 0c7,0 13,6 13,13l0 153c0,6 -6,12 -13,12l-6 0c-9,0 -15,-6 -15,-12l0 -153c0,-7 6,-13 15,-13z"/>
   <path class="fil2" d="M21140 3172l0 215c0,10 -6,19 -15,19 -10,0 -19,-9 -19,-19l0 -215c0,-10 9,-19 19,-19 9,0 15,9 15,19z"/>
   <path class="fil2" d="M21656 3587l0 0c0,10 -6,19 -16,19l-228 0c-9,0 -15,-9 -15,-19l0 0c0,-9 6,-18 15,-18l228 0c10,0 16,9 16,18z"/>
   <path class="fil2" d="M21572 3494l0 6c0,9 -10,16 -16,16l-162 0c-10,0 -16,-7 -16,-16l0 -6c0,-7 6,-13 16,-13l162 0c6,0 16,6 16,13z"/>
   <path class="fil2" d="M21428 3462l0 154c0,6 -6,12 -13,12l-6 0c-9,0 -15,-6 -15,-12l0 -154c0,-6 6,-12 15,-12l6 0c7,0 13,6 13,12l0 0z"/>
   <path class="fil2" d="M21515 3469l0 215c0,0 0,0 0,0 0,10 -6,19 -15,19 -10,0 -19,-9 -19,-19 0,0 0,0 0,0l0 -215c0,0 0,0 0,0 0,-10 9,-19 19,-19 9,0 15,9 15,19 0,0 0,0 0,0l0 0z"/>
   <path class="fil0" d="M21706 4184l0 925 -822 0 0 -925 203 0c0,3 0,7 0,10 0,0 0,0 0,0 0,34 25,62 57,62l303 0c15,0 28,-6 40,-19 10,-12 16,-28 16,-43 0,0 0,0 0,0 0,0 0,0 0,0 0,-3 0,-7 0,-10l203 0 0 0z"/>
   <path class="fil2" d="M21037 4512l225 0c10,0 19,7 19,16l0 0c0,13 -9,19 -19,19l-225 0c-9,0 -18,-6 -18,-19l0 0c0,-9 9,-16 18,-16l0 0z"/>
   <path class="fil2" d="M21019 4600l156 0c12,0 19,9 19,19l0 0c0,9 -7,18 -19,18l-156 0c-10,0 -16,-9 -16,-18l0 0c0,-10 6,-19 16,-19l0 0z"/>
   <path class="fil2" d="M21019 4653l0 -147c0,-9 6,-19 15,-19l0 0c10,0 19,10 19,19l0 147c0,6 -9,16 -19,16l0 0c-9,0 -15,-10 -15,-16l0 0z"/>
   <path class="fil2" d="M21106 4650l0 -216c0,-12 6,-18 19,-18l0 0c9,0 15,6 15,18l0 216c0,9 -6,16 -15,16l0 0c-13,0 -19,-7 -19,-16l0 0z"/>
   <path class="fil2" d="M21412 4831l225 0c10,0 19,6 19,19l0 0c0,9 -9,16 -19,16l-225 0c-9,0 -15,-7 -15,-16l0 0c0,-13 6,-19 15,-19l0 0z"/>
   <path class="fil2" d="M21394 4741l159 0c9,0 16,9 16,18l0 0c0,10 -7,19 -16,19l-159 0c-10,0 -16,-9 -16,-19l0 0c0,-9 6,-18 16,-18l0 0z"/>
   <path class="fil2" d="M21428 4728l0 147c0,6 -9,16 -19,16l0 0c-6,0 -15,-10 -15,-16l0 -147c0,-9 9,-19 15,-19l0 0c10,0 19,10 19,19l0 0z"/>
   <path class="fil2" d="M21515 4728l0 219c0,9 -6,15 -15,15l0 0c-10,0 -19,-6 -19,-15l0 -219c0,-9 9,-16 19,-16l0 0c9,0 15,7 15,16l0 0z"/>
   <path class="fil0" d="M22578 4184l0 925 -819 0 0 -925 200 0c0,3 0,7 0,10 0,0 0,0 0,0 0,34 25,62 56,62l304 0c15,0 31,-6 40,-19 10,-12 16,-28 16,-43 0,0 0,0 0,0 0,0 0,0 0,0 0,-3 0,-7 0,-10l203 0 0 0z"/>
   <path class="fil2" d="M22297 4572l0 -225c0,-10 9,-16 18,-16l0 0c10,0 19,6 19,16l0 225c0,9 -9,19 -19,19l0 0c-9,0 -18,-10 -18,-19l0 0z"/>
   <path class="fil2" d="M22387 4591l0 -157c0,-9 10,-18 19,-18l0 0c9,0 16,9 16,18l0 157c0,9 -7,18 -16,18l0 0c-9,0 -19,-9 -19,-18l0 0z"/>
   <path class="fil2" d="M22437 4591l-147 0c-9,0 -15,-7 -15,-16l0 0c0,-9 6,-16 15,-16l147 0c10,0 19,7 19,16l0 0c0,9 -9,16 -19,16l0 0z"/>
   <path class="fil2" d="M22434 4503l-215 0c-10,0 -16,-6 -16,-16l0 0c0,-9 6,-18 16,-18l215 0c13,0 19,9 19,18l0 0c0,10 -6,16 -19,16l0 0z"/>
   <path class="fil2" d="M21906 4822l225 0c9,0 19,9 19,19l0 0c0,9 -10,15 -19,15l-225 0c-9,0 -19,-6 -19,-15l0 0c0,-10 10,-19 19,-19l0 0z"/>
   <path class="fil2" d="M21887 4731l157 0c12,0 18,10 18,19l0 0c0,9 -6,19 -18,19l-157 0c-9,0 -15,-10 -15,-19l0 0c0,-9 6,-19 15,-19l0 0z"/>
   <path class="fil2" d="M21922 4719l0 147c0,9 -10,15 -19,15l0 0c-9,0 -16,-6 -16,-15l0 -147c0,-10 7,-19 16,-19l0 0c9,0 19,9 19,19l0 0z"/>
   <path class="fil2" d="M22009 4719l0 218c0,10 -6,16 -19,16l0 0c-9,0 -15,-6 -15,-16l0 -218c0,-10 6,-16 15,-16l0 0c13,0 19,6 19,16z"/>
   <rect class="fil0" x="21403" y="1159" width="1081" height="170"/>
   <rect class="fil2" x="21875" y="1159" width="609" height="168"/>
   <rect class="fil0" x="21462" y="994" width="973" height="168"/>
   <rect class="fil2" x="21675" y="994" width="762" height="168"/>
   <rect class="fil0" x="21594" y="825" width="986" height="168"/>
   <rect class="fil2" x="21922" y="825" width="659" height="168"/>
   <rect class="fil0" x="21731" y="653" width="897" height="168"/>
   <rect class="fil2" x="22028" y="656" width="599" height="168"/>
   <rect class="fil0" x="20834" y="422" width="190" height="907"/>
   <rect class="fil0" x="21025" y="572" width="147" height="757"/>
   <rect class="fil3" x="20834" y="422" width="35.0973" height="905.789"/>
   <rect class="fil3" x="21025" y="572" width="27.1769" height="755.215"/>
   <rect class="fil3" x="20644" y="2956" width="29.2805" height="2154.95"/>
   <rect class="fil0" x="21172" y="675" width="232" height="652"/>
   <rect class="fil3" x="21172" y="675" width="43.0189" height="650.972"/>
   <rect class="fil0" x="20834" y="1681" width="190" height="907"/>
   <rect class="fil0" x="21025" y="1722" width="190" height="866"/>
   <rect class="fil3" x="20834" y="1681" width="35.0973" height="905.789"/>
   <rect class="fil3" x="21025" y="1722" width="35.0973" height="864.473"/>
   <rect class="fil0" x="21215" y="1866" width="190" height="722"/>
   <rect class="fil3" x="21215" y="1866" width="35.0973" height="721.141"/>
   <rect class="fil0" x="21403" y="1722" width="190" height="866"/>
   <rect class="fil0" x="21594" y="1637" width="190" height="951"/>
   <rect class="fil3" x="21403" y="1722" width="35.0973" height="864.473"/>
   <rect class="fil3" x="21594" y="1637" width="35.0973" height="949.176"/>
   <rect class="fil0" x="21781" y="1866" width="190" height="722"/>
   <rect class="fil3" x="21781" y="1866" width="35.0973" height="721.141"/>
   <rect class="fil0" x="21972" y="1681" width="190" height="907"/>
   <rect class="fil0" x="22162" y="1759" width="190" height="830"/>
   <rect class="fil3" x="21972" y="1681" width="35.0973" height="905.789"/>
   <rect class="fil3" x="22162" y="1759" width="35.0973" height="828.28"/>
   <rect class="fil0" transform="matrix(0.992571 -0.121665 0.121665 0.992571 22340.9 1690.12)" width="190" height="907"/>
   <rect class="fil3" transform="matrix(0.992571 -0.121665 0.121665 0.992571 22340.9 1690.12)" width="35.0973" height="905.789"/>
   <polygon class="fil0" points="21984,3844 21794,3869 21706,3141 21706,2966 21872,2944 "/>
   <polygon class="fil3" points="21828,3862 21794,3866 21706,3141 21706,2966 21719,2962 "/>
   <rect class="fil0" x="21972" y="3128" width="156" height="722"/>
   <rect class="fil3" x="21972" y="3128" width="40.4713" height="721.141"/>
   <rect class="fil0" x="22128" y="2984" width="282" height="866"/>
   <rect class="fil0" x="22409" y="2900" width="219" height="951"/>
   <rect class="fil3" x="22128" y="2984" width="52.1429" height="864.473"/>
   <rect class="fil3" x="22409" y="2900" width="40.4713" height="949.176"/>
  </g>
  <g id="screen">
   <circle id="switch-on" class="fil2" cx="8491" cy="4547" r="28"/>
   <rect id="screen-on" class="fil5" x="7441" y="916" width="2250" height="1234"/>
   <path id="error-mes" class="fil5" d="M7512 999l2053 0c12,0 22,10 22,22l0 0c0,13 -10,23 -22,23l-2053 0c-12,0 -22,-10 -22,-23l0 0c0,-12 10,-22 22,-22zm0 905l1844 0c12,0 23,10 23,22l0 0c0,13 -11,23 -23,23l-1844 0c-12,0 -22,-10 -22,-23l0 0c0,-12 10,-22 22,-22zm0 -93l1912 0c12,0 22,10 22,23l0 0c0,12 -10,22 -22,22l-1912 0c-12,0 -22,-10 -22,-22l0 0c0,-13 10,-23 22,-23zm0 -92l1882 0c12,0 22,10 22,22l0 0c0,13 -10,23 -22,23l-1882 0c-12,0 -22,-10 -22,-23l0 0c0,-12 10,-22 22,-22zm0 -148l775 0c13,0 23,10 23,23l0 0c0,12 -10,22 -23,22l-775 0c-12,0 -22,-10 -22,-22l0 0c0,-13 10,-23 22,-23zm0 -92l1477 0c12,0 22,10 22,22l0 0c0,13 -10,23 -22,23l-1477 0c-12,0 -22,-10 -22,-23l0 0c0,-12 10,-22 22,-22zm0 -93l1290 0c13,0 23,10 23,23l0 0c0,12 -10,22 -23,22l-1290 0c-12,0 -22,-10 -22,-22l0 0c0,-13 10,-23 22,-23zm0 -147l1795 0c13,0 23,10 23,22l0 0c0,13 -10,23 -23,23l-1795 0c-12,0 -22,-10 -22,-23l0 0c0,-12 10,-22 22,-22zm0 -148l775 0c13,0 23,10 23,23l0 0c0,12 -10,22 -23,22l-775 0c-12,0 -22,-10 -22,-22l0 0c0,-13 10,-23 22,-23z"/>
   <path id="loading" class="fil6" d="M8853 1726l0 -12 12 0 0 12 -12 0zm-32 0l0 -12 12 0 0 12 -12 0zm-32 0l0 -12 12 0 0 12 -12 0zm-53 -33l0 -9 35 0 0 30c-5,5 -11,8 -16,10 -6,2 -12,3 -18,3 -8,0 -16,-2 -22,-5 -7,-4 -12,-9 -15,-15 -4,-7 -5,-14 -5,-22 0,-8 1,-16 5,-23 3,-7 8,-12 14,-15 7,-4 14,-5 22,-5 6,0 11,1 16,2 5,2 9,5 12,9 2,3 5,8 6,13l-10 3c-1,-4 -3,-8 -5,-10 -1,-3 -4,-4 -7,-6 -4,-1 -8,-2 -12,-2 -5,0 -9,1 -13,2 -3,2 -6,4 -9,6 -2,3 -4,5 -5,8 -2,6 -3,11 -3,17 0,8 1,14 4,19 2,5 6,8 11,11 5,2 10,3 15,3 5,0 10,0 14,-2 5,-2 8,-4 10,-6l0 -16 -24 0zm-122 33l0 -83 11 0 43 65 0 -65 11 0 0 83 -11 0 -44 -65 0 65 -10 0zm-30 0l0 -83 11 0 0 83 -11 0zm-75 -10l18 0c5,0 10,0 13,-1 3,-1 5,-3 7,-5 3,-2 5,-6 6,-10 2,-5 2,-10 2,-16 0,-9 -1,-16 -4,-20 -3,-5 -6,-8 -10,-10 -3,-1 -8,-1 -14,-1l-18 0 0 63zm-11 10l0 -83 29 0c6,0 11,0 14,1 5,1 9,3 13,6 4,4 7,8 9,14 3,6 4,13 4,20 0,6 -1,12 -3,17 -1,4 -3,9 -5,12 -2,3 -5,5 -8,7 -2,2 -6,3 -10,4 -3,1 -8,2 -13,2l-30 0zm-62 -34l28 0 -9 -23c-2,-7 -4,-13 -6,-17 -1,5 -2,10 -4,15l-9 25zm-24 34l32 -83 12 0 33 83 -12 0 -10 -25 -34 0 -9 25 -12 0zm-73 -40c0,10 3,17 8,23 5,6 12,9 20,9 9,0 15,-3 21,-9 5,-6 8,-14 8,-25 0,-6 -2,-12 -4,-17 -2,-5 -5,-9 -10,-12 -4,-3 -9,-4 -15,-4 -7,0 -14,3 -20,8 -5,5 -8,14 -8,27zm-11 -1c0,-13 3,-24 11,-32 7,-8 17,-11 28,-11 8,0 15,1 21,5 6,4 11,9 14,15 3,7 5,14 5,22 0,9 -2,16 -5,23 -4,7 -8,12 -15,15 -6,3 -12,5 -20,5 -7,0 -14,-2 -21,-5 -6,-4 -10,-9 -14,-16 -3,-6 -4,-13 -4,-21zm-62 41l0 -83 11 0 0 73 41 0 0 10 -52 0z"/>
  </g>
 </g>
</svg>
