<?xml version="1.0" encoding="UTF-8"?>
<!DOCTYPE svg PUBLIC "-//W3C//DTD SVG 1.1//EN" "http://www.w3.org/Graphics/SVG/1.1/DTD/svg11.dtd">
<!-- Creator: CorelDRAW X7 -->
<svg xmlns="http://www.w3.org/2000/svg" xml:space="preserve" width="16954px" height="6660px" version="1.1" style="shape-rendering:geometricPrecision; text-rendering:geometricPrecision; image-rendering:optimizeQuality; fill-rule:evenodd; clip-rule:evenodd"
viewBox="0 0 9944 3906"
 xmlns:xlink="http://www.w3.org/1999/xlink">
 <defs>
  <style type="text/css">
   <![CDATA[
    .fil1 {fill:none}
    .fil3 {fill:#DAE4EA}
    .fil6 {fill:#DAE4EA}
    .fil0 {fill:#E2ECF5}
    .fil2 {fill:#F0F4F7}
    .fil5 {fill:#F0F4F7}
    .fil4 {fill:#F0F4F7;fill-rule:nonzero}
   ]]>
  </style>
 </defs>
 <g id="Слой_x0020_1">
  <metadata id="CorelCorpID_0Corel-Layer"/>
  <polygon class="fil0" points="9713,1750 0,1750 0,3906 9944,3906 9944,1750 "/>
  <line class="fil1" x1="5349" y1="1920" x2="5349" y2= "1369" />
  <rect class="fil0" x="2124" y="1006" width="1417" height="148"/>
  <rect class="fil0" x="3493" y="1084" width="49.1944" height="700.763"/>
  <rect class="fil0" x="2124" y="1113" width="643" height="701"/>
  <path class="fil2" d="M2730 1171l0 164 -576 0 0 -164 254 0c8,11 20,19 35,19 14,0 26,-8 33,-19l254 0 0 0 0 0z"/>
  <path class="fil2" d="M2730 1350l0 166 -576 0 0 -166 254 0c8,12 20,20 35,20 14,0 26,-8 33,-20l254 0 0 0 0 0z"/>
  <path class="fil2" d="M2730 1530l0 165 -576 0 0 -165 254 0c8,13 20,20 35,20 14,0 26,-7 33,-20l254 0 0 0 0 0z"/>
  <path class="fil0" d="M3200 1006l-506 0c61,-23 152,-39 253,-39 102,0 192,16 253,39l0 0z"/>
  <polygon class="fil0" points="2895,879 2895,976 2998,976 2998,844 2895,844 "/>
  <rect class="fil2" x="2970" y="856" width="17.7183" height="100.237"/>
  <rect class="fil0" x="2560" y="740" width="774" height="104"/>
  <path class="fil0" d="M3396 1007l-109 0c13,-31 33,-51 55,-51 22,0 41,20 54,51l0 0z"/>
  <rect class="fil0" x="2154" y="956" width="340.233" height="50.9145"/>
  <rect class="fil2" x="2310" y="956" width="184.393" height="50.9145"/>
  <rect class="fil0" x="2140" y="905" width="340.233" height="50.9145"/>
  <rect class="fil2" x="2250" y="906" width="230.836" height="50.9145"/>
  <rect class="fil0" x="2225" y="855" width="298.607" height="50.9145"/>
  <rect class="fil2" x="2397" y="855" width="126.598" height="50.9145"/>
  <polygon class="fil3" points="2895,851 2895,873 2998,873 2998,844 2895,844 "/>
  <path class="fil2" d="M2855 1434l107 0c1,0 2,1 2,3l0 0c0,1 -1,2 -2,2l-107 0c-2,0 -3,-1 -3,-2l0 0c0,-2 1,-3 3,-3l0 0z"/>
  <rect class="fil0" x="2767" y="1374" width="184" height="376"/>
  <rect class="fil3" x="2767" y="1374" width="36.4658" height="376.011"/>
  <circle class="fil2" cx="2924" cy="1587" r="6"/>
  <path class="fil2" d="M2835 1402l107 0c1,0 2,1 2,2l0 1c0,1 -1,2 -2,2l-107 0c-1,0 -2,-1 -2,-2l0 -1c0,-1 1,-2 2,-2l0 0z"/>
  <path class="fil2" d="M2835 1413l107 0c1,0 2,1 2,3l0 0c0,1 -1,2 -2,2l-107 0c-1,0 -2,-1 -2,-2l0 0c0,-2 1,-3 2,-3l0 0z"/>
  <path class="fil2" d="M2835 1423l107 0c1,0 2,2 2,4l0 0c0,1 -1,2 -2,2l-107 0c-1,0 -2,-1 -2,-2l0 0c0,-2 1,-4 2,-4l0 0z"/>
  <path class="fil2" d="M2835 1436l107 0c1,0 2,1 2,2l0 0c0,1 -1,2 -2,2l-107 0c-1,0 -2,-1 -2,-2l0 0c0,-1 1,-2 2,-2l0 0z"/>
  <path class="fil2" d="M2835 1446l107 0c1,0 2,1 2,2l0 0c0,1 -1,2 -2,2l-107 0c-1,0 -2,-1 -2,-2l0 0c0,-1 1,-2 2,-2l0 0z"/>
  <path class="fil0" d="M3432 1330l0 420 -375 0 0 -420c0,0 0,0 0,0 0,-27 22,-49 49,-49l276 0c27,0 50,22 50,49 0,0 0,0 0,0l0 0z"/>
  <path class="fil2" d="M3432 1330l0 30 -375 0 0 -30c0,0 0,0 0,0 0,-27 22,-49 49,-49l276 0c27,0 50,22 50,49 0,0 0,0 0,0l0 0z"/>
  <rect class="fil0" x="6023" y="1008" width="1089" height="749"/>
  <rect class="fil2" x="6063" y="1300" width="1007" height="218"/>
  <rect class="fil2" x="6063" y="1539" width="1007" height="218"/>
  <path class="fil0" d="M7112 1754l53 0 0 -392 617 0 0 392 52 0 0 -1754 -722 0 0 1754zm55 -430l617 0 0 -391 -617 0 0 391zm0 -435l617 0 0 -389 -617 0 0 389zm0 -432l617 0 0 -396 -617 0 0 396z"/>
  <rect class="fil3" x="6063" y="1059" width="1007" height="218"/>
  <rect class="fil2" x="6063" y="1067" width="1000" height="210"/>
  <ellipse class="fil0" transform="matrix(0.156901 -0.103007 0.103007 0.156901 6549.4 1181.15)" rx="178" ry="154"/>
  <circle class="fil3" cx="6563" cy="1173" r="33"/>
  <path class="fil2" d="M6589 1175c0,0 0,-1 0,-2 0,-12 -10,-23 -22,-25 0,0 0,0 2,0 1,0 1,0 2,0 9,0 18,7 19,16 0,1 0,3 0,4 0,2 0,5 -1,7l0 0 0 0 0 0z"/>
  <rect class="fil3" x="6063" y="1300" width="1007" height="218"/>
  <rect class="fil2" x="6063" y="1308" width="1000" height="210"/>
  <ellipse class="fil0" transform="matrix(0.156901 -0.103007 0.103007 0.156901 6549.43 1421.62)" rx="178" ry="154"/>
  <circle class="fil3" cx="6563" cy="1413" r="33"/>
  <path class="fil2" d="M6589 1416c0,-1 0,-1 0,-2 0,-13 -10,-24 -22,-25 0,0 0,0 2,0 1,-1 1,-1 2,-1 9,0 18,7 19,17 0,1 0,2 0,3 0,2 0,6 -1,8l0 0 0 0z"/>
  <rect class="fil3" x="6063" y="1539" width="1007" height="218"/>
  <rect class="fil2" x="6063" y="1549" width="1000" height="210"/>
  <ellipse class="fil0" transform="matrix(0.156901 -0.103007 0.103007 0.156901 6549.43 1662.05)" rx="178" ry="154"/>
  <circle class="fil3" cx="6563" cy="1653" r="33"/>
  <path class="fil2" d="M6589 1657c0,-2 0,-3 0,-3 0,-12 -10,-23 -22,-25 0,0 0,0 2,0 1,0 1,0 2,0 9,0 18,7 19,17 0,0 0,1 0,2 0,3 0,5 -1,7l0 2 0 0z"/>
  <path class="fil0" d="M7397 1006c0,1 0,1 0,2 0,0 0,0 0,0 0,0 0,0 0,1 0,6 -2,11 -5,15 -3,4 -9,7 -14,7l-104 0c-11,0 -20,-11 -20,-23 0,-1 0,-1 1,-2l-70 0 0 318 282 0 0 -318 -70 0 0 0 0 0zm-76 119c0,3 -2,6 -5,6l-43 0 0 18 14 0c2,0 4,2 4,4l0 3c0,3 -2,5 -4,5l-14 0 0 4c0,4 -3,7 -6,7 -3,0 -6,-3 -6,-7l0 -4 -18 0 0 7c0,2 -2,4 -5,4l-2 0c-3,0 -5,-2 -5,-4l0 -7 0 0c-4,0 -6,-2 -6,-5l0 -3c0,-2 2,-4 6,-4l0 0 0 -34c0,-2 2,-5 5,-5l2 0c3,0 5,3 5,5l0 3 18 0 0 -27c0,-3 3,-6 6,-6 3,0 6,3 6,6l0 27 43 0c3,0 5,3 5,7l0 0 0 0z"/>
  <path class="fil0" d="M7321 1125l0 0c0,3 -2,6 -5,6l-43 0 0 18 14 0c2,0 4,2 4,4l0 3c0,3 -2,5 -4,5l-14 0 0 4c0,4 -3,7 -6,7 -3,0 -6,-3 -6,-7l0 -4 -18 0 0 7c0,2 -2,4 -5,4l-2 0c-3,0 -5,-2 -5,-4l0 -7 0 0c-4,0 -6,-2 -6,-5l0 -3c0,-2 2,-4 6,-4l0 0 0 -34c0,-2 2,-5 5,-5l2 0c3,0 5,3 5,5l0 3 18 0 0 -27c0,-3 3,-6 6,-6 3,0 6,3 6,6l0 27 43 0c3,0 5,3 5,7l0 0z"/>
  <path class="fil0" d="M7450 1234l0 0c0,3 -2,7 -5,7l-43 0 0 26c0,0 0,0 0,0 0,4 -3,7 -6,7 -3,0 -6,-3 -6,-7 0,0 0,0 0,0l0 -26 -18 0 0 3c0,2 -2,4 -5,4l-2 0c-3,0 -5,-2 -5,-4l0 -34 0 0c-4,0 -6,-3 -6,-6l0 -2c0,-2 2,-4 6,-4l0 0 0 -7c0,-2 2,-4 5,-4l2 0c3,0 5,2 5,4l0 7 18 0 0 -5c0,0 0,0 0,0 0,-3 3,-6 6,-6 3,0 6,3 6,6 0,0 0,0 0,0l0 5 14 0c2,0 5,2 5,4l0 2c0,3 -3,6 -5,6l-14 0 0 18 43 0c3,0 5,3 5,6z"/>
  <path class="fil2" d="M7237 1118l79 0c3,0 5,3 5,7l0 0c0,3 -2,6 -5,6l-79 0c-3,0 -5,-3 -5,-6l0 0c0,-4 2,-7 5,-7l0 0z"/>
  <path class="fil2" d="M7291 1153l0 3c0,3 -2,5 -4,5l-56 0c-4,0 -6,-2 -6,-5l0 -3c0,-2 2,-4 6,-4l56 0c2,0 4,2 4,4l0 0z"/>
  <path class="fil2" d="M7236 1110l2 0c3,0 5,3 5,5l0 53c0,2 -2,4 -5,4l-2 0c-3,0 -5,-2 -5,-4l0 -53c0,-2 2,-5 5,-5z"/>
  <path class="fil2" d="M7273 1091l0 74c0,4 -3,7 -6,7 -3,0 -6,-3 -6,-7l0 -74c0,-3 3,-6 6,-6 3,0 6,3 6,6z"/>
  <path class="fil2" d="M7450 1234l0 0c0,3 -2,7 -5,7l-79 0c-3,0 -5,-4 -5,-7l0 0c0,-3 2,-6 5,-6l79 0c3,0 5,3 5,6z"/>
  <path class="fil2" d="M7416 1202l0 2c0,3 -4,6 -6,6l-56 0c-3,0 -5,-3 -5,-6l0 -2c0,-2 2,-4 5,-4l56 0c2,0 6,2 6,4z"/>
  <path class="fil2" d="M7366 1191l0 53c0,2 -2,4 -4,4l-2 0c-4,0 -6,-2 -6,-4l0 -53c0,-2 2,-4 6,-4l2 0c2,0 4,2 4,4l0 0z"/>
  <path class="fil2" d="M7396 1193l0 74c0,0 0,0 0,0 0,4 -2,7 -5,7 -4,0 -7,-3 -7,-7 0,0 0,0 0,0l0 -74c0,0 0,0 0,0 0,-3 3,-6 7,-6 3,0 5,3 5,6 0,0 0,0 0,0l0 0z"/>
  <path class="fil0" d="M7467 1439l0 319 -283 0 0 -319 70 0c0,1 0,3 0,4 0,0 0,0 0,0 0,12 9,21 20,21l104 0c5,0 10,-2 14,-6 3,-5 5,-10 5,-15 0,0 0,0 0,0 0,0 0,0 0,0 0,-1 0,-3 0,-4l70 0 0 0z"/>
  <path class="fil2" d="M7237 1552l77 0c4,0 7,3 7,6l0 0c0,4 -3,6 -7,6l-77 0c-3,0 -6,-2 -6,-6l0 0c0,-3 3,-6 6,-6l0 0z"/>
  <path class="fil2" d="M7231 1582l54 0c4,0 6,4 6,7l0 0c0,3 -2,6 -6,6l-54 0c-4,0 -6,-3 -6,-6l0 0c0,-3 2,-7 6,-7l0 0z"/>
  <path class="fil2" d="M7231 1601l0 -51c0,-3 2,-6 5,-6l0 0c3,0 7,3 7,6l0 51c0,2 -4,5 -7,5l0 0c-3,0 -5,-3 -5,-5l0 0z"/>
  <path class="fil2" d="M7261 1600l0 -75c0,-4 2,-6 6,-6l0 0c3,0 6,2 6,6l0 75c0,3 -3,5 -6,5l0 0c-4,0 -6,-2 -6,-5l0 0z"/>
  <path class="fil2" d="M7366 1662l77 0c4,0 7,2 7,6l0 0c0,4 -3,6 -7,6l-77 0c-3,0 -5,-2 -5,-6l0 0c0,-4 2,-6 5,-6l0 0z"/>
  <path class="fil2" d="M7360 1631l55 0c3,0 5,3 5,6l0 0c0,4 -2,7 -5,7l-55 0c-4,0 -6,-3 -6,-7l0 0c0,-3 2,-6 6,-6l0 0z"/>
  <path class="fil2" d="M7372 1627l0 50c0,2 -3,6 -7,6l0 0c-2,0 -5,-4 -5,-6l0 -50c0,-4 3,-7 5,-7l0 0c4,0 7,3 7,7l0 0z"/>
  <path class="fil2" d="M7402 1627l0 75c0,3 -3,5 -6,5l0 0c-3,0 -6,-2 -6,-5l0 -75c0,-4 3,-6 6,-6l0 0c3,0 6,2 6,6l0 0z"/>
  <path class="fil0" d="M7767 1439l0 319 -282 0 0 -319 69 0c0,1 0,3 0,4 0,0 0,0 0,0 0,12 9,21 20,21l104 0c5,0 11,-2 14,-6 3,-5 5,-10 5,-15 0,0 0,0 0,0 0,0 0,0 0,0 0,-1 0,-3 0,-4l70 0 0 0 0 0z"/>
  <path class="fil2" d="M7671 1573l0 -78c0,-3 3,-5 6,-5l0 0c3,0 6,2 6,5l0 78c0,3 -3,6 -6,6l0 0c-3,0 -6,-3 -6,-6l0 0z"/>
  <path class="fil2" d="M7702 1579l0 -54c0,-3 3,-6 6,-6l0 0c3,0 6,3 6,6l0 54c0,3 -3,7 -6,7l0 0c-3,0 -6,-4 -6,-7l0 0z"/>
  <path class="fil2" d="M7719 1579l-51 0c-3,0 -5,-2 -5,-5l0 0c0,-3 2,-6 5,-6l51 0c3,0 6,3 6,6l0 0c0,3 -3,5 -6,5l0 0z"/>
  <path class="fil2" d="M7718 1549l-74 0c-4,0 -6,-2 -6,-5l0 0c0,-3 2,-7 6,-7l74 0c4,0 6,4 6,7l0 0c0,3 -2,5 -6,5l0 0z"/>
  <path class="fil2" d="M7536 1659l77 0c4,0 7,3 7,6l0 0c0,3 -3,6 -7,6l-77 0c-3,0 -6,-3 -6,-6l0 0c0,-3 3,-6 6,-6l0 0z"/>
  <path class="fil2" d="M7530 1628l54 0c4,0 6,3 6,6l0 0c0,3 -2,7 -6,7l-54 0c-4,0 -6,-4 -6,-7l0 0c0,-3 2,-6 6,-6l0 0z"/>
  <path class="fil2" d="M7542 1623l0 51c0,3 -4,5 -7,5l0 0c-3,0 -5,-2 -5,-5l0 -51c0,-3 2,-6 5,-6l0 0c3,0 7,3 7,6l0 0z"/>
  <path class="fil2" d="M7571 1623l0 75c0,4 -2,6 -6,6l0 0c-3,0 -5,-2 -5,-6l0 -75c0,-3 2,-5 5,-5l0 0c4,0 6,2 6,5z"/>
  <rect class="fil0" x="7363" y="399" width="371.883" height="58.483"/>
  <rect class="fil2" x="7525" y="399" width="209.507" height="57.7949"/>
  <rect class="fil0" x="7383" y="342" width="334.729" height="57.7949"/>
  <rect class="fil2" x="7457" y="342" width="262.141" height="57.7949"/>
  <rect class="fil0" x="7429" y="284" width="339.201" height="57.7949"/>
  <rect class="fil2" x="7542" y="284" width="226.707" height="57.7949"/>
  <rect class="fil0" x="7476" y="225" width="308.584" height="57.7949"/>
  <rect class="fil2" x="7578" y="226" width="206.066" height="57.7949"/>
  <rect class="fil0" x="7167" y="145" width="65.3632" height="312.024"/>
  <rect class="fil0" x="7233" y="197" width="50.5706" height="260.421"/>
  <rect class="fil3" x="7167" y="145" width="12.0741" height="311.607"/>
  <rect class="fil3" x="7233" y="197" width="9.34938" height="259.807"/>
  <rect class="fil3" x="7102" y="1017" width="10.073" height="741.34"/>
  <rect class="fil0" x="7284" y="232" width="79.812" height="224.299"/>
  <rect class="fil3" x="7284" y="232" width="14.7993" height="223.946"/>
  <rect class="fil0" x="7167" y="578" width="65.3632" height="312.024"/>
  <rect class="fil0" x="7233" y="592" width="65.3632" height="297.919"/>
  <rect class="fil3" x="7167" y="578" width="12.0741" height="311.607"/>
  <rect class="fil3" x="7233" y="592" width="12.0741" height="297.394"/>
  <rect class="fil0" x="7298" y="642" width="65.3632" height="248.381"/>
  <rect class="fil3" x="7298" y="642" width="12.0741" height="248.085"/>
  <rect class="fil0" x="7363" y="592" width="65.3632" height="297.919"/>
  <rect class="fil0" x="7429" y="563" width="65.3632" height="327.161"/>
  <rect class="fil3" x="7363" y="592" width="12.0741" height="297.394"/>
  <rect class="fil3" x="7429" y="563" width="12.0741" height="326.533"/>
  <rect class="fil0" x="7493" y="642" width="65.3632" height="248.381"/>
  <rect class="fil3" x="7493" y="642" width="12.0741" height="248.085"/>
  <rect class="fil0" x="7559" y="578" width="65.3632" height="312.024"/>
  <rect class="fil0" x="7624" y="605" width="65.3632" height="285.534"/>
  <rect class="fil3" x="7559" y="578" width="12.0741" height="311.607"/>
  <rect class="fil3" x="7624" y="605" width="12.0741" height="284.943"/>
  <rect class="fil0" transform="matrix(0.186298 -0.0228356 0.0228356 0.186298 7685.65 581.43)" width="348" height="1662"/>
  <rect class="fil3" transform="matrix(0.186298 -0.0228356 0.0228356 0.186298 7685.65 581.43)" width="64.3295" height="1660.2"/>
  <polygon class="fil0" points="7563,1322 7498,1331 7467,1081 7467,1020 7524,1013 "/>
  <polygon class="fil3" points="7509,1329 7498,1330 7467,1081 7467,1020 7472,1019 "/>
  <rect class="fil0" x="7559" y="1076" width="53.6667" height="248.381"/>
  <rect class="fil3" x="7559" y="1076" width="13.9228" height="248.085"/>
  <rect class="fil0" x="7612" y="1027" width="97.0129" height="297.919"/>
  <rect class="fil0" x="7709" y="998" width="75.3398" height="327.161"/>
  <rect class="fil3" x="7612" y="1027" width="17.938" height="297.394"/>
  <rect class="fil3" x="7709" y="998" width="13.9228" height="326.533"/>
  <g id="screen">
   <circle id="switch-on" class="fil2" cx="2921" cy="1564" r="10"/>
   <rect id="screen-on" class="fil2" x="2560" y="315" width="774" height="425"/>
   <path id="error-mes" class="fil2" d="M2584 344l707 0c4,0 7,3 7,7l0 0c0,5 -3,8 -7,8l-707 0c-4,0 -7,-3 -7,-8l0 0c0,-4 3,-7 7,-7zm0 311l635 0c4,0 8,3 8,8l0 0c0,4 -4,7 -8,7l-635 0c-4,0 -7,-3 -7,-7l0 0c0,-5 3,-8 7,-8zm0 -32l658 0c4,0 8,3 8,8l0 0c0,4 -4,7 -8,7l-658 0c-4,0 -7,-3 -7,-7l0 0c0,-5 3,-8 7,-8zm0 -32l648 0c4,0 7,4 7,8l0 0c0,4 -3,8 -7,8l-648 0c-4,0 -7,-4 -7,-8l0 0c0,-4 3,-8 7,-8zm0 -51l267 0c4,0 8,4 8,8l0 0c0,4 -4,8 -8,8l-267 0c-4,0 -7,-4 -7,-8l0 0c0,-4 3,-8 7,-8zm0 -31l508 0c4,0 8,3 8,7l0 0c0,5 -4,8 -8,8l-508 0c-4,0 -7,-3 -7,-8l0 0c0,-4 3,-7 7,-7zm0 -32l444 0c5,0 8,3 8,8l0 0c0,4 -3,7 -8,7l-444 0c-4,0 -7,-3 -7,-7l0 0c0,-5 3,-8 7,-8zm0 -51l618 0c4,0 8,4 8,8l0 0c0,4 -4,8 -8,8l-618 0c-4,0 -7,-4 -7,-8l0 0c0,-4 3,-8 7,-8zm0 -51l267 0c4,0 8,4 8,8l0 0c0,4 -4,8 -8,8l-267 0c-4,0 -7,-4 -7,-8l0 0c0,-4 3,-8 7,-8z"/>
   <rect id="screen-back" class="fil1" x="2560" y="315" width="774" height="425"/>
   <path id="loading" class="fil4" d="M3046 594l0 -4 4 0 0 4 -4 0zm-11 0l0 -4 4 0 0 4 -4 0zm-11 0l0 -4 4 0 0 4 -4 0zm-19 -12l0 -3 12 0 0 11c-1,1 -3,2 -5,3 -2,1 -4,1 -6,1 -3,0 -6,-1 -8,-2 -2,-1 -4,-3 -5,-5 -1,-2 -2,-5 -2,-7 0,-3 1,-6 2,-8 1,-3 3,-4 5,-5 2,-2 5,-2 7,-2 2,0 4,0 6,1 2,0 3,1 4,3 1,1 2,2 2,4l-3 1c-1,-1 -1,-3 -2,-3 0,-1 -2,-2 -3,-2 -1,-1 -2,-1 -4,-1 -1,0 -3,0 -4,1 -1,0 -2,1 -3,2 -1,1 -2,1 -2,2 -1,3 -1,4 -1,6 0,3 0,5 1,7 1,2 2,3 4,4 2,0 4,1 5,1 2,0 4,0 5,-1 2,-1 3,-1 4,-2l0 -6 -9 0 0 0zm-42 12l0 -29 4 0 15 23 0 -23 4 0 0 29 -4 0 -15 -23 0 23 -4 0zm-10 0l0 -29 4 0 0 29 -4 0zm-26 -4l6 0c2,0 4,0 5,0 1,0 2,-1 2,-2 1,0 2,-2 2,-3 1,-2 1,-4 1,-6 0,-3 0,-5 -1,-7 -1,-1 -2,-2 -4,-3 -1,0 -3,0 -5,0l-6 0 0 21 0 0zm-4 4l0 -29 10 0c2,0 4,0 5,1 2,0 3,1 5,2 1,1 2,2 3,4 1,3 1,5 1,7 0,2 0,4 -1,6 0,2 -1,3 -2,4 0,1 -1,2 -2,3 -1,0 -2,1 -4,1 -1,0 -3,1 -4,1l-11 0 0 0zm-21 -12l10 0 -3 -8c-1,-2 -2,-4 -2,-6 -1,2 -1,4 -2,5l-3 9 0 0zm-8 12l11 -29 4 0 11 29 -4 0 -3 -9 -12 0 -3 9 -4 0 0 0zm-25 -14c0,3 1,6 3,8 1,2 4,3 6,3 3,0 6,-1 8,-3 1,-2 2,-5 2,-9 0,-2 0,-4 -1,-6 -1,-1 -2,-3 -3,-4 -2,-1 -4,-1 -6,-1 -2,0 -4,1 -6,3 -2,1 -3,5 -3,9l0 0zm-4 0c0,-5 1,-9 4,-11 2,-3 6,-4 9,-4 3,0 6,0 8,2 2,1 3,3 4,5 1,2 2,5 2,7 0,3 -1,6 -2,8 -1,3 -2,4 -5,5 -2,1 -4,2 -7,2 -2,0 -4,-1 -7,-2 -2,-1 -3,-3 -5,-5 -1,-2 -1,-5 -1,-7l0 0zm-21 14l0 -29 3 0 0 25 15 0 0 4 -18 0z"/>
  </g>
  <rect class="fil5" x="1993" y="1884" width="1067.47" height="17.5957" rx="12" ry="12"/>
  <rect class="fil5" x="2576" y="2049" width="692.097" height="35.1913" rx="8" ry="23"/>
  <rect class="fil5" x="1811" y="2321" width="489.746" height="64.5179" rx="5" ry="43"/>
  <rect class="fil5" x="4585" y="2321" width="1035.21" height="64.5179" rx="11" ry="43"/>
  <rect class="fil5" x="5280" y="2049" width="692.097" height="35.1913" rx="8" ry="23"/>
  <rect class="fil5" x="6770" y="2049" width="1349" height="35.1913" rx="15" ry="23"/>
  <rect class="fil5" x="5535" y="1884" width="1733.17" height="17.5957" rx="19" ry="12"/>
  <ellipse class="fil6" cx="3772" cy="2213" rx="429" ry="100"/>
 </g>
</svg>
