<?xml version="1.0" encoding="UTF-8"?>
<!DOCTYPE svg PUBLIC "-//W3C//DTD SVG 1.1//EN" "http://www.w3.org/Graphics/SVG/1.1/DTD/svg11.dtd">
<!-- Creator: CorelDRAW X7 -->
<svg xmlns="http://www.w3.org/2000/svg" xml:space="preserve" width="9250px" height="2141px" version="1.1" style="shape-rendering:geometricPrecision; text-rendering:geometricPrecision; image-rendering:optimizeQuality; fill-rule:evenodd; clip-rule:evenodd"
viewBox="0 0 9250 2141"
 xmlns:xlink="http://www.w3.org/1999/xlink">
 <defs>
  <style type="text/css">
   <![CDATA[
    .fil1 {fill:none}
    .fil3 {fill:#DAE4EA}
    .fil0 {fill:#E2ECF5}
    .fil2 {fill:#F0F4F7}
    .fil4 {fill:white}
   ]]>
  </style>
 </defs>
 <g id="Слой_x0020_1">
  <metadata id="CorelCorpID_0Corel-Layer"/>
  <polygon class="fil0" points="9035,1628 0,1628 0,2141 9250,2141 9250,1628 "/>
  <line class="fil1" x1="4976" y1="1786" x2="4976" y2= "1273" />
  <g id="_1416819156320">
   <rect class="fil0" x="1976" y="936" width="1318" height="138"/>
   <rect class="fil0" x="3249" y="1008" width="45.7498" height="651.807"/>
   <rect class="fil0" x="1976" y="1035" width="598" height="652"/>
   <path class="fil2" d="M2540 1089l0 153 -536 0 0 -153 236 0c7,11 19,18 32,18 13,0 25,-7 31,-18l237 0 0 0z"/>
   <path class="fil2" d="M2540 1256l0 154 -536 0 0 -154 236 0c7,11 19,18 32,18 13,0 25,-7 31,-18l237 0 0 0z"/>
   <path class="fil2" d="M2540 1423l0 154 -536 0 0 -154 236 0c7,12 19,19 32,19 13,0 25,-7 31,-19l237 0 0 0z"/>
   <path class="fil0" d="M2977 936l-471 0c57,-22 141,-36 235,-36 95,0 179,14 236,36l0 0z"/>
   <polygon class="fil0" points="2693,818 2693,908 2789,908 2789,785 2693,785 "/>
   <rect class="fil2" x="2763" y="796" width="16.4815" height="93.2395"/>
   <rect class="fil2" x="2381" y="293" width="720" height="492"/>
   <rect class="fil0" x="2381" y="688" width="720.415" height="97.0592"/>
   <path class="fil0" d="M3159 937l-101 0c12,-29 30,-48 51,-48 20,0 38,19 50,48z"/>
   <rect class="fil0" x="2004" y="889" width="316.507" height="47.4058"/>
   <rect class="fil2" x="2149" y="889" width="171.522" height="47.4058"/>
   <rect class="fil0" x="1991" y="842" width="316.507" height="47.4058"/>
   <rect class="fil2" x="2093" y="843" width="214.612" height="47.4058"/>
   <rect class="fil0" x="2070" y="795" width="277.707" height="47.4058"/>
   <rect class="fil2" x="2230" y="795" width="117.823" height="47.4058"/>
   <polygon class="fil3" points="2693,792 2693,812 2789,812 2789,785 2693,785 "/>
   <path class="fil2" d="M2656 1334l99 0c1,0 2,1 2,3l0 0c0,1 -1,2 -2,2l-99 0c-2,0 -3,-1 -3,-2l0 0c0,-2 1,-3 3,-3l0 0z"/>
   <rect class="fil0" x="2574" y="1278" width="171" height="350"/>
   <rect class="fil3" x="2574" y="1278" width="33.9622" height="349.641"/>
   <circle class="fil2" cx="2717" cy="1455" r="9"/>
   <circle class="fil2" cx="2720" cy="1476" r="5"/>
   <path class="fil2" d="M2637 1304l100 0c1,0 2,1 2,2l0 1c0,1 -1,2 -2,2l-100 0c-1,0 -2,-1 -2,-2l0 -1c0,-1 1,-2 2,-2l0 0z"/>
   <path class="fil2" d="M2637 1314l100 0c1,0 2,1 2,3l0 0c0,1 -1,2 -2,2l-100 0c-1,0 -2,-1 -2,-2l0 0c0,-2 1,-3 2,-3l0 0z"/>
   <path class="fil2" d="M2637 1324l100 0c1,0 2,1 2,3l0 0c0,1 -1,2 -2,2l-100 0c-1,0 -2,-1 -2,-2l0 0c0,-2 1,-3 2,-3l0 0z"/>
   <path class="fil2" d="M2637 1336l100 0c1,0 2,1 2,2l0 0c0,1 -1,2 -2,2l-100 0c-1,0 -2,-1 -2,-2l0 0c0,-1 1,-2 2,-2l0 0z"/>
   <path class="fil2" d="M2637 1345l100 0c1,0 2,1 2,2l0 0c0,1 -1,2 -2,2l-100 0c-1,0 -2,-1 -2,-2l0 0c0,-1 1,-2 2,-2l0 0z"/>
   <path class="fil0" d="M3192 1237l0 391 -348 0 0 -391c0,0 0,0 0,0 0,-25 20,-45 45,-45l257 0c25,0 46,20 46,45 0,0 0,0 0,0l0 0z"/>
   <path class="fil2" d="M3192 1237l0 28 -348 0 0 -28c0,0 0,0 0,0 0,-25 20,-45 45,-45l257 0c25,0 46,20 46,45 0,0 0,0 0,0l0 0z"/>
  </g>
  <g id="_1416819163872">
   <rect class="fil0" x="5603" y="938" width="1013" height="697"/>
   <rect class="fil2" x="5640" y="1209" width="937" height="203"/>
   <rect class="fil2" x="5640" y="1432" width="937" height="203"/>
   <rect class="fil0" x="6615" width="672" height="1632"/>
   <rect class="fil4" x="6667" y="57" width="574" height="368"/>
   <rect class="fil4" x="6667" y="465" width="574" height="362"/>
   <rect class="fil4" x="6667" y="868" width="574" height="364"/>
   <rect class="fil4" x="6665" y="1267" width="574" height="368"/>
   <rect class="fil3" x="5640" y="985" width="937" height="203"/>
   <rect class="fil2" x="5640" y="993" width="930" height="195"/>
   <ellipse class="fil0" transform="matrix(0.835947 -0.54881 0.54881 0.835947 6092.22 1098.7)" rx="31" ry="27"/>
   <circle class="fil3" cx="6105" cy="1091" r="31"/>
   <path class="fil2" d="M6129 1093c0,0 0,-1 0,-2 0,-11 -9,-21 -20,-23 0,0 0,0 1,0 1,0 1,0 2,0 9,0 17,6 18,15 0,1 0,2 0,3 0,2 0,5 -1,7l0 0z"/>
   <rect class="fil3" x="5640" y="1209" width="937" height="203"/>
   <rect class="fil2" x="5640" y="1217" width="930" height="195"/>
   <ellipse class="fil0" transform="matrix(0.83595 -0.54881 0.54881 0.83595 6092.23 1322.38)" rx="31" ry="27"/>
   <circle class="fil3" cx="6105" cy="1314" r="31"/>
   <path class="fil2" d="M6129 1317c0,-1 0,-1 0,-2 0,-12 -9,-22 -20,-23 0,0 0,0 1,0 1,-1 1,-1 2,-1 9,0 17,7 18,16 0,1 0,2 0,3 0,2 0,5 -1,7l0 0z"/>
   <rect class="fil3" x="5640" y="1432" width="937" height="203"/>
   <rect class="fil2" x="5640" y="1441" width="930" height="195"/>
   <ellipse class="fil0" transform="matrix(0.83595 -0.54881 0.54881 0.83595 6092.23 1546.03)" rx="31" ry="27"/>
   <circle class="fil3" cx="6105" cy="1538" r="31"/>
   <path class="fil2" d="M6129 1541c0,-1 0,-2 0,-2 0,-12 -9,-22 -20,-24 0,0 0,0 1,0 1,0 1,0 2,0 9,0 17,7 18,16 0,0 0,1 0,2 0,3 0,5 -1,7l0 1z"/>
   <path class="fil0" d="M6881 936c0,1 0,1 0,2 0,0 0,0 0,0 0,0 0,0 0,1 0,5 -2,10 -5,14 -3,3 -8,6 -13,6l-97 0c-10,0 -18,-10 -18,-21 0,-1 0,-1 1,-2l-65 0 0 296 262 0 0 -296 -65 0 0 0zm-71 110c0,3 -2,6 -5,6l-40 0 0 17 13 0c2,0 4,2 4,4l0 2c0,3 -2,5 -4,5l-13 0 0 4c0,3 -2,6 -5,6 -3,0 -6,-3 -6,-6l0 -4 -17 0 0 6c0,2 -2,4 -4,4l-2 0c-3,0 -5,-2 -5,-4l0 -6 0 0c-3,0 -5,-2 -5,-5l0 -2c0,-2 2,-4 5,-4l0 0 0 -32c0,-2 2,-4 5,-4l2 0c2,0 4,2 4,4l0 3 17 0 0 -25c0,-3 3,-6 6,-6 3,0 5,3 5,6l0 25 40 0c3,0 5,3 5,6l0 0zm115 96c0,3 -3,6 -6,6l-39 0 0 25c0,0 0,0 0,0 0,3 -3,6 -6,6 -3,0 -5,-3 -5,-6 0,0 0,0 0,0l0 -25 -17 0 0 3c0,2 -2,4 -5,4l-2 0c-2,0 -4,-2 -4,-4l0 -26 -1 0c-2,0 -5,-2 -5,-5l0 -2c0,-2 3,-4 5,-4l1 0 0 -6c0,-2 2,-4 4,-4l2 0c3,0 5,2 5,4l0 6 17 0 0 -4c0,0 0,0 0,0 0,-3 2,-6 5,-6 3,0 6,3 6,6 0,0 0,0 0,0l0 4 12 0c3,0 5,2 5,4l0 2c0,3 -2,5 -5,5l-12 0 0 17 39 0c3,0 6,3 6,6l0 -6z"/>
   <path class="fil0" d="M6810 1046l0 0c0,3 -2,6 -5,6l-40 0 0 17 13 0c2,0 4,2 4,4l0 2c0,3 -2,5 -4,5l-13 0 0 4c0,3 -2,6 -5,6 -3,0 -6,-3 -6,-6l0 -4 -17 0 0 6c0,2 -2,4 -4,4l-2 0c-3,0 -5,-2 -5,-4l0 -6 0 0c-3,0 -5,-2 -5,-5l0 -2c0,-2 2,-4 5,-4l0 0 0 -32c0,-2 2,-4 5,-4l2 0c2,0 4,2 4,4l0 3 17 0 0 -25c0,-3 3,-6 6,-6 3,0 5,3 5,6l0 25 40 0c3,0 5,3 5,6z"/>
   <path class="fil0" d="M6930 1148l0 0c0,3 -2,6 -5,6l-40 0 0 25c0,0 0,0 0,0 0,3 -2,6 -5,6 -3,0 -6,-3 -6,-6 0,0 0,0 0,0l0 -25 -17 0 0 3c0,2 -2,4 -4,4l-2 0c-3,0 -5,-2 -5,-4l0 -32 0 0c-3,0 -5,-2 -5,-5l0 -2c0,-2 2,-4 5,-4l0 0 0 -6c0,-2 2,-4 5,-4l2 0c2,0 4,2 4,4l0 6 17 0 0 -4c0,0 0,0 0,0 0,-3 3,-6 6,-6 3,0 5,3 5,6 0,0 0,0 0,0l0 4 13 0c2,0 5,2 5,4l0 2c0,3 -3,5 -5,5l-13 0 0 17 40 0c3,0 5,3 5,6z"/>
   <path class="fil2" d="M6732 1040l73 0c3,0 5,3 5,6l0 0c0,3 -2,6 -5,6l-73 0c-3,0 -5,-3 -5,-6l0 0c0,-3 2,-6 5,-6l0 0z"/>
   <path class="fil2" d="M6782 1073l0 2c0,3 -2,5 -4,5l-52 0c-3,0 -5,-2 -5,-5l0 -2c0,-2 2,-4 5,-4l52 0c2,0 4,2 4,4l0 0z"/>
   <path class="fil2" d="M6731 1033l2 0c2,0 4,2 4,4l0 49c0,2 -2,4 -4,4l-2 0c-3,0 -5,-2 -5,-4l0 -49c0,-2 2,-4 5,-4z"/>
   <path class="fil2" d="M6765 1015l0 69c0,3 -2,6 -5,6 -3,0 -6,-3 -6,-6l0 -69c0,-3 3,-6 6,-6 3,0 5,3 5,6z"/>
   <path class="fil2" d="M6930 1148l0 0c0,3 -2,6 -5,6l-73 0c-3,0 -5,-3 -5,-6l0 0c0,-3 2,-6 5,-6l73 0c3,0 5,3 5,6z"/>
   <path class="fil2" d="M6903 1118l0 2c0,3 -3,5 -5,5l-52 0c-3,0 -5,-2 -5,-5l0 -2c0,-2 2,-4 5,-4l52 0c2,0 5,2 5,4z"/>
   <path class="fil2" d="M6857 1108l0 49c0,2 -2,4 -4,4l-2 0c-3,0 -5,-2 -5,-4l0 -49c0,-2 2,-4 5,-4l2 0c2,0 4,2 4,4l0 0z"/>
   <path class="fil2" d="M6885 1110l0 69c0,0 0,0 0,0 0,3 -2,6 -5,6 -3,0 -6,-3 -6,-6 0,0 0,0 0,0l0 -69c0,0 0,0 0,0 0,-3 3,-6 6,-6 3,0 5,3 5,6 0,0 0,0 0,0l0 0z"/>
   <path class="fil0" d="M6946 1339l0 296 -263 0 0 -296 65 0c0,1 0,2 0,3 0,0 0,0 0,0 0,11 8,20 18,20l97 0c5,0 9,-2 13,-6 3,-4 5,-9 5,-14 0,0 0,0 0,0 0,0 0,0 0,0 0,-1 0,-2 0,-3l65 0 0 0z"/>
   <path class="fil2" d="M6732 1444l72 0c3,0 6,2 6,5l0 0c0,4 -3,6 -6,6l-72 0c-3,0 -6,-2 -6,-6l0 0c0,-3 3,-5 6,-5l0 0z"/>
   <path class="fil2" d="M6726 1472l50 0c4,0 6,3 6,6l0 0c0,3 -2,6 -6,6l-50 0c-3,0 -5,-3 -5,-6l0 0c0,-3 2,-6 5,-6l0 0z"/>
   <path class="fil2" d="M6726 1489l0 -47c0,-3 2,-6 5,-6l0 0c3,0 6,3 6,6l0 47c0,2 -3,5 -6,5l0 0c-3,0 -5,-3 -5,-5l0 0z"/>
   <path class="fil2" d="M6754 1488l0 -69c0,-4 2,-6 6,-6l0 0c3,0 5,2 5,6l0 69c0,3 -2,5 -5,5l0 0c-4,0 -6,-2 -6,-5l0 0z"/>
   <path class="fil2" d="M6852 1546l72 0c3,0 6,2 6,6l0 0c0,3 -3,5 -6,5l-72 0c-3,0 -5,-2 -5,-5l0 0c0,-4 2,-6 5,-6l0 0z"/>
   <path class="fil2" d="M6846 1517l51 0c3,0 5,3 5,6l0 0c0,3 -2,6 -5,6l-51 0c-3,0 -5,-3 -5,-6l0 0c0,-3 2,-6 5,-6l0 0z"/>
   <path class="fil2" d="M6857 1513l0 47c0,2 -3,5 -6,5l0 0c-2,0 -5,-3 -5,-5l0 -47c0,-3 3,-6 5,-6l0 0c3,0 6,3 6,6l0 0z"/>
   <path class="fil2" d="M6885 1513l0 70c0,3 -2,5 -5,5l0 0c-3,0 -6,-2 -6,-5l0 -70c0,-3 3,-5 6,-5l0 0c3,0 5,2 5,5l0 0z"/>
   <path class="fil0" d="M7225 1339l0 296 -262 0 0 -296 64 0c0,1 0,2 0,3 0,0 0,0 0,0 0,11 8,20 18,20l97 0c5,0 10,-2 13,-6 3,-4 5,-9 5,-14 0,0 0,0 0,0 0,0 0,0 0,0 0,-1 0,-2 0,-3l65 0 0 0z"/>
   <path class="fil2" d="M7135 1463l0 -72c0,-3 3,-5 6,-5l0 0c3,0 6,2 6,5l0 72c0,3 -3,6 -6,6l0 0c-3,0 -6,-3 -6,-6l0 0z"/>
   <path class="fil2" d="M7164 1469l0 -50c0,-3 3,-6 6,-6l0 0c3,0 5,3 5,6l0 50c0,3 -2,6 -5,6l0 0c-3,0 -6,-3 -6,-6l0 0z"/>
   <path class="fil2" d="M7180 1469l-47 0c-3,0 -5,-2 -5,-5l0 0c0,-3 2,-5 5,-5l47 0c3,0 6,2 6,5l0 0c0,3 -3,5 -6,5l0 0z"/>
   <path class="fil2" d="M7179 1441l-69 0c-3,0 -5,-2 -5,-5l0 0c0,-3 2,-6 5,-6l69 0c4,0 6,3 6,6l0 0c0,3 -2,5 -6,5l0 0z"/>
   <path class="fil2" d="M7010 1543l72 0c3,0 6,3 6,6l0 0c0,3 -3,5 -6,5l-72 0c-3,0 -6,-2 -6,-5l0 0c0,-3 3,-6 6,-6l0 0z"/>
   <path class="fil2" d="M7004 1514l50 0c4,0 6,3 6,6l0 0c0,3 -2,6 -6,6l-50 0c-3,0 -5,-3 -5,-6l0 0c0,-3 2,-6 5,-6l0 0z"/>
   <path class="fil2" d="M7015 1510l0 47c0,3 -3,5 -6,5l0 0c-3,0 -5,-2 -5,-5l0 -47c0,-3 2,-6 5,-6l0 0c3,0 6,3 6,6l0 0z"/>
   <path class="fil2" d="M7043 1510l0 70c0,3 -2,5 -6,5l0 0c-3,0 -5,-2 -5,-5l0 -70c0,-3 2,-5 5,-5l0 0c4,0 6,2 6,5z"/>
   <rect class="fil0" x="6849" y="371" width="345.878" height="54.391"/>
   <rect class="fil2" x="7000" y="371" width="194.937" height="53.8772"/>
   <rect class="fil0" x="6868" y="318" width="311.488" height="53.8772"/>
   <rect class="fil2" x="6936" y="318" width="243.907" height="53.8772"/>
   <rect class="fil0" x="6910" y="264" width="315.615" height="53.8772"/>
   <rect class="fil2" x="7015" y="264" width="210.726" height="53.8772"/>
   <rect class="fil0" x="6954" y="209" width="286.908" height="53.8772"/>
   <rect class="fil2" x="7049" y="210" width="191.56" height="53.8772"/>
   <rect class="fil0" x="6667" y="135" width="60.6616" height="290.369"/>
   <rect class="fil0" x="6728" y="183" width="46.9711" height="242.098"/>
   <rect class="fil3" x="6667" y="135" width="11.2313" height="289.855"/>
   <rect class="fil3" x="6728" y="183" width="8.69665" height="241.671"/>
   <rect class="fil3" x="6606" y="946" width="9.36989" height="689.59"/>
   <rect class="fil0" x="6775" y="216" width="74.352" height="208.682"/>
   <rect class="fil3" x="6775" y="216" width="13.7661" height="208.313"/>
   <rect class="fil0" x="6667" y="538" width="60.6616" height="290.369"/>
   <rect class="fil0" x="6728" y="551" width="60.6616" height="277.125"/>
   <rect class="fil3" x="6667" y="538" width="11.2313" height="289.855"/>
   <rect class="fil3" x="6728" y="551" width="11.2313" height="276.634"/>
   <rect class="fil0" x="6789" y="597" width="60.6616" height="231.175"/>
   <rect class="fil3" x="6789" y="597" width="11.2313" height="230.767"/>
   <rect class="fil0" x="6849" y="551" width="60.6616" height="277.125"/>
   <rect class="fil0" x="6910" y="524" width="60.6616" height="304.276"/>
   <rect class="fil3" x="6849" y="551" width="11.2313" height="276.634"/>
   <rect class="fil3" x="6910" y="524" width="11.2313" height="303.739"/>
   <rect class="fil0" x="6970" y="597" width="60.6616" height="231.175"/>
   <rect class="fil3" x="6970" y="597" width="11.2313" height="230.767"/>
   <rect class="fil0" x="7031" y="538" width="60.6616" height="290.369"/>
   <rect class="fil0" x="7092" y="563" width="60.6616" height="265.521"/>
   <rect class="fil3" x="7031" y="538" width="11.2313" height="289.855"/>
   <rect class="fil3" x="7092" y="563" width="11.2313" height="265.052"/>
   <rect class="fil0" transform="matrix(0.992571 -0.121665 0.121665 0.992571 7149.16 540.842)" width="60.6616" height="290.369"/>
   <rect class="fil3" transform="matrix(0.992571 -0.121665 0.121665 0.992571 7149.16 540.843)" width="11.2313" height="289.855"/>
   <polygon class="fil0" points="7035,1230 6974,1238 6946,1005 6946,949 6999,942 "/>
   <polygon class="fil3" points="6985,1236 6974,1237 6946,1005 6946,949 6950,948 "/>
   <rect class="fil0" x="7031" y="1001" width="49.7728" height="231.175"/>
   <rect class="fil3" x="7031" y="1001" width="12.9511" height="230.767"/>
   <rect class="fil0" x="7081" y="955" width="90.1225" height="277.125"/>
   <rect class="fil0" x="7171" y="928" width="69.9476" height="304.276"/>
   <rect class="fil3" x="7081" y="955" width="16.6858" height="276.634"/>
   <rect class="fil3" x="7171" y="928" width="12.9511" height="303.739"/>
  </g>
 </g>
</svg>
