<?xml version="1.0" encoding="UTF-8"?>
<!DOCTYPE svg PUBLIC "-//W3C//DTD SVG 1.1//EN" "http://www.w3.org/Graphics/SVG/1.1/DTD/svg11.dtd">
<!-- Creator: CorelDRAW 2018 (64-Bit) -->
<svg xmlns="http://www.w3.org/2000/svg" xml:space="preserve" width="210mm" height="297mm" version="1.1" style="shape-rendering:geometricPrecision; text-rendering:geometricPrecision; image-rendering:optimizeQuality; fill-rule:evenodd; clip-rule:evenodd"
viewBox="0 0 21000 29700"
 xmlns:xlink="http://www.w3.org/1999/xlink">
 <defs>
  <style type="text/css">
   <![CDATA[
    .fil0 {fill:#2A2D32}
   ]]>
  </style>
 </defs>
 <g id="Слой_x0020_1">
  <metadata id="CorelCorpID_0Corel-Layer"/>
  <g id="_2334883600">
   <path class="fil0" d="M10384.72 5475.53c423.71,-175.74 943.08,-60.52 1259.41,273.38 1812,1808.09 3622.03,3620.09 5432.09,5430.12 259.7,255.8 511.57,517.44 773.21,769.31 173.77,130.82 296.79,310.46 435.41,474.49 144.49,177.67 288.98,351.47 431.51,527.21 68.33,87.87 150.36,165.97 203.08,265.54 187.44,355.38 378.79,710.75 570.16,1066.1 99.58,177.67 134.72,380.75 199.15,572.09 85.9,292.89 179.64,581.87 263.6,876.72 52.73,345.61 66.4,695.12 105.45,1042.69 9.77,160.1 50.75,320.23 27.34,480.33 -23.44,187.44 -39.05,376.85 -52.72,564.29 -23.44,203.08 -46.85,406.13 -60.53,609.21 -7.8,154.26 -76.16,296.79 -113.24,445.18 -82,269.44 -165.97,536.95 -244.07,806.43 -29.28,99.57 -58.59,199.14 -109.34,290.95 -165.97,308.49 -330,617.01 -495.97,925.5 -54.68,101.54 -101.54,206.99 -175.73,294.85 -179.64,216.73 -357.31,437.38 -536.95,654.13 -123.02,140.59 -226.5,300.69 -370.99,425.67 -222.59,181.61 -445.18,363.18 -665.83,546.72 -158.16,123.02 -300.69,269.45 -482.29,359.28 -374.89,193.31 -740.04,400.3 -1114.92,589.67 -435.41,138.63 -870.85,265.54 -1308.23,398.33 -328.03,48.82 -661.93,64.43 -991.9,105.44 -181.6,17.58 -365.14,50.76 -550.62,31.25 -322.16,-35.15 -646.29,-64.43 -970.42,-97.64 -126.92,-17.57 -255.81,-13.67 -378.79,-48.82 -341.71,-103.48 -681.44,-206.98 -1021.21,-310.46 -111.31,-33.18 -226.49,-60.52 -330,-115.21 -298.75,-162.07 -599.44,-318.26 -896.23,-480.33 -130.82,-70.29 -267.51,-132.78 -378.79,-230.39 -320.22,-271.41 -654.12,-529.15 -972.39,-802.52 -253.83,-292.89 -492.06,-599.45 -740.03,-896.23 -66.39,-82 -140.59,-158.17 -191.34,-251.87 -115.21,-212.82 -226.49,-427.61 -341.71,-640.46 -97.63,-195.24 -216.72,-382.72 -302.65,-585.77 -115.21,-374.88 -226.49,-753.7 -343.64,-1130.55 -27.34,-85.9 -54.69,-171.84 -62.49,-259.71 -29.28,-316.32 -62.49,-628.72 -85.9,-945.04 -3.91,-39.05 -11.71,-78.1 -29.28,-115.22 -966.53,952.86 -1917.44,1919.38 -2882,2874.2 -177.67,175.73 -402.23,310.45 -652.16,347.57 -402.23,74.19 -833.74,-97.64 -1083.67,-419.8 -138.62,-173.78 -222.59,-388.56 -236.26,-611.15 -33.18,-339.74 99.57,-685.34 345.6,-919.67 2067.77,-2069.73 4135.57,-4135.57 6203.34,-6203.33 58.59,-62.49 128.88,-117.15 171.83,-191.35 -1245.73,-3.9 -2491.5,0 -3737.24,-1.96 -306.55,0 -613.11,-124.96 -827.9,-345.61 -261.64,-265.54 -380.75,-661.93 -300.68,-1027.05 52.72,-265.54 205.01,-509.64 421.76,-673.64 205.02,-162.06 468.63,-240.16 728.33,-242.13 2430.95,0 4859.96,0 7290.94,0 468.62,-3.9 937.24,7.81 1405.86,-5.86 -41.01,-68.33 -103.47,-119.12 -158.16,-175.74 -767.38,-765.41 -1534.72,-1534.72 -2302.1,-2300.13 -142.52,-140.59 -287.01,-285.08 -370.98,-470.56 -105.44,-206.98 -128.88,-449.08 -97.64,-675.6 58.59,-386.62 335.84,-730.26 699.02,-872.82l-0.1 -0.03zm2307.97 6820.38c-136.69,11.71 -275.32,27.34 -410.04,44.92 -126.91,15.6 -259.7,5.87 -382.72,46.85 -164.03,54.69 -333.9,103.48 -499.86,154.26 -156.2,48.82 -320.23,82 -462.76,167.94 -244.06,138.62 -501.8,257.73 -740.03,406.13 -236.26,189.41 -472.52,382.72 -704.88,579.9 -179.64,201.11 -343.64,417.86 -519.38,622.88 -134.72,150.36 -206.98,339.74 -304.59,513.54 -80.06,152.3 -171.83,300.69 -242.13,458.85 -78.1,238.23 -144.49,478.39 -218.69,718.56 -105.44,294.85 -83.96,615.05 -128.88,921.6 -37.12,210.89 5.87,421.77 19.54,632.63 29.28,218.68 21.47,443.24 91.77,654.12 72.23,240.17 146.46,478.4 218.69,718.56 33.18,113.25 99.57,210.88 152.29,314.36 83.97,164.03 177.67,324.13 259.71,490.1 60.52,124.95 160.09,226.49 246.03,335.83 123.01,150.36 247.97,298.76 369.05,449.08 42.95,50.76 91.77,95.68 142.52,136.69 148.39,117.15 290.95,240.17 437.38,357.31 87.87,70.3 167.93,150.36 265.54,201.12 230.39,121.05 456.91,246.03 685.34,367.08 80.07,42.95 164.03,74.2 251.87,97.64 162.07,46.85 322.16,99.57 484.23,146.46 115.21,33.18 226.49,82 345.61,91.77 249.93,23.44 499.86,50.75 747.83,74.19 179.64,17.58 361.21,-11.7 538.92,-29.28 187.44,-23.44 376.85,-25.37 564.29,-62.49 162.07,-41.01 322.16,-99.57 484.23,-144.49 173.77,-56.62 355.38,-93.74 517.44,-181.6 226.49,-124.96 456.92,-244.07 685.34,-367.09 85.91,-50.75 158.17,-121.04 236.27,-183.54 115.21,-93.73 232.36,-187.44 347.57,-285.08 87.87,-74.19 187.44,-138.62 257.74,-230.39 107.37,-140.59 224.55,-273.38 335.83,-412 89.81,-113.25 193.31,-218.69 259.71,-347.57 80.06,-152.3 160.09,-306.56 244.06,-456.92 62.49,-126.92 142.53,-244.06 183.54,-378.79 72.23,-246.03 146.46,-490.09 222.59,-736.12 37.12,-117.15 39.05,-242.13 52.72,-365.15 23.45,-183.54 37.12,-365.15 56.63,-548.69 23.44,-191.34 -19.54,-382.72 -31.25,-572.09 -27.34,-218.69 -21.48,-443.25 -95.67,-652.17 -70.3,-228.46 -138.62,-454.95 -206.98,-683.41 -39.05,-128.88 -115.22,-242.13 -173.78,-363.18 -83.96,-150.36 -164.03,-304.59 -244.06,-454.95 -83.97,-165.96 -220.66,-294.85 -331.93,-439.34 -142.53,-162.06 -259.71,-347.57 -427.61,-484.23 -214.79,-173.77 -425.67,-355.37 -644.36,-523.28 -238.23,-138.62 -486.2,-259.7 -728.33,-394.42 -142.52,-83.97 -306.55,-115.21 -462.75,-165.97 -156.2,-48.82 -312.42,-89.8 -466.65,-142.52 -144.5,-50.76 -298.76,-41.02 -447.15,-62.49 -275.31,-21.48 -552.59,-80.07 -829.84,-35.15l0.04 0.03z"/>
   <path class="fil0" d="M12805.93 14223.09c179.64,-25.38 359.28,21.47 538.92,29.28 203.08,9.77 388.56,95.67 581.87,144.49 183.54,48.82 337.8,162.06 505.7,244.06 175.74,80.07 304.59,224.56 456.92,337.81 148.39,109.34 246.03,269.44 367.08,404.19 140.59,152.3 216.72,347.57 316.33,525.25 89.8,154.26 119.11,331.93 177.67,499.86 70.29,193.31 70.29,400.3 95.67,603.35 25.38,191.34 -25.38,382.72 -33.18,574.06 -5.87,142.53 -60.53,277.28 -99.58,413.93 -39.04,121.05 -64.42,247.97 -130.81,357.32 -105.45,181.6 -181.61,384.65 -324.14,540.85 -123.01,134.72 -218.68,296.78 -369.04,404.19 -152.3,113.25 -283.12,257.74 -454.95,339.74 -179.64,87.87 -345.61,206.98 -540.85,253.84 -175.74,46.85 -345.61,124.95 -529.15,132.78 -193.31,7.81 -388.56,60.53 -581.87,29.28 -191.34,-29.28 -388.56,-19.54 -572.1,-83.96 -183.54,-64.43 -380.75,-101.55 -548.68,-201.12 -152.3,-91.77 -320.23,-152.29 -454.95,-269.44 -82,-66.4 -162.07,-134.72 -244.07,-199.15 -152.29,-115.21 -253.83,-277.28 -376.85,-417.87 -134.72,-150.36 -206.98,-341.7 -308.49,-513.54 -68.33,-115.21 -99.58,-247.96 -136.69,-374.88 -37.11,-130.82 -93.74,-253.84 -101.54,-390.53 -11.71,-185.5 -50.76,-372.94 -31.25,-560.39 11.71,-124.95 23.45,-249.93 33.18,-374.88 9.77,-121.05 52.73,-238.23 87.87,-353.41 41.02,-134.72 72.23,-273.38 142.53,-394.43 103.47,-183.54 181.6,-382.72 324.13,-540.85 124.95,-138.62 226.49,-302.65 380.75,-413.93 148.4,-109.35 273.38,-249.94 443.25,-328.04 162.06,-80.06 312.42,-187.44 488.13,-238.22 101.54,-31.25 203.08,-60.53 302.65,-91.77 191.35,-68.33 396.36,-56.63 595.54,-87.87z"/>
  </g>
 </g>
</svg>
