<?xml version="1.0" encoding="UTF-8"?>
<!DOCTYPE svg PUBLIC "-//W3C//DTD SVG 1.1//EN" "http://www.w3.org/Graphics/SVG/1.1/DTD/svg11.dtd">
<!-- Creator: CorelDRAW X7 -->
<svg xmlns="http://www.w3.org/2000/svg" xml:space="preserve" width="233px" height="229px" version="1.1" style="shape-rendering:geometricPrecision; text-rendering:geometricPrecision; image-rendering:optimizeQuality; fill-rule:evenodd; clip-rule:evenodd"
viewBox="0 0 9826 9686"
 xmlns:xlink="http://www.w3.org/1999/xlink">
 <defs>
  <style type="text/css">
   <![CDATA[
    .fil0 {fill:white}
   ]]>
  </style>
 </defs>
 <g id="Слой_x0020_1">
  <metadata id="CorelCorpID_0Corel-Layer"/>
  <g id="_2334883600">
   <path class="fil0" d="M4854 42c217,-90 483,-31 645,140 928,926 1855,1854 2782,2781 133,131 262,265 396,394 89,67 152,159 223,243 74,91 148,180 221,270 35,45 77,85 104,136 96,182 194,364 292,546 51,91 69,195 102,293 44,150 92,298 135,449 27,177 34,356 54,534 5,82 26,164 14,246 -12,96 -20,193 -27,289 -12,104 -24,208 -31,312 -4,79 -39,152 -58,228 -42,138 -85,275 -125,413 -15,51 -30,102 -56,149 -85,158 -169,316 -254,474 -28,52 -52,106 -90,151 -92,111 -183,224 -275,335 -63,72 -116,154 -190,218 -114,93 -228,186 -341,280 -81,63 -154,138 -247,184 -192,99 -379,205 -571,302 -223,71 -446,136 -670,204 -168,25 -339,33 -508,54 -93,9 -187,26 -282,16 -165,-18 -331,-33 -497,-50 -65,-9 -131,-7 -194,-25 -175,-53 -349,-106 -523,-159 -57,-17 -116,-31 -169,-59 -153,-83 -307,-163 -459,-246 -67,-36 -137,-68 -194,-118 -164,-139 -335,-271 -498,-411 -130,-150 -252,-307 -379,-459 -34,-42 -72,-81 -98,-129 -59,-109 -116,-219 -175,-328 -50,-100 -111,-196 -155,-300 -59,-192 -116,-386 -176,-579 -14,-44 -28,-88 -32,-133 -15,-162 -32,-322 -44,-484 -2,-20 -6,-40 -15,-59 -495,488 -982,983 -1476,1472 -91,90 -206,159 -334,178 -206,38 -427,-50 -555,-215 -71,-89 -114,-199 -121,-313 -17,-174 51,-351 177,-471 1059,-1060 2118,-2118 3177,-3177 30,-32 66,-60 88,-98 -638,-2 -1276,0 -1914,-1 -157,0 -314,-64 -424,-177 -134,-136 -195,-339 -154,-526 27,-136 105,-261 216,-345 105,-83 240,-123 373,-124 1245,0 2489,0 3734,0 240,-2 480,4 720,-3 -21,-35 -53,-61 -81,-90 -393,-392 -786,-786 -1179,-1178 -73,-72 -147,-146 -190,-241 -54,-106 -66,-230 -50,-346 30,-198 172,-374 358,-447zm1182 3493c-70,6 -141,14 -210,23 -65,8 -133,3 -196,24 -84,28 -171,53 -256,79 -80,25 -164,42 -237,86 -125,71 -257,132 -379,208 -121,97 -242,196 -361,297 -92,103 -176,214 -266,319 -69,77 -106,174 -156,263 -41,78 -88,154 -124,235 -40,122 -74,245 -112,368 -54,151 -43,315 -66,472 -19,108 3,216 10,324 15,112 11,227 47,335 37,123 75,245 112,368 17,58 51,108 78,161 43,84 91,166 133,251 31,64 82,116 126,172 63,77 127,153 189,230 22,26 47,49 73,70 76,60 149,123 224,183 45,36 86,77 136,103 118,62 234,126 351,188 41,22 84,38 129,50 83,24 165,51 248,75 59,17 116,42 177,47 128,12 256,26 383,38 92,9 185,-6 276,-15 96,-12 193,-13 289,-32 83,-21 165,-51 248,-74 89,-29 182,-48 265,-93 116,-64 234,-125 351,-188 44,-26 81,-62 121,-94 59,-48 119,-96 178,-146 45,-38 96,-71 132,-118 55,-72 115,-140 172,-211 46,-58 99,-112 133,-178 41,-78 82,-157 125,-234 32,-65 73,-125 94,-194 37,-126 75,-251 114,-377 19,-60 20,-124 27,-187 12,-94 19,-187 29,-281 12,-98 -10,-196 -16,-293 -14,-112 -11,-227 -49,-334 -36,-117 -71,-233 -106,-350 -20,-66 -59,-124 -89,-186 -43,-77 -84,-156 -125,-233 -43,-85 -113,-151 -170,-225 -73,-83 -133,-178 -219,-248 -110,-89 -218,-182 -330,-268 -122,-71 -249,-133 -373,-202 -73,-43 -157,-59 -237,-85 -80,-25 -160,-46 -239,-73 -74,-26 -153,-21 -229,-32 -141,-11 -283,-41 -425,-18z"/>
   <path class="fil0" d="M6094 4522c92,-13 184,11 276,15 104,5 199,49 298,74 94,25 173,83 259,125 90,41 156,115 234,173 76,56 126,138 188,207 72,78 111,178 162,269 46,79 61,170 91,256 36,99 36,205 49,309 13,98 -13,196 -17,294 -3,73 -31,142 -51,212 -20,62 -33,127 -67,183 -54,93 -93,197 -166,277 -63,69 -112,152 -189,207 -78,58 -145,132 -233,174 -92,45 -177,106 -277,130 -90,24 -177,64 -271,68 -99,4 -199,31 -298,15 -98,-15 -199,-10 -293,-43 -94,-33 -195,-52 -281,-103 -78,-47 -164,-78 -233,-138 -42,-34 -83,-69 -125,-102 -78,-59 -130,-142 -193,-214 -69,-77 -106,-175 -158,-263 -35,-59 -51,-127 -70,-192 -19,-67 -48,-130 -52,-200 -6,-95 -26,-191 -16,-287 6,-64 12,-128 17,-192 5,-62 27,-122 45,-181 21,-69 37,-140 73,-202 53,-94 93,-196 166,-277 64,-71 116,-155 195,-212 76,-56 140,-128 227,-168 83,-41 160,-96 250,-122 52,-16 104,-31 155,-47 98,-35 203,-29 305,-45z"/>
  </g>
 </g>
</svg>
