<?xml version="1.0" encoding="UTF-8"?>
<!DOCTYPE svg PUBLIC "-//W3C//DTD SVG 1.1//EN" "http://www.w3.org/Graphics/SVG/1.1/DTD/svg11.dtd">
<!-- Creator: CorelDRAW X7 -->
<svg xmlns="http://www.w3.org/2000/svg" xml:space="preserve" width="2091px" height="2076px" version="1.1" style="shape-rendering:geometricPrecision; text-rendering:geometricPrecision; image-rendering:optimizeQuality; fill-rule:evenodd; clip-rule:evenodd"
viewBox="0 0 2116 2101"
 xmlns:xlink="http://www.w3.org/1999/xlink">
 <defs>
  <style type="text/css">
   <![CDATA[
    .fil0 {fill:#FEFEFE}
   ]]>
  </style>
 </defs>
 <g id="Слой_x0020_1">
  <metadata id="CorelCorpID_0Corel-Layer"/>
  <g id="_1777832822048">
   <path class="fil0" d="M957 1051l-937 937c-26,26 -26,68 0,94 13,13 30,19 47,19 17,0 34,-6 47,-19l944 -944 944 944c13,13 30,19 47,19 17,0 34,-6 47,-19 26,-26 26,-68 0,-94l-937 -937 937 -937c26,-26 26,-68 0,-95 -26,-25 -68,-25 -94,0l-944 945 -944 -944c-26,-26 -68,-26 -94,0 -27,26 -27,68 0,94l937 937z"/>
  </g>
 </g>
</svg>
