<?xml version="1.0" encoding="UTF-8"?>
<!DOCTYPE svg PUBLIC "-//W3C//DTD SVG 1.1//EN" "http://www.w3.org/Graphics/SVG/1.1/DTD/svg11.dtd">
<!-- Creator: CorelDRAW 2018 (64-Bit) -->
<svg xmlns="http://www.w3.org/2000/svg" xml:space="preserve" width="210mm" height="297mm" version="1.1" style="shape-rendering:geometricPrecision; text-rendering:geometricPrecision; image-rendering:optimizeQuality; fill-rule:evenodd; clip-rule:evenodd"
viewBox="0 0 21000 29700"
 xmlns:xlink="http://www.w3.org/1999/xlink">
 <defs>
  <style type="text/css">
   <![CDATA[
    .fil0 {fill:#E35A24}
   ]]>
  </style>
 </defs>
 <g id="Слой_x0020_1">
  <metadata id="CorelCorpID_0Corel-Layer"/>
  <g id="_1314530704">
   <path class="fil0" d="M15180.25 4918.24c407.03,130.41 750.85,403.08 1078.87,671.84 553.27,478.17 1074.92,1007.72 1426.63,1655.82 509.8,873.36 790.37,1885.07 762.73,2896.74 -15.8,1102.59 -264.77,2189.35 -604.64,3232.65 -367.54,1102.59 -845.72,2161.68 -1406.89,3177.33 -960.3,1691.4 -2051.05,3307.74 -3323.54,4777.84 -347.76,395.19 -671.83,825.94 -1098.64,1138.13 154.14,-288.49 383.33,-525.59 580.91,-782.46 628.36,-810.15 1213.22,-1655.83 1778.34,-2513.4 497.96,-766.67 984.03,-1549.14 1395.01,-2367.19 486.07,-948.45 960.3,-1908.75 1323.89,-2912.56 497.96,-1351.53 770.63,-2793.99 739,-4236.42 -55.32,-1426.63 -675.79,-2809.79 -1640.03,-3857.06 -304.3,-328.03 -691.58,-569.07 -1011.67,-881.26l0.03 0z"/>
   <path class="fil0" d="M5118.75 5281.83c229.2,-158.08 474.22,-304.29 742.95,-383.33 -197.61,162.03 -407.03,312.19 -600.7,482.12 -735.05,644.16 -1331.79,1458.26 -1675.6,2379.03 -513.75,1327.85 -501.91,2801.9 -229.2,4185.06 375.44,1881.11 1173.7,3643.66 2102.41,5311.33 845.72,1509.63 1821.82,2940.21 2861.16,4323.36 241.08,328.03 517.7,628.37 735.05,976.14 -656,-561.17 -1205.33,-1236.96 -1742.77,-1904.81 -893.14,-1134.18 -1711.18,-2327.67 -2442.28,-3572.52 -897.09,-1557.04 -1679.56,-3204.97 -2082.64,-4963.57 -272.67,-1197.43 -351.71,-2469.92 -11.84,-3663.41 181.78,-640.21 493.97,-1236.95 904.98,-1762.54 414.96,-529.55 885.24,-1019.61 1438.48,-1406.89l0 0.03z"/>
   <path class="fil0" d="M9892.61 4175.29c320.09,-169.93 723.2,-181.78 1051.19,-23.73 442.6,209.46 762.72,608.59 1011.67,1019.61 640.21,1078.86 889.19,2335.56 1015.65,3568.56 209.45,2458.08 -86.94,4920.11 -509.8,7338.66 -339.87,1900.86 -814.1,3770.13 -1323.9,5631.46 -118.56,403.08 -213.4,818.05 -399.13,1197.43 -201.56,-11.84 -407.03,-15.79 -608.59,-23.72 -146.2,-355.66 -229.19,-735.05 -331.97,-1106.55 -727.15,-2537.12 -1335.74,-5117.71 -1683.5,-7737.82 -201.56,-1580.77 -320.09,-3177.33 -217.35,-4769.95 98.78,-1414.78 351.71,-2861.16 1051.19,-4109.96 233.14,-395.18 529.54,-770.62 944.5,-984.02l0.04 0.03z"/>
   <path class="fil0" d="M11734.2 3874.95c703.43,27.67 1351.54,347.76 1968.06,656 1335.74,671.84 2331.61,1908.76 2873.04,3291.92 478.17,1189.53 549.32,2505.49 347.76,3766.14 -304.29,1964.11 -1055.17,3825.44 -1924.58,5599.84 -853.62,1711.18 -1841.6,3367.01 -3082.5,4829.21 -201.56,256.87 -450.5,466.33 -691.58,683.68 130.41,-300.34 312.19,-576.96 462.38,-873.36 1367.37,-2608.27 2548.97,-5346.91 3177.33,-8235.74 300.35,-1430.58 474.23,-2904.63 328.03,-4366.83 -114.62,-1134.19 -450.5,-2264.46 -1082.82,-3220.81 -584.89,-901.03 -1406.89,-1651.88 -2375.08,-2130.05l-0.04 0z"/>
   <path class="fil0" d="M8414.61 4033.03c264.77,-90.89 541.43,-154.13 825.94,-158.08 -403.08,150.15 -746.9,422.86 -1074.92,699.47 -292.44,252.93 -576.96,513.75 -837.78,798.3 -916.83,1090.72 -1398.96,2493.65 -1537.3,3896.59 -177.83,1813.92 106.68,3643.67 573.01,5394.33 450.5,1671.66 1070.97,3287.97 1786.24,4860.84 486.08,1086.76 1070.97,2118.21 1596.57,3181.28 -351.72,-256.87 -612.54,-608.58 -885.24,-936.61 -735.06,-897.08 -1406.89,-1845.54 -1972.01,-2857.21 -403.08,-731.1 -782.47,-1477.99 -1146.06,-2228.87 -778.52,-1632.14 -1458.26,-3343.32 -1699.3,-5145.39 -189.68,-1414.79 -55.32,-2900.68 573.01,-4196.9 474.23,-1011.67 1217.18,-1904.81 2153.79,-2521.33 517.69,-320.09 1067.02,-588.84 1643.98,-786.42l0.07 0z"/>
   <path class="fil0" d="M8825.62 23843.89c1086.77,0 2173.53,0 3260.33,3.95 -150.15,659.96 -300.35,1319.95 -450.5,1975.95 -794.31,0 -1588.67,3.95 -2386.93,0 -134.36,-663.9 -284.55,-1319.94 -422.86,-1979.9l-0.04 0z"/>
  </g>
 </g>
</svg>
