<?xml version="1.0" encoding="UTF-8"?>
<!DOCTYPE svg PUBLIC "-//W3C//DTD SVG 1.1//EN" "http://www.w3.org/Graphics/SVG/1.1/DTD/svg11.dtd">
<!-- Creator: CorelDRAW X7 -->
<svg xmlns="http://www.w3.org/2000/svg" xml:space="preserve" width="244px" height="244px" version="1.1" style="shape-rendering:geometricPrecision; text-rendering:geometricPrecision; image-rendering:optimizeQuality; fill-rule:evenodd; clip-rule:evenodd"
viewBox="0 0 88 88"
 xmlns:xlink="http://www.w3.org/1999/xlink">
 <defs>
  <style type="text/css">
   <![CDATA[
    .fil0 {fill:black}
   ]]>
  </style>
 </defs>
 <g id="Слой_x0020_1">
  <metadata id="CorelCorpID_0Corel-Layer"/>
  <path class="fil0" d="M79 0l0 0c0,1 1,1 1,1 3,3 5,5 8,8 -7,6 -13,13 -19,19 -3,3 -7,6 -10,9 -3,-3 -6,-6 -8,-9 0,0 1,-1 2,-2 6,-6 11,-11 17,-17 3,-3 6,-6 9,-9zm-75 13c2,-1 3,-2 5,-2 1,0 1,0 2,0 13,0 26,0 39,0 1,0 1,0 1,1 1,0 1,1 0,1 0,1 -1,1 -1,1 -13,0 -27,0 -40,0 -2,0 -3,0 -4,1 -2,1 -3,3 -3,5 0,0 0,1 0,2 0,18 0,37 0,55 0,1 0,1 0,2 0,1 1,2 1,3 1,1 3,2 5,3 1,0 1,0 2,0 19,0 37,0 56,0 2,0 3,-1 4,-2 2,-1 3,-3 3,-5 0,-1 0,-1 0,-2 0,-13 0,-25 0,-38 0,-1 0,-1 1,-1 0,-1 1,-1 1,0 1,0 1,0 1,1 0,13 0,26 0,39 0,0 0,1 0,2 0,2 -1,4 -2,5 -2,2 -3,3 -5,3 -1,1 -2,1 -3,1 -19,0 -38,0 -57,0 -1,0 -3,0 -4,-1 -2,-1 -3,-2 -4,-3 -1,-2 -2,-4 -2,-6l0 -57c0,-1 0,-2 1,-3 0,-2 1,-4 3,-5zm45 19c0,0 0,0 0,-1 3,3 5,5 8,8 -3,1 -6,1 -8,2 -1,1 -2,1 -4,2 1,-4 3,-7 4,-11z"/>
 </g>
</svg>
