<?xml version="1.0" encoding="UTF-8"?>
<!DOCTYPE svg PUBLIC "-//W3C//DTD SVG 1.1//EN" "http://www.w3.org/Graphics/SVG/1.1/DTD/svg11.dtd">
<!-- Creator: CorelDRAW 2018 (64-Bit) -->
<svg xmlns="http://www.w3.org/2000/svg" xml:space="preserve" width="210mm" height="297mm" version="1.1" style="shape-rendering:geometricPrecision; text-rendering:geometricPrecision; image-rendering:optimizeQuality; fill-rule:evenodd; clip-rule:evenodd"
viewBox="0 0 21000 29700"
 xmlns:xlink="http://www.w3.org/1999/xlink">
 <defs>
  <style type="text/css">
   <![CDATA[
    .fil0 {fill:#E35A24;fill-rule:nonzero}
   ]]>
  </style>
 </defs>
 <g id="Слой_x0020_1">
  <metadata id="CorelCorpID_0Corel-Layer"/>
  <path class="fil0" d="M5459.55 2562.14c889.1,1.93 1778.18,-0.97 2667.26,1.45 -5.31,310.04 4.35,620.08 -3.38,930.14 -51.19,59.4 -143.91,17.86 -212,30.89 -444.79,-2.88 -889.57,0.98 -1334.84,-2.41 2.41,457.82 -3.86,915.66 2.41,1373l28.98 28.48c505.64,4.84 1012.23,-0.96 1518.35,2.41 -2.41,323.09 0.97,645.7 -1.93,968.29 -887.65,1.45 -1774.79,-1.93 -2661.94,1.94 -4.84,-1111.72 0,-2222.96 -2.91,-3334.19zm3236.65 0.48c1017.54,1.45 2035.08,-0.97 3053.12,0.97 -6.29,306.66 6.76,613.32 -7.73,919.5 -472.79,-4.82 -945.11,-3.86 -1417.9,-0.48 477.13,548.62 995.82,1064.39 1466.19,1616.39 5.31,264.65 -0.48,529.29 0.49,794.43 -1020.94,1.93 -2041.86,0.48 -3062.78,0.48l-27.53 -30.42c-9.66,-298.94 1.45,-597.87 -4.84,-896.81 482.46,-2.42 964.91,1.93 1446.89,-2.42 -215.88,-341.44 -539.45,-602.22 -798.3,-911.3 -201.87,-247.26 -450.58,-454.92 -642.78,-708.46 -11.6,-260.31 0.48,-521.57 -4.83,-781.88zm3632.63 1.45c1017.56,-2.9 2035.1,0 3052.65,-1.45 -4.34,296.53 4.83,594.02 -3.39,890.53l-30.91 27.05c-456.36,3.86 -912.75,-5.31 -1368.63,4.34 188.83,255 427.88,467.96 636.5,706.54 244.38,284.45 516.76,543.78 759.66,830.16 38.16,49.27 85.97,104.8 79.69,171.93 -5.79,234.23 19.81,471.82 -26.56,703.64 -1032.52,-5.8 -2065.04,0 -3097.08,-3.38 -2.4,-308.11 1.46,-616.23 -2.88,-924.82 491.63,-7.74 982.77,3.86 1474.4,-6.29 -151.16,-232.28 -370.89,-407.11 -547.17,-619.6 -301.83,-340.47 -624.44,-662.58 -919.02,-1009.34 -16.91,-255.47 0,-512.88 -7.26,-769.31zm-10581.59 4822.6c5804.88,-8.21 11609.28,-0.49 17413.69,-3.86 7.25,323.57 -83.06,632.64 -98.52,953.31 -500.31,5583.71 -992.42,11168.86 -1499.03,16750.64 -10.14,73.89 -102.38,69.53 -155.5,92.24 -1849.17,504.68 -3693.98,1024.3 -5542.18,1532.34 -432.23,132.34 -875.56,226.99 -1303.92,371.86 -167.1,71.98 -331.3,-41.52 -492.11,-77.26 -2224.42,-616.71 -4448.81,-1235.82 -6673.21,-1852.54 -40.58,-16.42 -67.61,-45.87 -80.66,-87.88 -49.25,-843.22 -150.68,-1682.08 -213.46,-2525.76 -454.92,-5050.07 -897.29,-10102.54 -1355.1,-15153.09zm3260.28 3476.65c59.4,724.89 121.23,1449.77 192.7,2173.7 1643.92,-0.49 3287.35,0 4931.25,-0.49 1126.21,26.08 2253.87,-0.48 3380.08,15.46 -66.65,730.2 -122.19,1461.37 -191.24,2191.57 -1820.18,6.28 -3640.86,7.24 -5461.04,13.03 54.09,725.86 135.71,1449.77 197.04,2175.63 867.83,17.39 1736.14,-9.66 2603.5,15.46 821,1.93 1641.99,-4.83 2462.98,3.38 -77.27,933.02 -177.72,1863.65 -249.69,2797.17 -814.7,226.01 -1631.35,448.64 -2448.96,659.68 -740.34,-199.45 -1480.21,-400.84 -2221.51,-597.87 -59.87,-27.04 -170.95,-21.25 -171.92,-111.08 -69.55,-555.37 -101.89,-1114.62 -156.95,-1671.44 -727.79,0.96 -1456.06,-9.17 -2183.84,5.31 102.38,1136.34 198.96,2273.18 303.28,3409.05 1489.86,426.43 2985.03,833.53 4478.27,1247.9 1411.14,-389.24 2820.34,-785.73 4233.41,-1170.15 74.38,-25.59 156.95,-39.12 221.19,-87.41 335.16,-3689.63 656.31,-7380.23 992.43,-11069.86 -3636.99,-20.77 -7273.98,14.98 -10910.98,0.96z"/>
 </g>
</svg>
