<?xml version="1.0" encoding="UTF-8"?>
<!DOCTYPE svg PUBLIC "-//W3C//DTD SVG 1.1//EN" "http://www.w3.org/Graphics/SVG/1.1/DTD/svg11.dtd">
<!-- Creator: CorelDRAW X7 -->
<svg xmlns="http://www.w3.org/2000/svg" xml:space="preserve" width="247px" height="249px" version="1.1" style="shape-rendering:geometricPrecision; text-rendering:geometricPrecision; image-rendering:optimizeQuality; fill-rule:evenodd; clip-rule:evenodd"
viewBox="0 0 53 53"
 xmlns:xlink="http://www.w3.org/1999/xlink">
 <defs>
  <style type="text/css">
   <![CDATA[
    .fil0 {fill:black}
   ]]>
  </style>
 </defs>
 <g id="Слой_x0020_1">
  <metadata id="CorelCorpID_0Corel-Layer"/>
  <path class="fil0" d="M25 40c1,0 1,0 1,0 1,0 1,0 2,0l10 -11c1,0 1,-1 0,-2 -1,-1 -2,-1 -2,0l-8 8 0 -33c0,-1 -1,-2 -2,-2 -1,0 -1,1 -1,2l0 33 -8 -8c0,-1 -1,-1 -2,0 -1,1 -1,2 0,2l10 11zm-24 -22c0,0 1,0 1,0 0,0 0,1 0,1l0 27c0,3 2,5 5,5l19 0 20 0c3,0 5,-2 5,-5l0 -27c0,0 0,-1 0,-1 0,0 0,0 1,0l0 0c0,0 1,0 1,1l0 27c0,4 -3,7 -7,7l-20 0 -19 0c-4,0 -7,-3 -7,-7l0 -27c0,-1 0,-1 1,-1l0 0z"/>
 </g>
</svg>
