<?xml version="1.0" encoding="UTF-8"?>
<!DOCTYPE svg PUBLIC "-//W3C//DTD SVG 1.1//EN" "http://www.w3.org/Graphics/SVG/1.1/DTD/svg11.dtd">
<!-- Creator: CorelDRAW 2018 (64-Bit) -->
<svg xmlns="http://www.w3.org/2000/svg" xml:space="preserve" width="181.187mm" height="181.187mm" version="1.1" style="shape-rendering:geometricPrecision; text-rendering:geometricPrecision; image-rendering:optimizeQuality; fill-rule:evenodd; clip-rule:evenodd"
viewBox="0 0 5111.37 5111.37"
 xmlns:xlink="http://www.w3.org/1999/xlink">
 <defs>
  <style type="text/css">
   <![CDATA[
    .fil0 {fill:#FEFEFE}
   ]]>
  </style>
 </defs>
 <g id="Слой_x0020_1">
  <metadata id="CorelCorpID_0Corel-Layer"/>
  <path class="fil0" d="M1040.87 0l3029.63 0c572.48,0 1040.87,468.39 1040.87,1040.87l0 3029.63c0,572.48 -468.39,1040.87 -1040.87,1040.87l-552.45 0 0 -1970.5 664.3 0 99.52 -771.28 -763.82 0 0 -491.23c0,-222.79 61.85,-374.6 381.33,-374.6l404.89 0 0 -687.97c-70.44,-9.37 -312.13,-30.32 -593.35,-30.32 -587.17,0 -989.02,358.27 -989.02,1016.51l0 567.61 -661.81 0 0 771.28 661.81 0 0 1970.5 -1681.01 0c-572.48,0 -1040.87,-468.39 -1040.87,-1040.87l0 -3029.63c0,-572.48 468.39,-1040.87 1040.87,-1040.87z"/>
 </g>
</svg>
