<?xml version="1.0" encoding="UTF-8"?>
<!DOCTYPE svg PUBLIC "-//W3C//DTD SVG 1.1//EN" "http://www.w3.org/Graphics/SVG/1.1/DTD/svg11.dtd">
<!-- Creator: CorelDRAW 2019 (64-Bit) -->
<svg xmlns="http://www.w3.org/2000/svg" xml:space="preserve" width="210mm" height="210mm" version="1.1" style="shape-rendering:geometricPrecision; text-rendering:geometricPrecision; image-rendering:optimizeQuality; fill-rule:evenodd; clip-rule:evenodd"
viewBox="0 0 21000 21000"
 xmlns:xlink="http://www.w3.org/1999/xlink">
 <defs>
  <style type="text/css">
   <![CDATA[
    .fil0 {fill:#FEFEFE}
   ]]>
  </style>
 </defs>
 <g id="Слой_x0020_1">
  <metadata id="CorelCorpID_0Corel-Layer"/>
  <path class="fil0" d="M10500 0c-5799.29,0 -10500,4701.37 -10500,10500 0,5799.29 4700.71,10500 10500,10500 5798.63,0 10500,-4700.71 10500,-10500 0,-5798.63 -4701.37,-10500 -10500,-10500zm0 19687.48c-5066.25,0 -9207.83,-4121.23 -9207.83,-9187.48 0,-5066.25 4141.58,-9187.48 9207.83,-9187.48 5066.25,0 9187.48,4121.23 9187.48,9187.48 0,5066.25 -4121.23,9187.48 -9187.48,9187.48z"/>
  <g id="_1482687872">
  </g>
  <g id="_1482687520">
  </g>
  <g id="_1482687552">
  </g>
  <g id="_1482688416">
  </g>
  <g id="_1482688288">
  </g>
  <g id="_1482684256">
  </g>
  <g id="_1482687040">
  </g>
  <g id="_1480059760">
  </g>
  <g id="_1480060208">
  </g>
  <g id="_1480060080">
  </g>
  <g id="_1481131408">
  </g>
  <g id="_1398997280">
  </g>
  <g id="_1398996704">
  </g>
  <g id="_1480131728">
  </g>
  <g id="_1399215488">
  </g>
  <g id="_1399214848">
  </g>
  <g id="_1481259168">
  </g>
  <g id="_1398879472">
  </g>
  <g id="_66548656">
  </g>
  <g id="_1397121712">
  </g>
  <g id="_1480095472">
  </g>
  <g id="_1388083776">
   <path class="fil0" d="M10898.1 10452.9c-214.11,-211.88 -582.08,-212.44 -796.69,0l-3902.18 3846.42c-219.67,218 -219.67,570.91 0,788.36 220.23,218 576.47,218 796.7,0l3504.07 -3453.93 3504.07 3454.49c219.68,218 576.47,218 796.7,0 219.67,-218 219.67,-570.91 0,-788.36l-3902.67 -3846.98z"/>
   <path class="fil0" d="M10898.1 5907.39c-214.11,-211.89 -582.08,-212.45 -796.69,0l-3902.18 3846.41c-219.67,218 -219.67,570.91 0,788.36 220.23,218 576.47,218 796.7,0l3504.07 -3453.93 3504.07 3454.49c219.68,218 576.47,218 796.7,0 219.67,-218 219.67,-570.91 0,-788.36l-3902.67 -3846.97z"/>
  </g>
 </g>
</svg>
