<?xml version="1.0" encoding="UTF-8"?>
<!DOCTYPE svg PUBLIC "-//W3C//DTD SVG 1.1//EN" "http://www.w3.org/Graphics/SVG/1.1/DTD/svg11.dtd">
<!-- Creator: CorelDRAW 2018 (64-Bit) -->
<svg xmlns="http://www.w3.org/2000/svg" xml:space="preserve" width="210mm" height="297mm" version="1.1" style="shape-rendering:geometricPrecision; text-rendering:geometricPrecision; image-rendering:optimizeQuality; fill-rule:evenodd; clip-rule:evenodd"
viewBox="0 0 21000 29700"
 xmlns:xlink="http://www.w3.org/1999/xlink">
 <defs>
  <style type="text/css">
   <![CDATA[
    .fil0 {fill:#194F67}
   ]]>
  </style>
 </defs>
 <g id="Слой_x0020_1">
  <metadata id="CorelCorpID_0Corel-Layer"/>
  <g id="_1824217504">
   <g>
    <path class="fil0" d="M447.2 4797.2l0 20105.6 20105.6 0 0 -20105.6 -20105.6 0zm838.51 859.25l18430.44 0 0 18387.1 -18430.44 0 0 -18387.1z"/>
   </g>
   <path class="fil0" d="M7421.03 16182.21l-663.27 2575.85c-13.17,71.61 -41.45,88.56 -124.37,88.56l-1230.47 0c-82.93,0 -96.1,-28.27 -82.93,-128.11l2378.02 -8545.36c41.44,-156.39 69.71,-290.19 82.92,-716.02 0,-56.55 28.27,-84.79 69.72,-84.79l1754.3 0c56.54,0 82.93,15.06 97.99,84.79l2668.2 9274.58c13.17,71.61 0,114.95 -69.72,114.95l-1383.08 0c-67.83,0 -109.31,-16.96 -124.37,-73.5l-689.65 -2590.92 -2683.26 0 0 0 -0.03 -0.03zm2336.56 -1396.29c-235.53,-949.7 -787.64,-3031.85 -994.9,-4038.07l-13.17 0c-180.88,1006.22 -623.72,2705.86 -968.53,4038.07l1976.63 0 -0.03 0zm3770.48 -4774.84c0,-553.99 373.08,-879.98 855.47,-879.98 512.54,0 857.35,354.26 857.35,879.98 0,567.18 -359.9,878.1 -870.56,878.1 -497.45,0 -842.29,-310.92 -842.29,-878.1l0.03 0zm92.35 1952.14c0,-69.71 28.27,-97.99 97.99,-97.99l1313.36 0c69.72,0 97.99,28.28 97.99,97.99l0 6783.52c0,71.61 -15.07,99.88 -97.99,99.88l-1300.18 0c-82.93,0 -111.17,-43.34 -111.17,-114.94l0 -6768.46z"/>
  </g>
 </g>
</svg>
