<?xml version="1.0" encoding="UTF-8"?>
<!DOCTYPE svg PUBLIC "-//W3C//DTD SVG 1.1//EN" "http://www.w3.org/Graphics/SVG/1.1/DTD/svg11.dtd">
<!-- Creator: CorelDRAW 2018 (64-Bit) -->
<svg xmlns="http://www.w3.org/2000/svg" xml:space="preserve" width="181.187mm" height="181.187mm" version="1.1" style="shape-rendering:geometricPrecision; text-rendering:geometricPrecision; image-rendering:optimizeQuality; fill-rule:evenodd; clip-rule:evenodd"
viewBox="0 0 11560.44 11560.44"
 xmlns:xlink="http://www.w3.org/1999/xlink">
 <defs>
  <style type="text/css">
   <![CDATA[
    .fil0 {fill:#FEFEFE}
   ]]>
  </style>
 </defs>
 <g id="Слой_x0020_1">
  <metadata id="CorelCorpID_0Corel-Layer"/>
  <path class="fil0" d="M2354.15 0l6852.14 0c1294.78,0 2354.15,1059.37 2354.15,2354.15l0 5600.47 0 1251.68c0,1294.78 -1059.37,2354.15 -2354.15,2354.15l-1249.49 0 -1800.69 0 -1900.98 0 -1900.98 0c-1294.78,0 -2354.15,-1059.37 -2354.15,-2354.15l0 -6852.14c0,-1294.78 1059.37,-2354.15 2354.15,-2354.15zm4776.43 2179.28l-2700.71 0c-1242.77,0 -2250.58,1007.82 -2250.58,2250.58l0 2700.71c0,1242.77 1007.82,2250.58 2250.58,2250.58l2700.71 0c1242.77,0 2250.58,-1007.82 2250.58,-2250.58l0 -2700.71c0,-1242.77 -1007.82,-2250.58 -2250.58,-2250.58zm1575.41 4951.29c0,868.72 -706.69,1575.41 -1575.41,1575.41l-2700.71 0c-868.72,0 -1575.41,-706.69 -1575.41,-1575.41l0 -2700.71c0,-868.72 706.69,-1575.41 1575.41,-1575.41l2700.71 0c868.72,0 1575.41,706.69 1575.41,1575.41l0 2700.71zm-2925.76 -3150.83c-994.31,0 -1800.47,806.16 -1800.47,1800.47 0,994.31 806.16,1800.47 1800.47,1800.47 994.31,0 1800.47,-806.16 1800.47,-1800.47 0,-994.31 -806.16,-1800.47 -1800.47,-1800.47zm0 2925.76c-620.26,0 -1125.29,-505.03 -1125.29,-1125.29 0,-620.71 505.03,-1125.29 1125.29,-1125.29 620.26,0 1125.29,504.58 1125.29,1125.29 0,620.26 -505.03,1125.29 -1125.29,1125.29zm2175.42 -3060.8c0,-132.5 -107.41,-239.91 -239.91,-239.91 -132.5,0 -239.92,107.41 -239.92,239.91 0,132.5 107.41,239.92 239.92,239.92 132.5,0 239.91,-107.41 239.91,-239.92z"/>
 </g>
</svg>
