<?xml version="1.0" encoding="UTF-8"?>
<!DOCTYPE svg PUBLIC "-//W3C//DTD SVG 1.1//EN" "http://www.w3.org/Graphics/SVG/1.1/DTD/svg11.dtd">
<!-- Creator: CorelDRAW 2018 (64-Bit) -->
<svg xmlns="http://www.w3.org/2000/svg" xml:space="preserve" width="210mm" height="297mm" version="1.1" style="shape-rendering:geometricPrecision; text-rendering:geometricPrecision; image-rendering:optimizeQuality; fill-rule:evenodd; clip-rule:evenodd"
viewBox="0 0 21000 29700"
 xmlns:xlink="http://www.w3.org/1999/xlink">
 <defs>
  <style type="text/css">
   <![CDATA[
    .fil1 {fill:#00695B}
    .fil0 {fill:#00695B}
   ]]>
  </style>
 </defs>
 <g id="Слой_x0020_1">
  <metadata id="CorelCorpID_0Corel-Layer"/>
  <path class="fil0" d="M447.2 4797.2l0 20105.6 20105.6 0 0 -20105.6 -20105.6 0zm838.51 859.25l18430.44 0 0 18387.1 -18430.44 0 0 -18387.1z"/>
  <path class="fil1" d="M9602.58 20150.7c13.87,278.81 -107.42,555.11 -247.6,696.8 -298.21,301.45 -1030.44,300.88 -1388.55,-90.7 -80.12,-87.6 -332.25,-435.76 -374.38,-577.28 -130.15,36.55 -570.77,328 -711.75,413.42 -222.44,134.77 -477.57,305.71 -703.09,423.8 46.49,169.06 258.57,466.74 354.18,589.44 433.47,556.24 1092.7,901.47 1868.78,977.13 561.82,54.77 1203.55,-19.62 1650.95,-232.24 469.36,-223.07 754.49,-494.18 987,-930.44 243.19,-456.34 304.38,-1004.81 304.15,-1595.41l-0.02 -4743.11c0,-304.79 -17.95,-669.44 3.62,-966.7l-1719.15 -9.42c0,644.05 41.02,5909.1 -24.14,6044.71z"/>
  <path class="fil1" d="M13687.58 20028.65l-1400.04 802.23c35.33,200.33 433.62,672.56 536.28,780.36 718.23,754.27 1864.6,1072.71 2976.73,976.67 1547.84,-133.67 2697,-1097.95 2459.22,-2822.21 -294.09,-2132.64 -2982.32,-2221.51 -3619.28,-3039.23 -223.72,-287.21 -165.23,-785.32 68.05,-1000.48 453.42,-418.2 1410.73,-241.23 1713.43,512.89 85.72,-20.09 1194.18,-746.69 1353.07,-852.29 -92.28,-236.53 -418.23,-609.9 -569.21,-741.06 -227.38,-197.54 -457.53,-365.76 -822.8,-489.92 -1265.65,-430.18 -3071.92,-37.03 -3500.26,1478.63 -208.96,739.4 -33.58,1620.65 350,2116.75 1121.29,1450.2 3529.52,1303.02 3313.86,2597.77 -34.69,208.23 -132.6,317.08 -241.72,424.99 -222.83,220.29 -634.23,311.95 -1028.65,294.4 -832.18,-37.03 -1292.82,-539.51 -1588.68,-1039.5z"/>
 </g>
</svg>
