<svg id="Слой_1" data-name="Слой 1" xmlns="http://www.w3.org/2000/svg" viewBox="0 0 8067.36 3170.58"><defs><style>.cls-1{fill:#e2ebf4;}.cls-2{fill:#ec442d;}.cls-3{fill:#e0392c;}.cls-4{fill:#cad5dd;}.cls-5{fill:#dae3e8;}.cls-6{fill:#ecf2f6;}.cls-7{fill:#fff;}.cls-8{fill:#d3dadd;}</style></defs><title>me</title><g id="Слой_1-2" data-name="Слой_1"><polygon class="cls-1" points="8067.36 1188.54 8067.36 3170.57 0 3170.57 0 1188.54 1323.55 1188.54 2250.04 1188.54 8067.36 1188.54"/><g id="_2918774656" data-name=" 2918774656"><path id="smoke_2" data-name="smoke 2" class="cls-1" d="M4905.71,795.54s-10-26.94,8.24-41.73-5.46-33.28-7.08-41.73,3.44-23.24,3.44-23.24-9.69,7.66-10.52,19.15,5.46,14.65,6.36,23.63-7.64,18.49-9.89,29.58,9.44,34.33,9.44,34.33Z"/><path id="smoke_1" data-name="smoke 1" class="cls-1" d="M4935.8,772.85s9.94-33.65-8.16-52.13,5.41-41.57,7-52.12-3.4-29-3.4-29,9.59,9.57,10.41,23.92-5.41,18.31-6.3,29.52,7.56,23.09,9.79,37-9.34,42.89-9.34,42.89Z"/><path class="cls-2" d="M4970.77,804.64c-3.15-12-15.24-15.11-15.77-15.23l-2.86-.7-1.71,2.79c-5.39,8.83-11.92,19.12-13.88,21.64-3.22,2-3.09,8-2.12,19l.05.53.12.51c.23.83,2.32,8.07,8.27,11.43a12.29,12.29,0,0,0,6.11,1.58,15.93,15.93,0,0,0,6.71-1.58c12.57-5.72,14.8-14.3,15.17-16.5.29-1.52,2.5-13.48-.11-23.43Zm-18.32,30.09h0c-2.27,1.06-4.15,1.16-5.65.34-1.85-1-3-3.46-3.49-4.71-.29-3.45-.51-7.63-.45-9.72,2-2.47,5.57-7.84,12.93-19.82a13.31,13.31,0,0,1,5.32,4.5,9,9,0,0,1,1.06,2.45c2,7.61-.05,17.88-.07,18l-.09.55a7.13,7.13,0,0,1-1,2C4959.8,830,4957.36,832.49,4952.45,834.73Z"/><path class="cls-3" d="M4969,820.7c-2.24,10.43-5.5,10.82-8.09,13.46l0-5.89a7.16,7.16,0,0,0,1-2l.09-.55c0-.11,2.07-10.38.07-18a8.09,8.09,0,0,0-1-2.33v-9.9s6.19,4.09,7.2,8a40.53,40.53,0,0,1,.67,17.18Z"/><path class="cls-3" d="M4961.18,775.21V885.8l-78.79-9.86V763.72c.61-6.42,11.25-10,17.4-11.07,18.89-3.19,44.19,2.09,55.77,11.45,4.08,3.3,5.86,6.61,5.59,9.65l0,1.45Z"/><path class="cls-2" d="M4913.35,873.12V761.85s18.58-.11,32.13,8.8V877.89l-30.63-5.47-1.5.7Z"/><path class="cls-1" d="M4730.13,735c-2.82-9.51-5.7-18.85-8.72-28-3.89-11.79-8-23.24-12.64-34.23a231.85,231.85,0,0,0-13.57-27.59,119.9,119.9,0,0,0-16.68-22.73,63.6,63.6,0,0,0-20.22-14.62,144,144,0,0,0-24.86-8.18c-8.75-2.09-17.83-3.82-27.11-5.3-4.66-.78-9.35-1.42-14.11-2.07-2.39-.3-4.78-.57-7.19-.8-1.21-.11-2.41-.21-3.62-.23a16.65,16.65,0,0,0-1.8,0,8,8,0,0,0-1,.17.94.94,0,0,0-.59.42,1.56,1.56,0,0,1,.36-1.12,4.6,4.6,0,0,1,.7-.89,15.9,15.9,0,0,1,1.56-1.48,37.08,37.08,0,0,1,3.33-2.43,58.9,58.9,0,0,1,7-3.84,91.57,91.57,0,0,1,14.58-5.37,101.15,101.15,0,0,1,30.45-3.49,86.59,86.59,0,0,1,31.21,6.91,79.18,79.18,0,0,1,28.13,21.4,123.59,123.59,0,0,1,18.77,30.42,190,190,0,0,1,11,33.61,236.42,236.42,0,0,1,5.23,34.61,195.08,195.08,0,0,1-.18,34.76Z"/><path class="cls-1" d="M4730.13,727.46a161.55,161.55,0,0,1-4-27.29,239.66,239.66,0,0,1-.28-27.42,206.13,206.13,0,0,1,9.57-54.56c3-9,6.72-17.87,12.26-26.22l2.13-3.09c.72-1,1.59-2,2.38-3a59.29,59.29,0,0,1,5.3-5.62,51.24,51.24,0,0,1,6.21-4.64,46.32,46.32,0,0,1,6.49-3.26,43.51,43.51,0,0,1,26.14-1.91,45.51,45.51,0,0,1,11.87,4.59,34.15,34.15,0,0,1,5.38,3.68,22.58,22.58,0,0,1,2.42,2.38,12.2,12.2,0,0,1,1,1.45,2.78,2.78,0,0,1,.46,1.8c-.21-.54-.72-.67-1.11-.84a8.67,8.67,0,0,0-1.34-.33,20.46,20.46,0,0,0-2.76-.24,45,45,0,0,0-5.5.18,63.91,63.91,0,0,0-10.55,1.87,48.12,48.12,0,0,0-17.77,8.5,35.09,35.09,0,0,0-6.25,6.37,64.78,64.78,0,0,0-5,8.26,151.56,151.56,0,0,0-8.37,20.84c-5,15.05-9.14,31.36-13.59,47.87s-8.91,33.41-15.11,50.63Z"/><path class="cls-4" d="M4731.81,743c-3.36-22.65-4.87-44.76-6.22-66.76s-2.06-43.78-3.07-65.38c-.53-10.79-1-21.56-1.69-32.22l-.47-8c-.18-2.51-.38-5-.65-7.53-.54-5-1.21-10.11-2.09-15.19a302.1,302.1,0,0,0-7-30.68c-1.42-5.14-3-10.28-4.7-15.42-.86-2.56-1.74-5.14-2.7-7.69-.46-1.29-1-2.55-1.48-3.81-.26-.63-.53-1.26-.82-1.86-.14-.3-.29-.61-.45-.9s-.32-.66-.6-.63c.29-.25.65.05.93.15s.57.32.85.5c.55.37,1.07.77,1.59,1.18,1,.82,2,1.73,3,2.63,1.92,1.85,3.77,3.8,5.52,5.85a121.47,121.47,0,0,1,9.78,13.15,150,150,0,0,1,15,30.54,152.19,152.19,0,0,1,5,17c.67,2.92,1.28,5.87,1.77,8.86l1.27,8.49c1.66,11.35,2.56,22.71,3.1,34.07A436.24,436.24,0,0,1,4745.3,677q-1.85,16.77-5.07,33.32a255.25,255.25,0,0,1-8.42,32.7Z"/><path class="cls-1" d="M4817.48,743.9,4816,757.32l-.72,6.82L4798.6,920.66H4671.86l-15.48-163.57-.65-7-.93-9.82C4651,731,4661.63,722,4685.65,717h0c1.22-.25,2.48-.51,3.78-.74,39.78-7.18,93.32-.68,117.12,13.88,1,.59,1.89,1.18,2.71,1.79,4.75,3.4,7.37,6.87,8,10.25a9.32,9.32,0,0,1,.16,1.71Z"/><path class="cls-1" d="M4817.48,742.19v1.71a9.32,9.32,0,0,0-.16-1.71Z"/><path class="cls-4" d="M4721.43,707.08h0c-3.89-11.79-8-23.24-12.64-34.23a231.85,231.85,0,0,0-13.57-27.59,119.9,119.9,0,0,0-16.68-22.73,63.6,63.6,0,0,0-20.22-14.62,144,144,0,0,0-24.86-8.18c-8.75-2.09-17.83-3.82-27.11-5.3-4.66-.78-9.35-1.42-14.11-2.07-2.39-.3-4.78-.57-7.19-.8-1.21-.11-2.41-.21-3.62-.23a16.65,16.65,0,0,0-1.8,0,8,8,0,0,0-1,.17c5.52-3.83,48.77-31.84,88.79,2.7,42.84,37,54.06,112.84,54.06,112.84Z"/><path class="cls-5" d="M4695.32,920.66h-23.46l-15.48-163.57-.65-7-.93-9.82C4651,731,4661.63,722,4685.65,717h0l9.66,203.65Z"/><path class="cls-5" d="M4817.48,743.9,4816,757.32l-.72,6.82L4798.6,920.66h-5.21l15.89-188.71c4.75,3.4,7.37,6.87,8,10.25a9.32,9.32,0,0,1,.16,1.71Z"/><path class="cls-4" d="M4816,757.32c-1.67-2.85-4.76-5.75-9.37-8.56-23.8-14.56-77.34-21.07-117.12-13.88-18.45,3.32-29.86,8.9-33.82,15.23l.65,7c4.48-5.94,15.64-11.13,33.17-14.28,39.78-7.18,93.32-.68,117.12,13.88a29.1,29.1,0,0,1,8.64,7.46l.72-6.82Z"/><polygon class="cls-4" points="4271.85 1293.53 5488.48 1345.54 5469.11 1380.36 4088.85 1307.07 4271.85 1293.53"/><polygon class="cls-4" points="2307.56 1337.55 2390.52 1378.52 2839.68 1352.95 2675.92 1321.73 2307.56 1337.55"/><path class="cls-4" d="M3019.06,817.88l-49.52-9.43s-29.55,40.37-32.36,86.21l40.63,6.79s14.65-79.1,41.24-83.58Z"/><path class="cls-1" d="M3038,839.45l-44.91-8.55s-26.81,17.76-29.35,59.34l36.85,6.16s13.28-52.88,37.41-56.95Z"/><polygon class="cls-5" points="5476.4 1367.26 5080.02 1347.76 5080.02 137.47 5476.4 0 5476.4 1367.26"/><polygon class="cls-5" points="4567.6 909.94 5063.14 853.79 5063.14 1346.93 4567.6 1322.56 4567.6 909.94"/><polygon class="cls-4" points="3198.6 1335.73 2957.73 1307.38 3050.04 1303.49 3303.06 1329.64 3198.6 1335.73"/><polygon class="cls-6" points="3294.99 921.99 3294.99 1329.65 3270.56 1331.07 3270.56 1137.22 2874.16 1137.22 2874.16 1354.1 2604.6 1369.75 2604.6 838.45 2615.35 839.76 2682.33 847.85 2715.51 851.87 2822.69 864.84 2837.33 866.61 3294.99 921.99"/><polygon class="cls-7" points="3267.11 1018.9 3267.11 1188.54 2874.16 1188.54 2874.16 988.14 3267.11 1018.9"/><polygon class="cls-5" points="3068.91 1310.11 3270.56 1331.86 3270.56 1018.9 3068.91 1047.77 3068.91 1310.11"/><polygon class="cls-4" points="3270.56 1018.9 3068.91 1047.79 2874.16 1036.14 2874.16 988.14 3270.56 1018.9"/><polygon class="cls-1" points="3190.79 866.61 2826.82 816.02 2826.82 451.63 3190.79 550.55 3190.79 866.61"/><polygon class="cls-5" points="3190.79 866.61 2826.82 816.02 2826.82 733.23 3190.79 794.8 3190.79 866.61"/><polygon class="cls-5" points="3176.78 900.8 2879.43 863.96 2879.43 871.7 3176.78 907.69 3176.78 900.8"/><path class="cls-8" d="M2857.83,1214.33l3.75,101-3.75,3.7-244.49,10.63V1215.54l3.75-3.7L2723,1215a16.85,16.85,0,0,0,12.68,7.84c5.92.42,14.82-6.53,17.5-11.66l104.65,3.17Z"/><path class="cls-8" d="M2857.53,1103.39l4,99.56-4,4-243.9.48V1094.56l4-4,104.66,7.92c2.84,5,7.75,8.58,13.34,9,5.92.42,15.12-6.82,17.8-12l104.05,7.9Z"/><polygon class="cls-4" points="2879.43 863.96 2879.43 871.82 2864.8 870.05 2879.43 863.96"/><path class="cls-8" d="M2857.53,991.57l4,100.87-4,3.43-243.9-9.47V972.73l4-3.43,104,11.78c2.7,5.64,7.94,9.72,14,10.14s15.14-6.26,17.82-11.42l104,11.78Z"/><path class="cls-5" d="M2861.58,988.14v104.31L2617.68,1083V969.29l108.08,8.35c2.7,5.64,7.94,9.72,14,10.14a14.29,14.29,0,0,0,13.77-8l108.08,8.35Z"/><path class="cls-5" d="M2861.58,1099.4v103.55l-243.89.48V1090.57l108.71,3.93c2.84,5,7.75,8.58,13.34,9a14.3,14.3,0,0,0,13.75-8l108.09,3.91Z"/><path class="cls-5" d="M2861.58,1210.64v104.69L2617.09,1326V1211.84l109.66-.55a16.85,16.85,0,0,0,12.68,7.84,14.3,14.3,0,0,0,13.75-8l108.4-.53Z"/><polygon class="cls-6" points="5495.88 1332 5476.4 1366.95 5476.4 0 5495.88 246.87 5495.88 1332"/><polygon class="cls-7" points="5452.66 35.12 5452.66 335.06 5410.23 345.73 5405.33 346.95 5405.33 346.97 5281.28 378.16 5248.74 386.36 5230.5 390.94 5206.86 396.9 5204.88 397.38 5187.8 401.67 5166.91 406.93 5154.85 409.95 5151.85 410.71 5095.53 424.89 5095.53 156.19 5452.66 35.12"/><polygon class="cls-7" points="5452.66 365.02 5452.66 666.07 5436.34 668.6 5411.31 672.47 5396.53 674.75 5339.56 683.58 5334.78 684.32 5317.45 687.03 5298.36 689.98 5284.88 692.08 5230.5 700.5 5212.38 703.32 5204.88 704.48 5180.77 708.22 5164.43 710.75 5151.85 712.7 5139.86 714.56 5095.53 721.42 5095.53 451.73 5452.66 365.02"/><polygon class="cls-7" points="5452.66 694.91 5452.66 996.27 5417.31 998.35 5396.64 999.57 5376.56 1000.75 5369.69 1001.15 5366.67 1001.32 5354.09 1002.06 5328.92 1003.54 5151.85 1013.94 5095.53 1017.23 5095.53 747.24 5452.66 694.91"/><polygon class="cls-7" points="5452.66 1024.8 5452.66 1326.46 5151.85 1315.13 5095.53 1313.02 5095.53 1042.77 5452.66 1024.8"/><polygon class="cls-1" points="5151.85 279.55 5151.85 410.71 5095.53 424.89 5095.53 156.19 5151.85 279.55"/><polygon class="cls-4" points="5452.66 35.12 5452.66 190.33 5151.51 278.79 5095.53 156.19 5452.66 35.12"/><polygon class="cls-1" points="5151.85 540.08 5151.85 712.7 5095.53 721.42 5095.53 451.73 5151.85 540.08"/><polygon class="cls-4" points="5452.66 365.02 5095.53 451.73 5152.1 540.46 5452.66 477.35 5452.66 365.02"/><polygon class="cls-1" points="5151.85 800.59 5151.85 1013.94 5095.53 1017.23 5095.53 747.24 5151.85 800.59"/><polygon class="cls-4" points="5452.66 694.91 5452.66 761.99 5151.49 800.25 5095.53 747.24 5452.66 694.91"/><polygon class="cls-1" points="5151.85 1061.11 5151.85 1315.13 5095.53 1313.02 5095.53 1042.77 5151.85 1061.11"/><polygon class="cls-4" points="5452.66 1024.8 5452.66 1047.76 5151.31 1060.92 5095.53 1042.77 5452.66 1024.8"/><path class="cls-5" d="M3259.32,916.92c0,.25,0,.48,0,.74L3196,910a2.13,2.13,0,0,1,0-.34c0-6,3.22-11.09,8.45-14.54a27.22,27.22,0,0,1,6.08-3,35,35,0,0,1,4.44-1.21h0a41.23,41.23,0,0,1,13.09-.4C3245.41,892.7,3259.32,904.49,3259.32,916.92Z"/><path class="cls-6" d="M3259.32,916.92c-11.29-20.09-43.48-25.8-44.38-26a41.23,41.23,0,0,1,13.09-.4C3245.41,892.7,3259.32,904.49,3259.32,916.92Z"/><polygon class="cls-5" points="2604.6 838.45 2604.6 1369.75 2505.64 1340.38 2505.64 899.64 2524.51 887.97 2586.08 849.9 2590.58 847.11 2593.99 845 2604.6 838.45"/><polygon class="cls-4" points="2590.58 826.36 2590.58 847.11 2586.08 849.9 2524.51 887.97 2524.51 870.54 2544.52 857.17 2590.58 826.36"/><polygon class="cls-6" points="2715.51 841.93 2715.51 851.87 2700.27 850.03 2700.24 850.03 2682.33 847.85 2615.35 839.76 2604.6 838.45 2593.99 845 2590.58 845.84 2590.58 826.36 2643.12 832.91 2647.47 833.46 2700.27 840.03 2715.51 841.93"/><polygon class="cls-6" points="2593.99 845 2590.58 847.11 2590.58 845.84 2593.99 845"/><polygon class="cls-5" points="2643.12 804.01 2643.12 832.91 2590.58 826.36 2544.52 857.17 2544.52 832.36 2643.12 804.01"/><polygon class="cls-6" points="2700.27 822.92 2700.27 840.03 2647.47 833.46 2643.12 832.09 2643.12 804.01 2700.27 822.92"/><polygon class="cls-6" points="5452.66 1326.46 5095.53 1313.02 5149.46 1299.9 5452.66 1309.85 5452.66 1326.46"/><polygon class="cls-1" points="5452.66 1188.54 5151.85 1188.54 5151.85 1299.98 5452.66 1309.85 5452.66 1188.54"/><polygon class="cls-4" points="5080.02 1341.1 5063.14 1346.04 5063.14 853.79 5080.02 865.22 5080.02 1341.1"/><path class="cls-6" d="M3674.31,1381.18l66.77,7.43c4.41.49,4.19,1.3-.53,1.8l-820,86.46c-10,1.05-20.88,1.05-24.16,0l-48.71-15.6c-2.9-.93,2.56-2.44,12.06-3.35l798.72-76.74a93.58,93.58,0,0,1,15.89,0Z"/><path class="cls-6" d="M2973.73,1386.36l-42.33-8.42c-2.19-.43-9.2-.43-15.61,0l-493.11,33.53c-9.06.62-15.61,1.63-14.5,2.26l21.68,12.2c1.25.7,10.16.7,19.76,0l516.46-37.8c6.64-.49,10.07-1.28,7.66-1.76Z"/><path class="cls-6" d="M3780.09,1325.55l-65.45-4.77a93.76,93.76,0,0,0-10.67,0l-219.35,14.49c-3.86.26-4.83.67-2.12.93l63.84,6.07a92.42,92.42,0,0,0,12.52,0L3780,1326.36c3.09-.22,3.13-.59.11-.81Z"/><path class="cls-6" d="M5179.2,1386.36,4716,1358.62c-5.81-.35-9-.91-7.16-1.26l18-3.35c1.77-.33,7.85-.33,13.54,0l451.79,26c7.78.45,13.43,1.19,12.53,1.64l-9.24,4.65C5194.58,1386.84,5187.21,1386.84,5179.2,1386.36Z"/><path class="cls-6" d="M4555.36,1394.73l-507.1-39.52c-4.27-.33-5.12-.88-1.91-1.21l63.5-6.52a92.86,92.86,0,0,1,13,0l494,35.32c6.46.46,9.84,1.22,7.47,1.69l-51.85,10.25c-2.65.52-10.35.52-17.06,0Z"/><path class="cls-6" d="M5392.21,1507.92l-653.78-60.27c-9.08-.84-14.15-2.19-11.34-3l51.31-15c2.46-.72,11.47-.72,20.08,0l609.45,51c12.9,1.08,23.08,2.86,22.55,4l-11.42,23.35c-.63,1.3-12.77,1.3-26.85,0Z"/><polygon class="cls-4" points="5410.23 341.18 5410.23 345.73 5405.33 346.95 5405.33 315 5410.23 341.18"/><polygon class="cls-4" points="5452.66 961.48 5429.04 810.77 5449.37 865.03 5452.66 882.37 5452.66 961.48"/><polygon class="cls-4" points="5436.34 560.51 5436.34 668.6 5411.31 672.47 5411.31 442.11 5436.34 560.51"/><polygon class="cls-4" points="5164.43 580.5 5164.43 710.75 5151.85 712.7 5139.86 714.56 5139.86 543.23 5164.43 580.5"/><polygon class="cls-4" points="5204.88 545.21 5204.88 704.48 5180.77 708.22 5180.61 708 5180.61 501.97 5204.88 545.21"/><polygon class="cls-4" points="5230.5 573.67 5230.5 700.5 5212.38 703.32 5212.38 540.46 5230.5 573.67"/><polygon class="cls-4" points="5248.74 697.67 5248.74 520.18 5260.61 545.13 5260.61 695.84 5248.74 697.67"/><polygon class="cls-4" points="5298.36 534.76 5298.36 689.98 5284.88 692.08 5284.88 501.97 5298.36 534.76"/><polygon class="cls-4" points="5339.56 559.99 5339.56 683.58 5317.45 687.03 5317.24 686.58 5317.24 498.46 5339.56 559.99"/><polygon class="cls-4" points="5376.56 837.75 5376.56 1000.75 5366.67 1001.32 5366.67 819.46 5376.56 837.75"/><polygon class="cls-4" points="5354.09 844.58 5354.09 1002.06 5328.92 1003.54 5328.92 803.61 5354.09 844.58"/><path class="cls-5" d="M5274.09,1081.59v233.55l-160.59-5.94v-222l20.64-.72a16.6,16.6,0,0,0-.27,3c0,10,8.61,17.85,19.2,17.56l82.26-2.32a22,22,0,0,0,14.45-5.94,18.61,18.61,0,0,0,6-13.46,15.62,15.62,0,0,0-.29-3.06l18.57-.66Z"/><path class="cls-4" d="M5396.53,674.75l-57,8.83-4.78.74A295,295,0,0,1,5343,655.5c6.6-20.07,22.63-130.63,22.63-130.63l12.8-19.27,12.31,14.47Z"/><polygon class="cls-4" points="5417.31 850.32 5417.31 998.35 5396.64 999.57 5396.64 803.61 5417.31 850.32"/><polygon class="cls-4" points="5304.65 1304.13 5274.09 1316.37 5274.09 1081.58 5304.65 1093.51 5304.65 1304.13"/><path class="cls-5" d="M5452.66,1122.43v196.81l-170.6-6v-187l25.38-.55a18,18,0,0,0-.52,4.29c0,11.07,10.12,20,22.58,19.82l74.37-1.08a26.18,26.18,0,0,0,16.9-6.38,19.93,19.93,0,0,0,7-14.85,18.17,18.17,0,0,0-.56-4.44l25.4-.55Z"/><path class="cls-5" d="M5289.37,792.83v217.6L5113.5,1021V815.12l22-2.79a19.71,19.71,0,0,0-.25,3.08c0,10.92,9.47,18.76,21.12,17.41L5245,822.5a26.77,26.77,0,0,0,16-7.94,22.37,22.37,0,0,0,6.67-15.4,18.73,18.73,0,0,0-.34-3.53l22.06-2.79Z"/><polygon class="cls-4" points="5324.41 1003.78 5289.37 1005.86 5289.37 792.83 5324.41 843.18 5324.41 1003.78"/><polygon class="cls-5" points="5366.67 819.46 5339.57 823.14 5339.57 1003.14 5366.67 1001.22 5366.67 819.46"/><polygon class="cls-5" points="5396.64 803.61 5396.64 999.57 5376.56 1000.75 5369.69 1001.15 5369.69 806.82 5396.64 803.61"/><polygon class="cls-5" points="5458.08 996.1 5433 1003.07 5404.18 819.14 5429.04 810.78 5458.08 996.1"/><polygon class="cls-5" points="5328.92 803.61 5295.36 807.89 5295.36 1005.86 5328.92 1003.75 5328.92 803.61"/><path class="cls-1" d="M5315.67,985.36l-7,.45c-2.52.16-4.64-2.19-4.64-5.16V831c0-2.66,1.72-4.89,4-5.14l7-.79c2.58-.29,4.82,2.09,4.82,5.14v150c0,2.75-1.82,5-4.15,5.16Z"/><path class="cls-1" d="M5142,945.12a1.86,1.86,0,0,1-2.1-1.81V861.72a2.34,2.34,0,0,1,2.1-2.21,1.8,1.8,0,0,1,2.1,1.75V943A2.26,2.26,0,0,1,5142,945.12Z"/><path class="cls-1" d="M5160.69,919.77a1.71,1.71,0,0,1-1.95-1.66V861.33a2.17,2.17,0,0,1,1.95-2,1.67,1.67,0,0,1,2,1.62v56.86a2.12,2.12,0,0,1-2,2Z"/><path class="cls-1" d="M5178.23,872.31l-48,5a2,2,0,0,1-2.31-2,2.57,2.57,0,0,1,2.31-2.43l48-5a2,2,0,0,1,2.38,2A2.63,2.63,0,0,1,5178.23,872.31Z"/><path class="cls-1" d="M5170,899.59l-43.9,4.15a2.13,2.13,0,0,1-2.43-2.08,2.68,2.68,0,0,1,2.43-2.55l43.9-4.22a2.18,2.18,0,0,1,2.51,2.11,2.74,2.74,0,0,1-2.51,2.59Z"/><path class="cls-1" d="M5195.89,1230.86a2.05,2.05,0,0,1-2.09-2v-79.17a2.07,2.07,0,0,1,2.09-2,2,2,0,0,1,2.1,1.92v79.27a2,2,0,0,1-2.1,1.93Z"/><path class="cls-1" d="M5244.39,1181.07l-53.93.27a2.35,2.35,0,0,1-2.43-2.25,2.38,2.38,0,0,1,2.43-2.28l53.93-.35a2.41,2.41,0,0,1,2.52,2.29,2.44,2.44,0,0,1-2.52,2.32Z"/><path class="cls-1" d="M5344.35,1246.7a1.88,1.88,0,0,1-1.95-1.75V1191a2,2,0,0,1,3.9,0v54a1.82,1.82,0,0,1-2,1.7Z"/><polygon class="cls-4" points="5187.8 278.86 5187.8 401.67 5154.85 409.95 5154.85 199.84 5187.8 278.86"/><polygon class="cls-4" points="5230.5 288 5230.5 390.94 5206.86 396.9 5204.88 397.38 5204.88 219.57 5230.5 288"/><polygon class="cls-4" points="5281.28 332.27 5281.28 378.16 5248.74 386.36 5248.74 235.06 5281.28 332.27"/><path class="cls-1" d="M5383.62,1209.4l-54-.19a2.2,2.2,0,1,1,0-4.37l54,.12a2.24,2.24,0,1,1,0,4.44Z"/><path class="cls-1" d="M5361.88,1232.28a1.44,1.44,0,0,1-1.5-1.34V1200.3a1.51,1.51,0,0,1,3,0V1231a1.41,1.41,0,0,1-1.5,1.31Z"/><path class="cls-1" d="M5326.17,1220.84l46.49.33a1.7,1.7,0,0,0,1.81-1.58,1.73,1.73,0,0,0-1.81-1.6l-46.49-.28a1.66,1.66,0,0,0-1.76,1.56,1.69,1.69,0,0,0,1.76,1.58Z"/><polygon class="cls-5" points="5139.86 543.22 5106.91 550.14 5106.91 719.66 5139.86 714.55 5139.86 543.22"/><polygon class="cls-5" points="5180.61 501.98 5151.85 508.31 5151.85 712.7 5180.61 708.24 5180.61 501.98"/><polygon class="cls-5" points="5212.37 540.46 5185.39 546.02 5185.39 707.5 5212.37 703.32 5212.37 540.46"/><polygon class="cls-5" points="5248.74 520.17 5223.76 525.42 5223.76 703.04 5248.74 699.18 5248.74 520.17"/><polygon class="cls-5" points="5284.88 501.98 5254.37 508.48 5254.37 696.8 5284.88 692.08 5284.88 501.98"/><polygon class="cls-5" points="5317.24 498.45 5289.37 504.37 5289.37 691.38 5317.24 687.06 5317.24 498.45"/><polygon class="cls-5" points="5378.43 505.6 5350.14 504.16 5315.1 686.58 5343.1 689.58 5378.43 505.6"/><polygon class="cls-5" points="5411.32 442.11 5378.9 449.34 5378.9 677.51 5411.32 672.49 5411.32 442.11"/><polygon class="cls-5" points="5452.66 444.93 5415.96 452.98 5415.96 671.75 5452.66 666.07 5452.66 444.93"/><polygon class="cls-5" points="5285.63 294.22 5380.16 254.46 5380.16 278.68 5285.63 316.4 5285.63 294.22"/><polygon class="cls-4" points="5429.03 311.5 5424.2 279.54 5424.2 309.89 5429.03 341 5429.03 311.5"/><polygon class="cls-5" points="5405.33 314.81 5405.33 346.97 5274.09 379.97 5274.09 349.06 5297.34 343 5405.33 314.81"/><polygon class="cls-4" points="5429.03 341 5407.78 346.34 5405.33 339.09 5405.33 314.81 5297.34 343 5285.63 316.4 5380.16 278.69 5380.16 254.45 5403.73 293.69 5424.2 299.5 5429.03 341"/><polygon class="cls-5" points="5424.2 278.79 5300.61 306.96 5300.61 336.85 5424.2 309.89 5424.2 278.79"/><polygon class="cls-5" points="5154.85 199.85 5106.91 215.12 5106.91 422.03 5154.85 409.97 5154.85 199.85"/><polygon class="cls-5" points="5204.88 219.57 5204.88 397.38 5187.8 401.67 5166.91 406.93 5164.74 407.25 5164.74 232.06 5204.88 219.57"/><polygon class="cls-5" points="5248.74 235.06 5212.07 245.2 5212.07 395.58 5248.74 386.35 5248.74 235.06"/><path class="cls-1" d="M5141.83,229l-21.95,6.78c-1.69.52-3.08-.37-3.08-2a4.47,4.47,0,0,1,3.08-3.9l21.95-6.82c1.72-.54,3.13.36,3.13,2a4.53,4.53,0,0,1-3.13,3.93Z"/><path class="cls-1" d="M5142.48,243.25l-23.25,7.08c-1.67.51-3-.38-3-2a4.37,4.37,0,0,1,3-3.82l23.25-7.13c1.69-.52,3.08.37,3.08,2a4.43,4.43,0,0,1-3.08,3.85Z"/><path class="cls-1" d="M5140.28,258.41l-18.84,5.66c-1.65.5-3-.39-3-2a4.29,4.29,0,0,1,3-3.76l18.84-5.69c1.67-.5,3,.38,3,2a4.34,4.34,0,0,1-3,3.79Z"/><path class="cls-1" d="M5141.18,272.67l-20.64,6.1c-1.64.49-3-.4-3-2a4.26,4.26,0,0,1,3-3.73l20.64-6.14c1.67-.5,3,.39,3,2A4.31,4.31,0,0,1,5141.18,272.67Z"/><path class="cls-1" d="M5137.12,288.4,5124.61,292c-1.66.48-3-.42-3-2a4.28,4.28,0,0,1,3-3.75l12.51-3.66c1.68-.49,3,.41,3,2A4.3,4.3,0,0,1,5137.12,288.4Z"/><path class="cls-1" d="M5194.41,244.29l-21.95,6.78c-1.7.52-3.08-.37-3.08-2a4.47,4.47,0,0,1,3.08-3.9l21.95-6.82c1.72-.54,3.13.36,3.13,2a4.53,4.53,0,0,1-3.13,3.93Z"/><path class="cls-1" d="M5195.06,258.57l-23.25,7.08c-1.67.51-3-.38-3-2a4.37,4.37,0,0,1,3-3.82l23.25-7.12c1.69-.52,3.08.37,3.08,2A4.42,4.42,0,0,1,5195.06,258.57Z"/><path class="cls-1" d="M5192.85,273.73,5174,279.38c-1.65.5-3-.38-3-2a4.3,4.3,0,0,1,3-3.76l18.84-5.69c1.67-.5,3,.38,3,2a4.34,4.34,0,0,1-3,3.79Z"/><path class="cls-1" d="M5193.76,288l-20.64,6.1c-1.64.48-3-.4-3-2a4.26,4.26,0,0,1,3-3.74l20.64-6.13c1.67-.5,3,.39,3,2A4.31,4.31,0,0,1,5193.76,288Z"/><path class="cls-1" d="M5189.7,303.72l-12.51,3.63c-1.66.48-3-.42-3-2a4.27,4.27,0,0,1,3-3.75l12.51-3.66c1.67-.49,3,.41,3,2A4.3,4.3,0,0,1,5189.7,303.72Z"/><path class="cls-1" d="M5239.86,260.77l-19,5.85c-1.47.45-2.66-.32-2.66-1.72a3.86,3.86,0,0,1,2.66-3.36l19-5.89c1.49-.46,2.7.31,2.7,1.72A3.91,3.91,0,0,1,5239.86,260.77Z"/><path class="cls-1" d="M5240.42,273.1l-20.08,6.12a1.84,1.84,0,0,1-2.62-1.7,3.77,3.77,0,0,1,2.62-3.29l20.08-6.15c1.46-.45,2.66.32,2.66,1.7A3.82,3.82,0,0,1,5240.42,273.1Z"/><path class="cls-1" d="M5238.52,286.19l-16.27,4.88a1.82,1.82,0,0,1-2.59-1.69,3.71,3.71,0,0,1,2.59-3.25l16.27-4.91c1.44-.43,2.62.32,2.62,1.69A3.75,3.75,0,0,1,5238.52,286.19Z"/><path class="cls-1" d="M5239.3,298.5l-17.83,5.27a1.83,1.83,0,0,1-2.58-1.7,3.68,3.68,0,0,1,2.58-3.22l17.83-5.3a1.85,1.85,0,0,1,2.62,1.7A3.72,3.72,0,0,1,5239.3,298.5Z"/><path class="cls-1" d="M5235.8,312.09,5225,315.23a1.86,1.86,0,0,1-2.61-1.73,3.69,3.69,0,0,1,2.61-3.24l10.81-3.16a1.87,1.87,0,0,1,2.63,1.73A3.71,3.71,0,0,1,5235.8,312.09Z"/><path class="cls-1" d="M5269.55,653.09c-2.5.42-4.53-1.09-4.53-3.36V524.29a5.65,5.65,0,0,1,4.53-5.06c2.5-.52,4.54.91,4.54,3.18V648.2A5.38,5.38,0,0,1,5269.55,653.09Z"/><path class="cls-1" d="M5236.24,629a2.68,2.68,0,0,1-3.37-2.53V558.78a4.11,4.11,0,0,1,3.37-3.72,2.62,2.62,0,0,1,3.38,2.46v67.88a4,4,0,0,1-3.38,3.65Z"/><path class="cls-1" d="M5166.07,656.06c-2.88.48-5.24-1.34-5.24-4V557.56a6.54,6.54,0,0,1,5.24-6c2.89-.58,5.25,1.17,5.25,3.88v94.78a6.3,6.3,0,0,1-5.25,5.8Z"/><path class="cls-1" d="M5396.1,529.63c-2.84.54-5.16-1.05-5.16-3.54V480.42c0-2.48,2.32-5,5.16-5.57s5.18,1,5.18,3.46v45.82C5401.28,526.62,5398.95,529.09,5396.1,529.63Z"/><path class="cls-1" d="M5396.1,600.07c-2.84.48-5.16-1.16-5.16-3.64V550c0-2.48,2.32-4.94,5.16-5.46s5.18,1.08,5.18,3.57v46.53C5401.28,597.16,5398.95,599.59,5396.1,600.07Z"/><path class="cls-1" d="M5274.09,668c0,3.36-2,6.41-4.54,6.82s-4.53-2-4.53-5.34,2-6.4,4.53-6.81,4.54,2,4.54,5.33Z"/><path class="cls-1" d="M5171.33,528.5c0,5.17-2.35,9.84-5.25,10.43s-5.24-3.11-5.24-8.26,2.34-9.82,5.24-10.43S5171.33,523.33,5171.33,528.5Z"/><polygon class="cls-1" points="4571.88 919.54 5045.76 866.98 5045.76 1014.87 4571.94 1044.47 4571.88 919.54"/><polygon class="cls-1" points="4571.95 1054.59 5045.76 1026.85 5045.76 1174.68 4572.02 1179.48 4571.95 1054.59"/><polygon class="cls-1" points="4572.02 1189.6 5045.76 1186.66 5045.76 1334.44 4572.09 1314.46 4572.02 1189.6"/><polygon class="cls-4" points="5053.57 1017.23 5045.76 1014.51 5045.76 866.98 5053.57 871.9 5053.57 1017.23"/><polygon class="cls-4" points="5053.57 1174.98 5045.76 1174.65 5045.76 1026.85 5053.57 1029.37 5053.57 1174.98"/><polygon class="cls-4" points="5053.57 1334.44 5045.76 1336.51 5045.76 1186.66 5053.57 1186.82 5053.57 1334.44"/><polygon class="cls-4" points="5053.57 1017.23 4578.56 1045.48 4571.94 1044.47 5049.48 1015.81 5053.57 1017.23"/><path class="cls-4" d="M4815.22,957.06c0,6.36-4.38,11.51-9.79,11.51s-9.79-5.15-9.79-11.51,4.38-11.51,9.79-11.51S4815.22,950.71,4815.22,957.06Z"/><path class="cls-5" d="M4811.63,957.06c0,6.36-4.38,11.51-9.79,11.51s-9.79-5.15-9.79-11.51,4.38-11.51,9.79-11.51S4811.63,950.71,4811.63,957.06Z"/><path class="cls-1" d="M4806.74,951.37c1.33,2,1.57,4.35.55,5.3s-2.93.13-4.26-1.85-1.57-4.34-.55-5.3S4805.42,949.4,4806.74,951.37Z"/><path class="cls-4" d="M4815.22,1107.09c0,6.36-4.38,11.51-9.79,11.51s-9.79-5.15-9.79-11.51,4.38-11.51,9.79-11.51S4815.22,1100.74,4815.22,1107.09Z"/><path class="cls-5" d="M4811.63,1107.09c0,6.36-4.38,11.51-9.79,11.51s-9.79-5.15-9.79-11.51,4.38-11.51,9.79-11.51S4811.63,1100.74,4811.63,1107.09Z"/><path class="cls-1" d="M4806.74,1101.4c1.33,2,1.57,4.35.55,5.3s-2.93.13-4.26-1.85-1.57-4.35-.55-5.3S4805.42,1099.43,4806.74,1101.4Z"/><path class="cls-4" d="M4815.22,1254.57c0,6.36-4.38,11.51-9.79,11.51s-9.79-5.15-9.79-11.51,4.38-11.51,9.79-11.51S4815.22,1248.21,4815.22,1254.57Z"/><path class="cls-5" d="M4811.63,1254.57c0,6.36-4.38,11.51-9.79,11.51s-9.79-5.15-9.79-11.51,4.38-11.51,9.79-11.51S4811.63,1248.21,4811.63,1254.57Z"/><path class="cls-1" d="M4806.74,1248.87c1.33,2,1.57,4.35.55,5.3s-2.93.13-4.26-1.85-1.57-4.35-.55-5.3S4805.42,1246.9,4806.74,1248.87Z"/></g></g></svg>