<?xml version="1.0" encoding="UTF-8"?>
<!DOCTYPE svg PUBLIC "-//W3C//DTD SVG 1.1//EN" "http://www.w3.org/Graphics/SVG/1.1/DTD/svg11.dtd">
<!-- Creator: CorelDRAW 2018 (64-Bit) -->
<svg xmlns="http://www.w3.org/2000/svg" xml:space="preserve" width="155.012mm" height="151.134mm" version="1.1" style="shape-rendering:geometricPrecision; text-rendering:geometricPrecision; image-rendering:optimizeQuality; fill-rule:evenodd; clip-rule:evenodd"
viewBox="0 0 15501.2 15113.38"
 xmlns:xlink="http://www.w3.org/1999/xlink">
 <defs>
  <style type="text/css">
   <![CDATA[
    .fil0 {fill:#94A30A}
   ]]>
  </style>
 </defs>
 <g id="Слой_x0020_1">
  <metadata id="CorelCorpID_0Corel-Layer"/>
  <path class="fil0" d="M-0 0c5166.49,0 10332.99,0 15501.2,0 0,5038.36 0,10075 0,15113.38 -5168.21,0 -10334.71,0 -15501.2,0 0,-5038.36 0,-10075 0,-15113.38zm645.82 645.82c1.72,4607.26 0,9214.51 0,13821.76 4737.11,0 9472.48,0 14209.59,0 0,-4607.25 0,-9214.5 0,-13821.76 -4737.11,0 -9472.48,1.72 -14209.59,0zm3390.07 2815.24c586.95,-25.97 1173.88,-32.9 1760.83,-31.16 424.2,12.13 851.86,77.93 1239.69,256.25 266.62,122.93 510.75,303 692.56,533.28 211.23,263.18 339.36,583.48 398.23,910.72 57.15,316.84 62.34,642.36 20.78,959.19 -48.49,348.02 -167.95,689.1 -373.98,974.78 -263.19,372.27 -661.39,633.7 -1092.52,777.4 -413.79,140.24 -853.58,183.54 -1288.15,174.89 -124.67,-5.19 -247.59,-6.94 -370.51,-12.13 0,831.08 0,1662.14 -1.73,2493.22 6.94,38.08 -25.96,69.24 -64.05,62.33 -339.36,0 -678.7,0 -1018.06,0 -36.37,6.93 -69.24,-24.25 -64.06,-62.33 0,-1992.84 0,-3983.96 0,-5976.8 0,-332.43 -3.46,-666.6 1.73,-999.03 36.36,-48.49 102.14,-58.86 159.29,-60.59l-0.05 -0.02zm986.9 1016.34c0,472.66 0,945.34 0,1416.28 1.72,358.4 -5.19,716.79 3.47,1075.21 358.39,12.12 725.46,32.9 1076.92,-51.93 256.25,-60.59 505.57,-190.45 666.6,-403.42 180.07,-233.75 240.66,-538.46 237.19,-829.34 1.72,-282.21 -65.8,-578.29 -249.31,-799.89 -171.41,-214.7 -432.85,-335.9 -697.75,-387.83 -341.09,-65.8 -692.57,-32.9 -1037.12,-19.06l0 -0.02zm5466.02 751.43c200.85,-15.59 403.42,-8.66 605.99,6.93 251.06,22.5 505.56,62.34 741.03,157.55 51.93,19.06 84.83,74.46 79.65,128.11 0,302.99 1.72,604.27 0,905.51 8.65,55.4 -58.87,74.46 -100.43,51.94 -270.09,-152.36 -576.55,-232.01 -883.01,-261.44 -193.91,-17.31 -394.76,-24.25 -581.74,38.09 -119.46,41.56 -233.75,119.45 -290.87,235.47 -74.46,141.98 -55.4,328.96 48.49,451.88 100.42,121.2 237.19,207.76 372.26,289.15 247.59,150.64 515.96,263.18 763.56,415.54 244.12,150.64 477.87,328.96 647.54,562.71 148.89,202.57 230.28,450.16 247.59,701.22 25.97,322.05 -24.24,659.67 -185.26,943.6 -128.11,233.75 -330.7,422.45 -562.7,550.59 -278.75,154.1 -595.61,226.81 -910.73,247.59 -294.34,15.59 -590.4,-1.72 -881.29,-55.4 -223.35,-43.28 -448.44,-107.36 -645.82,-223.35 -32.9,-15.59 -41.56,-55.4 -39.81,-90.02 0,-316.84 0,-633.7 -1.72,-952.28 1.72,-25.97 0,-57.15 22.5,-74.46 24.24,-8.65 46.74,6.94 67.52,19.06 412.07,268.37 912.45,398.23 1404.16,372.26 157.55,-12.12 323.77,-46.74 450.17,-150.64 136.79,-109.08 185.25,-302.99 138.51,-467.47 -41.56,-141.98 -154.1,-247.59 -266.63,-334.15 -200.84,-154.1 -424.19,-273.56 -651.01,-384.36 -285.68,-147.16 -566.17,-315.11 -786.05,-550.58 -176.6,-185.26 -301.27,-420.73 -348.02,-673.51 -53.68,-287.4 -41.55,-590.4 60.59,-865.7 102.15,-273.56 290.87,-510.75 529.81,-675.26 280.49,-195.66 618.11,-294.33 955.72,-318.58z"/>
 </g>
</svg>
