<?xml version="1.0" encoding="UTF-8"?>
<!DOCTYPE svg PUBLIC "-//W3C//DTD SVG 1.1//EN" "http://www.w3.org/Graphics/SVG/1.1/DTD/svg11.dtd">
<!-- Creator: CorelDRAW 2019 (64-Bit) -->
<svg xmlns="http://www.w3.org/2000/svg" xml:space="preserve" width="210mm" height="297mm" version="1.1" style="shape-rendering:geometricPrecision; text-rendering:geometricPrecision; image-rendering:optimizeQuality; fill-rule:evenodd; clip-rule:evenodd"
viewBox="0 0 21000 29700"
 xmlns:xlink="http://www.w3.org/1999/xlink">
 <defs>
  <style type="text/css">
   <![CDATA[
    .fil1 {fill:#FEFEFE}
    .fil0 {fill:black}
   ]]>
  </style>
 </defs>
 <g id="Слой_x0020_1">
  <metadata id="CorelCorpID_0Corel-Layer"/>
  <g id="_1482898512">
   <path class="fil0" d="M-12835.98 8718.1c0,0 744.77,-1638.48 397.21,-2457.73 -347.56,-819.24 -844.07,-1166.8 -1439.88,-223.43 -620.64,968.2 -1663.31,3003.89 -1415.05,4121.04 248.26,1092.32 1166.8,1439.88 1911.56,2184.65 1092.32,1067.5 2110.17,2134.99 2581.85,3649.35 99.3,297.91 372.38,1191.62 496.51,1415.05 546.16,570.99 1861.91,99.3 2507.38,-74.48 595.81,-148.95 868.89,-223.43 1290.93,-620.64 1017.85,-968.2 2184.65,-1986.04 3227.32,-2904.59 347.56,-297.91 719.94,-595.81 1042.67,-918.54 0,0 496.51,-74.48 620.64,422.03 124.13,496.51 -74.48,546.16 -322.73,893.72 -223.43,347.56 -844.07,1911.56 -1017.85,2283.95 -198.6,372.38 -347.56,769.59 -99.3,918.54 273.08,148.95 297.91,695.11 1663.31,347.56 1390.23,-347.56 2780.46,-1489.53 3276.97,-2060.52 521.34,-570.99 2010.87,-1812.26 2656.33,-3003.89 645.46,-1216.45 223.43,-1663.31 0,-2134.99 -223.43,-496.51 -794.42,-595.81 -1415.05,-595.81 -620.64,0 -670.29,0 -670.29,0 0,0 -223.43,-620.64 695.11,-918.54 918.54,-273.08 2482.55,-446.86 2755.63,943.37 844.07,3897.61 -5709.87,9830.9 -7894.51,10277.76 -819.24,148.95 -1737.79,-74.48 -2184.65,-595.81 0,0 -3351.44,8341.37 -3972.08,9433.7 -99.3,148.95 -3301.79,6678.06 -3947.26,5263.01 -273.08,-595.81 -124.13,-1564.01 0,-1812.26 99.3,-223.43 1439.88,-4021.73 1439.88,-4021.73 -24.83,322.73 -496.51,3152.84 -322.73,3227.32 819.24,397.21 5362.31,-11295.61 5883.65,-12512.06l1191.62 -2780.46c-1216.45,1191.62 -2631.5,2333.6 -3996.91,3351.44 -620.64,446.86 -1390.23,918.54 -2134.99,1141.97 -74.48,4567.89 -2408.07,7671.08 -7224.22,8167.59 -496.51,49.65 -3152.84,273.08 -3152.84,-322.73 0,-695.11 1886.74,-2333.6 2557.03,-2830.11 695.11,-521.34 1737.79,-1340.58 2805.28,-2184.65 595.81,-496.51 1861.91,-1216.45 2606.68,-1861.91 893.72,-769.59 794.42,-695.11 1365.4,-1688.13 0,0 -248.26,0 -918.54,0 -670.29,0 -1514.36,-124.13 -1191.62,-794.42 422.03,-769.59 943.37,-1390.23 1588.83,-1986.04 148.95,-124.13 99.3,-24.83 0,-322.73 -496.51,-1464.71 -223.43,-1290.93 -1365.4,-2557.03 -422.03,-446.86 -1117.15,-943.37 -1539.18,-1415.05 -546.16,-620.64 -1241.28,-1191.62 -1539.18,-1837.09 -620.64,-1241.28 521.34,-4269.99 1092.32,-5461.61 1067.5,-2184.65 3475.57,-3872.78 3574.87,-297.91 24.83,1266.1 -471.68,2705.98 -1464.71,3152.84l0 0 -0.01 0zm893.72 13877.46c-769.59,695.11 -1588.83,1390.23 -2383.25,2035.69 -893.72,719.94 -1787.44,1415.05 -2705.98,2110.17 -372.38,273.08 -893.72,695.11 -1241.28,893.72 -1539.18,1067.5 -74.48,769.59 918.54,670.29 4865.8,-521.34 6181.55,-4145.86 6380.16,-5734.69 148.95,-1315.75 -322.73,-546.16 -968.2,24.83l0 0 0.01 -0.01z"/>
   <path class="fil0" d="M11219.94 14676.22c-546.16,670.29 -1117.15,1514.36 -1613.66,2184.65 -24.83,49.65 -49.65,74.48 -49.65,99.3 -372.38,521.34 -719.94,1067.5 -1067.5,1588.83 -24.83,49.65 -74.48,99.3 -99.3,173.78 -372.38,546.16 -744.77,1092.32 -1141.97,1613.66 -198.6,248.26 -744.77,1042.67 -1141.97,719.94 -446.86,-422.03 24.83,-1837.09 223.43,-2333.6 844.07,-2085.34 1663.31,-4170.69 2432.9,-6305.68 471.68,-1340.58 1017.85,-2656.33 1564.01,-3972.08 695.11,-1712.96 1439.88,-3401.1 2209.47,-5089.23 1117.15,-2482.55 2308.77,-4915.45 3450.75,-7398 173.78,-372.38 223.43,-645.46 695.11,-794.42 347.56,-74.48 670.29,24.83 868.89,347.56 198.6,347.56 248.26,496.51 -49.65,819.24 -372.38,422.03 -670.29,695.11 -943.37,1191.62l-24.83 49.65c-1415.05,2507.38 -2358.42,5287.83 -3823.13,7795.21 -322.73,546.16 -620.64,1092.32 -868.89,1663.31 -918.54,2035.69 -1638.48,4121.04 -2383.25,6206.38 -148.95,397.21 -993.02,2805.28 -968.2,3326.62 24.83,-24.83 49.65,-74.48 49.65,-74.48 297.91,-372.38 744.77,-819.24 1017.85,-1191.62 570.99,-769.59 2259.12,-3252.14 2854.93,-3252.14 719.94,-24.83 223.43,1315.75 148.95,1712.96 -124.13,595.81 -223.43,1191.62 -248.26,1812.26 0,397.21 -24.83,670.29 471.68,546.16 570.99,-148.95 1886.74,-1241.28 2358.42,-1688.13 496.51,-372.38 1117.15,-844.07 1638.48,-1166.8 943.37,-546.16 -223.43,645.46 -372.38,794.42 -173.78,198.6 -372.38,397.21 -546.16,620.64 -297.91,347.56 -570.99,719.94 -868.89,1067.5 -74.48,99.3 -173.78,198.6 -248.26,297.91l-24.83 24.83c-223.43,248.26 -446.86,471.68 -670.29,670.29l-49.65 49.65c-322.73,297.91 -670.29,595.81 -1017.85,868.89 -645.46,546.16 -1638.48,471.68 -1712.96,-446.86 -74.48,-893.72 -74.48,-1688.13 -49.65,-2532.2l0 0 0.03 -0.02z"/>
   <path class="fil0" d="M18195.91 12441.93c0,0 -570.99,893.72 -968.2,1812.26 -148.95,297.91 -223.43,744.77 -273.08,1216.45 -99.3,1365.4 173.78,3028.71 1017.85,2854.93 769.59,-173.78 2755.63,-1762.61 3301.79,-2656.33 -173.78,893.72 -1415.05,3326.62 223.43,3202.49 446.86,-24.83 4592.72,-5213.36 5163.71,-5958.12 49.65,844.07 223.43,2259.12 1266.1,2383.25 422.03,49.65 819.24,-248.26 1141.97,-471.68 1663.31,-1067.5 2656.33,-2234.3 4021.73,-3649.35 819.24,-844.07 1588.83,-1638.48 2383.25,-2457.73 273.08,-273.08 844.07,-719.94 794.42,-1117.15 -49.65,-273.08 -595.81,-223.43 -744.77,-124.13 -645.46,347.56 -1067.5,918.54 -1613.66,1390.23 -471.68,397.21 -1117.15,893.72 -1588.83,1290.93 -173.78,124.13 -1812.26,1390.23 -1886.74,1390.23 -322.73,24.83 -645.46,-124.13 -794.42,-645.46 -124.13,-422.03 819.24,-3053.54 968.2,-3699 -173.78,-372.38 -446.86,-422.03 -645.46,-124.13 -496.51,744.77 -968.2,1514.36 -1464.71,2259.12 -546.16,794.42 -1067.5,1489.53 -1712.96,2234.3 -993.02,1166.8 -1986.04,2308.77 -2979.06,3450.75 0,0 -744.77,223.43 -670.29,-297.91 0,-49.65 1762.61,-3525.22 2085.34,-4121.04 446.86,-844.07 1489.53,-2904.59 1216.45,-3798.3 -297.91,-1017.85 -968.2,-372.38 -1688.13,347.56 -943.37,968.2 -4170.69,4692.02 -3947.26,6107.08 24.83,173.78 248.26,-24.83 322.73,-99.3 918.54,-1141.97 1216.45,-1489.53 2010.87,-2631.5 670.29,-943.37 1266.1,-695.11 620.64,670.29 -422.03,943.37 -670.29,1415.05 -819.24,1564.01 -993.02,1241.28 -2432.9,2631.5 -3773.48,3500.4 -124.13,74.48 -471.68,297.91 -595.81,198.6 -769.59,-521.34 -446.86,-2656.33 -124.13,-3699 248.26,-744.77 -248.26,-322.73 -248.26,-322.73l0 0 0.01 -0.02z"/>
   <ellipse class="fil0" cx="35350.34" cy="898.06" rx="1315.75" ry="1365.4"/>
   <path class="fil0" d="M36393.01 7849.2c-49.65,819.24 -446.86,2134.99 -297.91,2904.59 223.43,1092.32 943.37,968.2 1663.31,372.38 1166.8,-993.02 2134.99,-2308.77 3276.97,-3351.44l124.13 -124.13 248.26 248.26 -99.3 124.13c-496.51,769.59 -993.02,1539.18 -1514.36,2283.95 -273.08,397.21 -570.99,794.42 -844.07,1191.62 -198.6,273.08 -422.03,595.81 -645.46,844.07 -645.46,719.94 -1216.45,1266.1 -2209.47,1191.62 -297.91,-24.83 -570.99,-124.13 -794.42,-322.73 -794.42,-769.59 -521.34,-2457.73 -223.43,-3425.92 198.6,-695.11 546.16,-1489.53 993.02,-2060.52l148.95 -198.6 173.78 322.73 0 0 0 -0.01z"/>
   <ellipse class="fil0" cx="17401.49" cy="5863.16" rx="1315.75" ry="1365.4"/>
   <path class="fil0" d="M35201.39 7849.2l521.34 -297.91c0,0 744.77,-347.56 695.11,173.78 -74.48,546.16 -570.99,446.86 -620.64,521.34 -24.83,99.3 -570.99,24.83 -570.99,24.83l-24.83 -422.03 0 0 0.01 -0.01z"/>
  </g>
  <g id="_1482897104">
   <path class="fil1" d="M60078.02 8718.1c0,0 744.77,-1638.48 397.21,-2457.73 -347.56,-819.24 -844.07,-1166.8 -1439.88,-223.43 -620.64,968.2 -1663.31,3003.89 -1415.05,4121.04 248.26,1092.32 1166.8,1439.88 1911.56,2184.65 1092.32,1067.5 2110.17,2134.99 2581.85,3649.35 99.3,297.91 372.38,1191.62 496.51,1415.05 546.16,570.99 1861.91,99.3 2507.38,-74.48 595.81,-148.95 868.89,-223.43 1290.93,-620.64 1017.85,-968.2 2184.65,-1986.04 3227.32,-2904.59 347.56,-297.91 719.94,-595.81 1042.67,-918.54 0,0 496.51,-74.48 620.64,422.03 124.13,496.51 -74.48,546.16 -322.73,893.72 -223.43,347.56 -844.07,1911.56 -1017.85,2283.95 -198.6,372.38 -347.56,769.59 -99.3,918.54 273.08,148.95 297.91,695.11 1663.31,347.56 1390.23,-347.56 2780.46,-1489.53 3276.97,-2060.52 521.34,-570.99 2010.87,-1812.26 2656.33,-3003.89 645.46,-1216.45 223.43,-1663.31 0,-2134.99 -223.43,-496.51 -794.42,-595.81 -1415.05,-595.81 -620.64,0 -670.29,0 -670.29,0 0,0 -223.43,-620.64 695.11,-918.54 918.54,-273.08 2482.55,-446.86 2755.63,943.37 844.07,3897.61 -5709.87,9830.9 -7894.51,10277.76 -819.24,148.95 -1737.79,-74.48 -2184.65,-595.81 0,0 -3351.44,8341.37 -3972.08,9433.7 -99.3,148.95 -3301.79,6678.06 -3947.26,5263.01 -273.08,-595.81 -124.13,-1564.01 0,-1812.26 99.3,-223.43 1439.88,-4021.73 1439.88,-4021.73 -24.83,322.73 -496.51,3152.84 -322.73,3227.32 819.24,397.21 5362.31,-11295.61 5883.65,-12512.06l1191.62 -2780.46c-1216.45,1191.62 -2631.5,2333.6 -3996.91,3351.44 -620.64,446.86 -1390.23,918.54 -2134.99,1141.97 -74.48,4567.89 -2408.07,7671.08 -7224.22,8167.59 -496.51,49.65 -3152.84,273.08 -3152.84,-322.73 0,-695.11 1886.74,-2333.6 2557.03,-2830.11 695.11,-521.34 1737.79,-1340.58 2805.28,-2184.65 595.81,-496.51 1861.91,-1216.45 2606.68,-1861.91 893.72,-769.59 794.42,-695.11 1365.4,-1688.13 0,0 -248.26,0 -918.54,0 -670.29,0 -1514.36,-124.13 -1191.62,-794.42 422.03,-769.59 943.37,-1390.23 1588.83,-1986.04 148.95,-124.13 99.3,-24.83 0,-322.73 -496.51,-1464.71 -223.43,-1290.93 -1365.4,-2557.03 -422.03,-446.86 -1117.15,-943.37 -1539.18,-1415.05 -546.16,-620.64 -1241.28,-1191.62 -1539.18,-1837.09 -620.64,-1241.28 521.34,-4269.99 1092.32,-5461.61 1067.5,-2184.65 3475.57,-3872.78 3574.87,-297.91 24.83,1266.1 -471.68,2705.98 -1464.71,3152.84l0 0 -0.01 0zm893.72 13877.46c-769.59,695.11 -1588.83,1390.23 -2383.25,2035.69 -893.72,719.94 -1787.44,1415.05 -2705.98,2110.17 -372.38,273.08 -893.72,695.11 -1241.28,893.72 -1539.18,1067.5 -74.48,769.59 918.54,670.29 4865.8,-521.34 6181.55,-4145.86 6380.16,-5734.69 148.95,-1315.75 -322.73,-546.16 -968.2,24.83l0 0 0.01 -0.01z"/>
   <path class="fil1" d="M84133.94 14676.22c-546.16,670.29 -1117.15,1514.36 -1613.66,2184.65 -24.83,49.65 -49.65,74.48 -49.65,99.3 -372.38,521.34 -719.94,1067.5 -1067.5,1588.83 -24.83,49.65 -74.48,99.3 -99.3,173.78 -372.38,546.16 -744.77,1092.32 -1141.97,1613.66 -198.6,248.26 -744.77,1042.67 -1141.97,719.94 -446.86,-422.03 24.83,-1837.09 223.43,-2333.6 844.07,-2085.34 1663.31,-4170.69 2432.9,-6305.68 471.68,-1340.58 1017.85,-2656.33 1564.01,-3972.08 695.11,-1712.96 1439.88,-3401.1 2209.47,-5089.23 1117.15,-2482.55 2308.77,-4915.45 3450.75,-7398 173.78,-372.38 223.43,-645.46 695.11,-794.42 347.56,-74.48 670.29,24.83 868.89,347.56 198.6,347.56 248.26,496.51 -49.65,819.24 -372.38,422.03 -670.29,695.11 -943.37,1191.62l-24.83 49.65c-1415.05,2507.38 -2358.42,5287.83 -3823.13,7795.21 -322.73,546.16 -620.64,1092.32 -868.89,1663.31 -918.54,2035.69 -1638.48,4121.04 -2383.25,6206.38 -148.95,397.21 -993.02,2805.28 -968.2,3326.62 24.83,-24.83 49.65,-74.48 49.65,-74.48 297.91,-372.38 744.77,-819.24 1017.85,-1191.62 570.99,-769.59 2259.12,-3252.14 2854.93,-3252.14 719.94,-24.83 223.43,1315.75 148.95,1712.96 -124.13,595.81 -223.43,1191.62 -248.26,1812.26 0,397.21 -24.83,670.29 471.68,546.16 570.99,-148.95 1886.74,-1241.28 2358.42,-1688.13 496.51,-372.38 1117.15,-844.07 1638.48,-1166.8 943.37,-546.16 -223.43,645.46 -372.38,794.42 -173.78,198.6 -372.38,397.21 -546.16,620.64 -297.91,347.56 -570.99,719.94 -868.89,1067.5 -74.48,99.3 -173.78,198.6 -248.26,297.91l-24.83 24.83c-223.43,248.26 -446.86,471.68 -670.29,670.29l-49.65 49.65c-322.73,297.91 -670.29,595.81 -1017.85,868.89 -645.46,546.16 -1638.48,471.68 -1712.96,-446.86 -74.48,-893.72 -74.48,-1688.13 -49.65,-2532.2l0 0 0.03 -0.02z"/>
   <path class="fil1" d="M91109.91 12441.93c0,0 -570.99,893.72 -968.2,1812.26 -148.95,297.91 -223.43,744.77 -273.08,1216.45 -99.3,1365.4 173.78,3028.71 1017.85,2854.93 769.59,-173.78 2755.63,-1762.61 3301.79,-2656.33 -173.78,893.72 -1415.05,3326.62 223.43,3202.49 446.86,-24.83 4592.72,-5213.36 5163.71,-5958.12 49.65,844.07 223.43,2259.12 1266.1,2383.25 422.03,49.65 819.24,-248.26 1141.97,-471.68 1663.31,-1067.5 2656.33,-2234.3 4021.73,-3649.35 819.24,-844.07 1588.83,-1638.48 2383.25,-2457.73 273.08,-273.08 844.07,-719.94 794.42,-1117.15 -49.65,-273.08 -595.81,-223.43 -744.77,-124.13 -645.46,347.56 -1067.5,918.54 -1613.66,1390.23 -471.68,397.21 -1117.15,893.72 -1588.83,1290.93 -173.78,124.13 -1812.26,1390.23 -1886.74,1390.23 -322.73,24.83 -645.46,-124.13 -794.42,-645.46 -124.13,-422.03 819.24,-3053.54 968.2,-3699 -173.78,-372.38 -446.86,-422.03 -645.46,-124.13 -496.51,744.77 -968.2,1514.36 -1464.71,2259.12 -546.16,794.42 -1067.5,1489.53 -1712.96,2234.3 -993.02,1166.8 -1986.04,2308.77 -2979.06,3450.75 0,0 -744.77,223.43 -670.29,-297.91 0,-49.65 1762.61,-3525.22 2085.34,-4121.04 446.86,-844.07 1489.53,-2904.59 1216.45,-3798.3 -297.91,-1017.85 -968.2,-372.38 -1688.13,347.56 -943.37,968.2 -4170.69,4692.02 -3947.26,6107.08 24.83,173.78 248.26,-24.83 322.73,-99.3 918.54,-1141.97 1216.45,-1489.53 2010.87,-2631.5 670.29,-943.37 1266.1,-695.11 620.64,670.29 -422.03,943.37 -670.29,1415.05 -819.24,1564.01 -993.02,1241.28 -2432.9,2631.5 -3773.48,3500.4 -124.13,74.48 -471.68,297.91 -595.81,198.6 -769.59,-521.34 -446.86,-2656.33 -124.13,-3699 248.26,-744.77 -248.26,-322.73 -248.26,-322.73l0 0 0.01 -0.02z"/>
   <ellipse class="fil1" cx="108264.34" cy="898.06" rx="1315.75" ry="1365.4"/>
   <path class="fil1" d="M109307.01 7849.2c-49.65,819.24 -446.86,2134.99 -297.91,2904.59 223.43,1092.32 943.37,968.2 1663.31,372.38 1166.8,-993.02 2134.99,-2308.77 3276.97,-3351.44l124.13 -124.13 248.26 248.26 -99.3 124.13c-496.51,769.59 -993.02,1539.18 -1514.36,2283.95 -273.08,397.21 -570.99,794.42 -844.07,1191.62 -198.6,273.08 -422.03,595.81 -645.46,844.07 -645.46,719.94 -1216.45,1266.1 -2209.47,1191.62 -297.91,-24.83 -570.99,-124.13 -794.42,-322.73 -794.42,-769.59 -521.34,-2457.73 -223.43,-3425.92 198.6,-695.11 546.16,-1489.53 993.02,-2060.52l148.95 -198.6 173.78 322.73 0 0 0 -0.01z"/>
   <ellipse class="fil1" cx="90315.49" cy="5863.16" rx="1315.75" ry="1365.4"/>
   <path class="fil1" d="M108115.39 7849.2l521.34 -297.91c0,0 744.77,-347.56 695.11,173.78 -74.48,546.16 -570.99,446.86 -620.64,521.34 -24.83,99.3 -570.99,24.83 -570.99,24.83l-24.83 -422.03 0 0 0.01 -0.01z"/>
  </g>
 </g>
</svg>
