<?xml version="1.0" encoding="UTF-8"?>
<!DOCTYPE svg PUBLIC "-//W3C//DTD SVG 1.1//EN" "http://www.w3.org/Graphics/SVG/1.1/DTD/svg11.dtd">
<!-- Creator: CorelDRAW X7 -->
<svg xmlns="http://www.w3.org/2000/svg" xml:space="preserve" width="2337px" height="1490px" version="1.1" style="shape-rendering:geometricPrecision; text-rendering:geometricPrecision; image-rendering:optimizeQuality; fill-rule:evenodd; clip-rule:evenodd"
viewBox="0 0 2490 1588"
 xmlns:xlink="http://www.w3.org/1999/xlink">
 <defs>
  <style type="text/css">
   <![CDATA[
    .fil5 {fill:black}
   ]]>
  </style>
 </defs>
 <g id="Слой_x0020_1">
  <metadata id="CorelCorpID_0Corel-Layer"/>
  <path class="fil5" d="M305 547c0,0 30,-66 16,-99 -14,-33 -34,-47 -58,-9 -25,39 -67,121 -57,166 10,44 47,58 77,88 44,43 85,86 104,147 4,12 15,48 20,57 22,23 75,4 101,-3 24,-6 35,-9 52,-25 41,-39 88,-80 130,-117 14,-12 29,-24 42,-37 0,0 20,-3 25,17 5,20 -3,22 -13,36 -9,14 -34,77 -41,92 -8,15 -14,31 -4,37 11,6 12,28 67,14 56,-14 112,-60 132,-83 21,-23 81,-73 107,-121 26,-49 9,-67 0,-86 -9,-20 -32,-24 -57,-24 -25,0 -27,0 -27,0 0,0 -9,-25 28,-37 37,-11 100,-18 111,38 34,157 -230,396 -318,414 -33,6 -70,-3 -88,-24 0,0 -135,336 -160,380 -4,6 -133,269 -159,212 -11,-24 -5,-63 0,-73 4,-9 58,-162 58,-162 -1,13 -20,127 -13,130 33,16 216,-455 237,-504l48 -112c-49,48 -106,94 -161,135 -25,18 -56,37 -86,46 -3,184 -97,309 -291,329 -20,2 -127,11 -127,-13 0,-28 76,-94 103,-114 28,-21 70,-54 113,-88 24,-20 75,-49 105,-75 36,-31 32,-28 55,-68 0,0 -10,0 -37,0 -27,0 -61,-5 -48,-32 17,-31 38,-56 64,-80 6,-5 4,-1 0,-13 -20,-59 -9,-52 -55,-103 -17,-18 -45,-38 -62,-57 -22,-25 -50,-48 -62,-74 -25,-50 21,-172 44,-220 43,-88 140,-156 144,-12 1,51 -19,109 -59,127l0 0zm36 559c-31,28 -64,56 -96,82 -36,29 -72,57 -109,85 -15,11 -36,28 -50,36 -62,43 -3,31 37,27 196,-21 249,-167 257,-231 6,-53 -13,-22 -39,1l0 0z"/>
  <path class="fil5" d="M1274 787c-22,27 -45,61 -65,88 -1,2 -2,3 -2,4 -15,21 -29,43 -43,64 -1,2 -3,4 -4,7 -15,22 -30,44 -46,65 -8,10 -30,42 -46,29 -18,-17 1,-74 9,-94 34,-84 67,-168 98,-254 19,-54 41,-107 63,-160 28,-69 58,-137 89,-205 45,-100 93,-198 139,-298 7,-15 9,-26 28,-32 14,-3 27,1 35,14 8,14 10,20 -2,33 -15,17 -27,28 -38,48l-1 2c-57,101 -95,213 -154,314 -13,22 -25,44 -35,67 -37,82 -66,166 -96,250 -6,16 -40,113 -39,134 1,-1 2,-3 2,-3 12,-15 30,-33 41,-48 23,-31 91,-131 115,-131 29,-1 9,53 6,69 -5,24 -9,48 -10,73 0,16 -1,27 19,22 23,-6 76,-50 95,-68 20,-15 45,-34 66,-47 38,-22 -9,26 -15,32 -7,8 -15,16 -22,25 -12,14 -23,29 -35,43 -3,4 -7,8 -10,12l-1 1c-9,10 -18,19 -27,27l-2 2c-13,12 -27,24 -41,35 -26,22 -66,19 -69,-18 -3,-36 -3,-68 -2,-102l0 0z"/>
  <path class="fil5" d="M1555 697c0,0 -23,36 -39,73 -6,12 -9,30 -11,49 -4,55 7,122 41,115 31,-7 111,-71 133,-107 -7,36 -57,134 9,129 18,-1 185,-210 208,-240 2,34 9,91 51,96 17,2 33,-10 46,-19 67,-43 107,-90 162,-147 33,-34 64,-66 96,-99 11,-11 34,-29 32,-45 -2,-11 -24,-9 -30,-5 -26,14 -43,37 -65,56 -19,16 -45,36 -64,52 -7,5 -73,56 -76,56 -13,1 -26,-5 -32,-26 -5,-17 33,-123 39,-149 -7,-15 -18,-17 -26,-5 -20,30 -39,61 -59,91 -22,32 -43,60 -69,90 -40,47 -80,93 -120,139 0,0 -30,9 -27,-12 0,-2 71,-142 84,-166 18,-34 60,-117 49,-153 -12,-41 -39,-15 -68,14 -38,39 -168,189 -159,246 1,7 10,-1 13,-4 37,-46 49,-60 81,-106 27,-38 51,-28 25,27 -17,38 -27,57 -33,63 -40,50 -98,106 -152,141 -5,3 -19,12 -24,8 -31,-21 -18,-107 -5,-149 10,-30 -10,-13 -10,-13l0 0z"/>
  <ellipse class="fil5" cx="2246" cy="232" rx="53" ry="55"/>
  <path class="fil5" d="M2288 512c-2,33 -18,86 -12,117 9,44 38,39 67,15 47,-40 86,-93 132,-135l5 -5 10 10 -4 5c-20,31 -40,62 -61,92 -11,16 -23,32 -34,48 -8,11 -17,24 -26,34 -26,29 -49,51 -89,48 -12,-1 -23,-5 -32,-13 -32,-31 -21,-99 -9,-138 8,-28 22,-60 40,-83l6 -8 7 13 0 0z"/>
  <ellipse class="fil5" cx="1523" cy="432" rx="53" ry="55"/>
  <path class="fil5" d="M2240 512l21 -12c0,0 30,-14 28,7 -3,22 -23,18 -25,21 -1,4 -23,1 -23,1l-1 -17 0 0z"/>
 </g>
</svg>
