<?xml version="1.0" encoding="UTF-8"?>
<!DOCTYPE svg PUBLIC "-//W3C//DTD SVG 1.1//EN" "http://www.w3.org/Graphics/SVG/1.1/DTD/svg11.dtd">
<!-- Creator: CorelDRAW X7 -->
<svg xmlns="http://www.w3.org/2000/svg" xml:space="preserve" width="8399px" height="7966px" version="1.1" style="shape-rendering:geometricPrecision; text-rendering:geometricPrecision; image-rendering:optimizeQuality; fill-rule:evenodd; clip-rule:evenodd"
viewBox="0 0 8399 7966"
 xmlns:xlink="http://www.w3.org/1999/xlink">
 <defs>
  <style type="text/css">
   <![CDATA[
    .fil2 {fill:#FEFEFE}
    .fil1 {fill:black}
    .fil0 {fill:#E31E24}
   ]]>
  </style>
 </defs>
 <g id="Слой_x0020_1">
  <metadata id="CorelCorpID_0Corel-Layer"/>
  <g id="_2217075014384">
   <g>
    <g>
     <path class="fil0" d="M2411 1150c-159,-160 -385,-265 -629,-265 -247,0 -472,99 -632,265 -160,160 -265,385 -265,632 0,244 105,470 265,629 160,163 385,265 632,265 244,0 470,-99 629,-265 163,-159 265,-385 265,-629 0,-247 -99,-472 -265,-632zm-168 1093c-118,117 -283,189 -461,189 -180,0 -346,-72 -463,-189 -118,-118 -187,-283 -187,-461 0,-180 69,-346 187,-463 117,-118 283,-187 463,-187 178,0 343,69 461,187 117,117 189,283 189,463 0,178 -72,343 -189,461z"/>
    </g>
   </g>
   <g>
    <g>
     <path class="fil0" d="M3441 1659l-364 0c-67,0 -124,57 -124,123 0,66 57,121 124,121l364 0c63,0 120,-55 120,-121 0,-66 -57,-123 -120,-123z"/>
    </g>
   </g>
   <g>
    <g>
     <path class="fil0" d="M1782 2953c-66,0 -123,57 -123,124l0 364c0,63 57,120 123,120 66,0 121,-57 121,-120l0 -364c0,-67 -55,-124 -121,-124z"/>
    </g>
   </g>
   <g>
    <g>
     <path class="fil0" d="M3040 2869l-261 -259c-43,-48 -121,-48 -169,0 -48,48 -48,123 0,169l259 261c48,46 123,46 171,0 46,-48 46,-123 0,-171z"/>
    </g>
   </g>
   <g>
    <g>
     <path class="fil0" d="M1782 0c-66,0 -123,57 -123,123l0 362c0,66 57,123 123,123 66,0 121,-57 121,-123l0 -362c0,-66 -55,-123 -121,-123z"/>
    </g>
   </g>
   <g>
    <g>
     <path class="fil0" d="M3044 524c-49,-48 -124,-48 -169,0l-259 259c-48,45 -48,123 0,168 42,48 120,48 169,0l259 -259c48,-48 48,-123 0,-168z"/>
    </g>
   </g>
   <g>
    <g>
     <path class="fil0" d="M485 1659l-362 0c-66,0 -123,57 -123,123 0,66 51,121 123,121l362 0c66,0 123,-55 123,-121 0,-66 -57,-123 -123,-123z"/>
    </g>
   </g>
   <g>
    <g>
     <path class="fil0" d="M948 2610c-42,-48 -123,-48 -171,0l-259 259c-45,48 -45,123 0,171 48,46 123,46 171,0l259 -261c45,-46 45,-121 0,-169z"/>
    </g>
   </g>
   <g>
    <g>
     <path class="fil0" d="M948 783l-259 -259c-48,-48 -123,-48 -171,0 -45,45 -45,120 0,168l259 259c48,48 123,48 171,0 45,-45 45,-123 0,-168z"/>
    </g>
   </g>
  </g>
  <path class="fil1" d="M8372 2264c27,27 36,69 18,105 -163,349 -449,623 -804,771 -376,153 -795,153 -1171,-3 -373,-157 -668,-455 -822,-828 -156,-376 -153,-795 3,-1171 157,-373 452,-668 828,-825 24,-9 54,-9 78,3 49,24 67,78 46,127 -160,340 -166,731 -24,1077 135,328 394,584 722,723 328,135 692,135 1024,0 36,-15 75,-6 102,21l0 0zm-271 232c-111,24 -226,36 -340,36 -846,0 -1529,-684 -1529,-1527 0,-138 18,-273 54,-406 -383,244 -617,668 -617,1129 0,738 599,1337 1336,1337 437,0 846,-214 1096,-569l0 0z"/>
  <path class="fil1" d="M3923 2763l784 -2038c96,-249 217,-435 270,-415l0 0c53,21 18,240 -78,489l-784 2038c-96,249 -217,435 -270,415l0 0c-53,-21 -18,-240 78,-489z"/>
  <g id="_2217074952560">
   <g>
    <g>
     <path class="fil2" d="M2411 5554c-159,-159 -385,-265 -629,-265 -247,0 -472,100 -632,265 -160,160 -265,386 -265,629 0,247 105,473 265,633 160,159 385,264 632,264 244,0 470,-99 629,-264 163,-160 265,-386 265,-633 0,-243 -99,-469 -265,-629zm-168 1093c-118,117 -283,187 -461,187 -180,0 -346,-70 -463,-187 -118,-117 -187,-283 -187,-464 0,-177 69,-343 187,-460 117,-118 283,-190 463,-190 178,0 343,72 461,190 117,117 189,283 189,460 0,181 -72,347 -189,464z"/>
    </g>
   </g>
   <g>
    <g>
     <path class="fil2" d="M3441 6063l-364 0c-67,0 -124,57 -124,120 0,67 57,124 124,124l364 0c63,0 120,-57 120,-124 0,-63 -57,-120 -120,-120z"/>
    </g>
   </g>
   <g>
    <g>
     <path class="fil2" d="M1782 7357c-66,0 -123,58 -123,124l0 361c0,66 57,124 123,124 66,0 121,-58 121,-124l0 -361c0,-66 -55,-124 -121,-124z"/>
    </g>
   </g>
   <g>
    <g>
     <path class="fil2" d="M3040 7273l-261 -259c-43,-48 -121,-48 -169,0 -48,48 -48,124 0,169l259 259c48,48 123,48 171,0 46,-45 46,-121 0,-169z"/>
    </g>
   </g>
   <g>
    <g>
     <path class="fil2" d="M1782 4404c-66,0 -123,57 -123,124l0 361c0,66 57,123 123,123 66,0 121,-57 121,-123l0 -361c0,-67 -55,-124 -121,-124z"/>
    </g>
   </g>
   <g>
    <g>
     <path class="fil2" d="M3044 4928c-49,-48 -124,-48 -169,0l-259 259c-48,45 -48,120 0,168 42,49 120,49 169,0l259 -258c48,-49 48,-124 0,-169z"/>
    </g>
   </g>
   <g>
    <g>
     <path class="fil2" d="M485 6063l-362 0c-66,0 -123,57 -123,120 0,67 51,124 123,124l362 0c66,0 123,-57 123,-124 0,-63 -57,-120 -123,-120z"/>
    </g>
   </g>
   <g>
    <g>
     <path class="fil2" d="M948 7014c-42,-48 -123,-48 -171,0l-259 259c-45,48 -45,124 0,169 48,48 123,48 171,0l259 -259c45,-45 45,-121 0,-169z"/>
    </g>
   </g>
   <g>
    <g>
     <path class="fil2" d="M948 5187l-259 -259c-48,-48 -123,-48 -171,0 -45,45 -45,120 0,169l259 258c48,49 123,49 171,0 45,-48 45,-123 0,-168z"/>
    </g>
   </g>
  </g>
  <path class="fil0" d="M8372 6668c27,27 36,69 18,105 -163,350 -449,624 -804,771 -376,154 -795,154 -1171,-3 -373,-157 -668,-455 -822,-831 -156,-373 -153,-792 3,-1168 157,-373 452,-668 828,-825 24,-9 54,-9 78,3 49,21 67,79 46,127 -160,340 -166,731 -24,1074 135,329 394,587 722,723 328,138 692,138 1024,3 36,-15 75,-9 102,21l0 0zm-271 229c-111,27 -226,39 -340,39 -846,0 -1529,-683 -1529,-1526 0,-139 18,-274 54,-407 -383,244 -617,669 -617,1129 0,738 599,1337 1336,1337 437,0 846,-217 1096,-572l0 0z"/>
  <path class="fil2" d="M3923 7167l784 -2038c96,-249 217,-435 270,-415l0 0c53,21 18,240 -78,489l-784 2037c-96,250 -217,436 -270,415l0 0c-53,-20 -18,-239 78,-488z"/>
 </g>
</svg>
