<?xml version="1.0" encoding="UTF-8"?>
<!DOCTYPE svg PUBLIC "-//W3C//DTD SVG 1.0//EN" "http://www.w3.org/TR/2001/REC-SVG-20010904/DTD/svg10.dtd">
<!-- Creator: CorelDRAW -->
<svg xmlns="http://www.w3.org/2000/svg" xml:space="preserve" width="181.187mm" height="181.187mm" version="1.0" style="shape-rendering:geometricPrecision; text-rendering:geometricPrecision; image-rendering:optimizeQuality; fill-rule:evenodd; clip-rule:evenodd"
viewBox="0 0 18119 18119"
 xmlns:xlink="http://www.w3.org/1999/xlink"
 xmlns:xodm="http://www.corel.com/coreldraw/odm/2003">
 <defs>
  <style type="text/css">
   <![CDATA[
    .fil0 {fill:#FEFEFE}
   ]]>
  </style>
 </defs>
 <g id="Слой_x0020_1">
  <metadata id="CorelCorpID_0Corel-Layer"/>
  <path class="fil0" d="M3690 0l10739 0c2029,0 3690,1660 3690,3690l0 8778 0 1962c0,2029 -1660,3690 -3690,3690l-1958 0 -2822 0 -2979 0 -2979 0c-2029,0 -3690,-1660 -3690,-3690l0 -10739c0,-2029 1660,-3690 3690,-3690l0 0zm6395 10414c553,-145 1016,282 1387,632 89,84 151,176 236,260 88,87 185,165 276,263 171,184 329,406 524,554 271,205 409,204 824,202 293,-1 746,27 1021,-11 1289,-176 -1538,-2637 -1649,-2878 -121,-262 172,-573 283,-722 252,-340 1589,-2226 1444,-2736 -149,-227 -465,-173 -766,-173 -1589,3 -1070,-87 -1756,1126 -317,560 -1156,2063 -1749,2026 -316,-134 -35,-2473 -175,-2935 -89,-297 -497,-217 -839,-217 -345,0 -691,1 -1036,0 -286,-1 -756,-48 -686,336 19,106 145,236 195,301 89,116 141,211 192,347 146,388 92,1508 93,1981 1,303 73,793 -308,684 -559,-159 -1425,-1913 -1676,-2473 -113,-252 -188,-492 -291,-745 -137,-338 -236,-427 -668,-432 -1497,-17 -2055,-307 -950,2048 471,1003 999,1772 1589,2558 493,657 1360,1384 2419,1728 422,137 1356,294 1778,102 424,-194 97,-1313 290,-1825z"/>
 </g>
</svg>
