<?xml version="1.0" encoding="UTF-8"?>
<!DOCTYPE svg PUBLIC "-//W3C//DTD SVG 1.1//EN" "http://www.w3.org/Graphics/SVG/1.1/DTD/svg11.dtd">
<!-- Creator: CorelDRAW 2018 (64-Bit) -->
<svg xmlns="http://www.w3.org/2000/svg" xml:space="preserve" width="181.187mm" height="181.187mm" version="1.1" style="shape-rendering:geometricPrecision; text-rendering:geometricPrecision; image-rendering:optimizeQuality; fill-rule:evenodd; clip-rule:evenodd"
viewBox="0 0 18325 18325"
 xmlns:xlink="http://www.w3.org/1999/xlink">
 <defs>
  <style type="text/css">
   <![CDATA[
    .fil0 {fill:#FEFEFE}
   ]]>
  </style>
 </defs>
 <g id="Слой_x0020_1">
  <metadata id="CorelCorpID_0Corel-Layer"/>
  <path class="fil0" d="M3731.68 0l10861.65 0c2052.42,0 3731.68,1679.26 3731.68,3731.68l0 8877.56 0 1984.09c0,2052.42 -1679.26,3731.68 -3731.68,3731.68l-1980.63 0 -2854.36 0 -3013.33 0 -3013.34 0c-2052.42,0 -3731.68,-1679.26 -3731.68,-3731.68l0 -10861.65c0,-2052.42 1679.26,-3731.68 3731.68,-3731.68zm6468 10533.03c559.79,-146.61 1027.25,285.53 1403.02,639.2 90.35,85.03 152.74,177.6 239,262.75 88.95,87.81 187.01,166.92 278.78,265.54 172.78,185.65 332.37,410.99 530.26,560.7 273.74,207.08 413.88,205.88 833.79,204.66 296.74,-0.86 754.97,26.99 1032.4,-10.85 1303.53,-177.81 -1555.07,-2667.14 -1668.07,-2911.26 -122.65,-264.97 173.6,-579.13 285.74,-730.53 254.73,-343.9 1607.26,-2251.21 1460.23,-2767.62 -150.25,-230.02 -470.53,-175.17 -774.75,-174.55 -1606.77,3.29 -1082.5,-87.79 -1775.83,1139.09 -320.37,566.86 -1169.59,2086.79 -1769.08,2048.88 -319.52,-135.81 -35.69,-2501.4 -176.49,-2968.4 -90.48,-300.12 -502.46,-219.68 -848.61,-219.49 -349.33,0.18 -698.88,1.09 -1048.17,-0.16 -289.28,-1.03 -764.98,-48.06 -693.73,340.1 19.68,107.23 146.28,238.81 196.74,304.62 90.08,117.52 142.4,213.05 194.29,350.86 147.95,392.91 92.93,1525.61 93.81,2003.23 0.56,306.25 73.76,801.89 -311.1,692.11 -565.26,-161.23 -1441.16,-1934.48 -1695.46,-2501.63 -114.28,-254.85 -190.59,-497.56 -294.56,-753.2 -139.02,-341.79 -238.7,-432.29 -675.6,-437.12 -1514.36,-16.77 -2078.33,-310.78 -960.6,2070.97 476.03,1014.36 1010.71,1792.42 1606.7,2587.01 498.72,664.89 1375.23,1399.75 2446.13,1747.87 427.04,138.81 1371.94,297.25 1797.79,102.91 429.17,-195.85 98.45,-1328.31 293.38,-1845.69z"/>
 </g>
</svg>
