<?xml version="1.0" encoding="UTF-8"?>
<!DOCTYPE svg PUBLIC "-//W3C//DTD SVG 1.1//EN" "http://www.w3.org/Graphics/SVG/1.1/DTD/svg11.dtd">
<!-- Creator: CorelDRAW X7 -->
<svg xmlns="http://www.w3.org/2000/svg" xml:space="preserve" width="452px" height="362px" version="1.1" style="shape-rendering:geometricPrecision; text-rendering:geometricPrecision; image-rendering:optimizeQuality; fill-rule:evenodd; clip-rule:evenodd"
viewBox="0 0 8946 7164"
 xmlns:xlink="http://www.w3.org/1999/xlink">
 <defs>
  <style type="text/css">
   <![CDATA[
    .fil0 {fill:#FEFEFE}
   ]]>
  </style>
 </defs>
 <g id="Слой_x0020_1">
  <metadata id="CorelCorpID_0Corel-Layer"/>
  <g id="_2341025568">
   <path class="fil0" d="M8815 5779c-72,0 -131,59 -131,131l0 861c0,72 -59,131 -131,131l-8160 0c-72,0 -131,-59 -131,-131l0 -3982c0,-73 -59,-131 -131,-131 -72,0 -131,58 -131,131l0 3982c0,217 176,393 393,393l8160 0c217,0 393,-176 393,-393l0 -861c0,-72 -59,-131 -131,-131z"/>
   <path class="fil0" d="M262 1309l0 -916c0,-72 59,-131 131,-131l8160 0c72,0 131,59 131,131l0 916c0,0 -8422,0 -8422,0zm8291 -1309l-8160 0c-217,0 -393,176 -393,393l0 1047 0 825c0,72 59,131 131,131 72,0 131,-59 131,-131l0 -694 8422 0 0 3815c0,72 59,131 131,131 72,0 131,-59 131,-131l0 -3946 0 -1047c0,-217 -176,-393 -393,-393z"/>
   <path class="fil0" d="M927 553c-121,0 -220,99 -220,220 0,121 99,219 220,219 121,0 219,-98 219,-219 0,-121 -98,-220 -219,-220z"/>
   <path class="fil0" d="M1584 553c-122,0 -220,99 -220,220 0,121 98,219 220,219 121,0 219,-98 219,-219 0,-121 -98,-220 -219,-220z"/>
   <path class="fil0" d="M2240 553c-121,0 -219,99 -219,220 0,121 98,219 219,219 122,0 220,-98 220,-219 0,-121 -98,-220 -220,-220z"/>
   <path class="fil0" d="M2146 3860l1000 892 210 188 -2210 0 0 -187 1000 -893zm1349 -168l1161 1036 0 212 -907 0 -826 -738 572 -510zm1292 -1362l-3772 0c-72,0 -131,59 -131,131l0 2233 0 377c0,72 59,131 131,131l2684 0 1088 0c72,0 131,-59 131,-131l0 -402 0 -921c0,-72 -59,-131 -131,-131 -72,0 -131,59 -131,131l0 629 -1074 -958c-49,-45 -124,-45 -174,0l-682 608 -492 -440c-50,-44 -125,-44 -175,0l-913 815 0 -1810 3510 0 0 632c0,72 59,131 131,131 72,0 131,-59 131,-131l0 -763c0,-72 -59,-131 -131,-131z"/>
   <path class="fil0" d="M2904 3084c0,93 -75,168 -168,168 -92,0 -167,-75 -167,-168 0,-92 75,-167 167,-167 93,0 168,75 168,167zm-597 0c0,237 193,430 429,430 237,0 430,-193 430,-430 0,-236 -193,-429 -430,-429 -236,0 -429,193 -429,429z"/>
   <path class="fil0" d="M5554 2592l2330 0c72,0 131,-59 131,-131 0,-72 -59,-131 -131,-131l-2330 0c-72,0 -131,59 -131,131 0,72 59,131 131,131z"/>
   <path class="fil0" d="M5554 3472l2330 0c72,0 131,-59 131,-131 0,-73 -59,-131 -131,-131l-2330 0c-72,0 -131,58 -131,131 0,72 59,131 131,131z"/>
   <path class="fil0" d="M5554 4352l2330 0c72,0 131,-59 131,-131 0,-73 -59,-131 -131,-131l-2330 0c-72,0 -131,58 -131,131 0,72 59,131 131,131z"/>
   <path class="fil0" d="M5554 5202l2330 0c72,0 131,-59 131,-131 0,-73 -59,-131 -131,-131l-2330 0c-72,0 -131,58 -131,131 0,72 59,131 131,131z"/>
   <path class="fil0" d="M944 6091c0,73 59,131 131,131l6809 0c72,0 131,-58 131,-131 0,-72 -59,-131 -131,-131l-6809 0c-72,0 -131,59 -131,131z"/>
  </g>
 </g>
</svg>
