<?xml version="1.0" encoding="UTF-8"?>
<!DOCTYPE svg PUBLIC "-//W3C//DTD SVG 1.1//EN" "http://www.w3.org/Graphics/SVG/1.1/DTD/svg11.dtd">
<!-- Creator: CorelDRAW 2018 (64-Bit) -->
<svg xmlns="http://www.w3.org/2000/svg" xml:space="preserve" width="783.152mm" height="181.229mm" version="1.1" style="shape-rendering:geometricPrecision; text-rendering:geometricPrecision; image-rendering:optimizeQuality; fill-rule:evenodd; clip-rule:evenodd"
viewBox="0 0 78315.16 18122.95"
 xmlns:xlink="http://www.w3.org/1999/xlink">
 <defs>
  <style type="text/css">
   <![CDATA[
    .fil1 {fill:none}
    .fil4 {fill:#DAE4EA}
    .fil0 {fill:#E2ECF5}
    .fil2 {fill:#F0F4F7}
    .fil3 {fill:white}
   ]]>
  </style>
 </defs>
 <g id="Слой_x0020_1">
  <metadata id="CorelCorpID_0Corel-Layer"/>
  <polygon class="fil0" points="76497.08,13784.71 -0,13784.71 -0,18122.95 78315.16,18122.95 78315.16,13784.71 "/>
  <line class="fil1" x1="42125.87" y1="15120.34" x2="42125.87" y2= "10776.7" />
  <rect class="fil0" x="16729.49" y="7926.38" width="11162.61" height="1167.98"/>
  <rect class="fil0" x="47434.24" y="7940.92" width="8573.21" height="5903.65"/>
  <rect class="fil2" x="47753.45" y="10234.23" width="7934.78" height="1716.61"/>
  <rect class="fil2" x="47753.45" y="12127.89" width="7934.78" height="1716.61"/>
  <rect class="fil0" x="56007.45" width="5693.69" height="13821"/>
  <rect class="fil3" x="56447.67" y="478.69" width="4858.23" height="3119.84"/>
  <rect class="fil3" x="56447.67" y="3939.65" width="4858.23" height="3068.83"/>
  <rect class="fil3" x="56447.67" y="7348.76" width="4858.23" height="3078.75"/>
  <rect class="fil3" x="56425.18" y="10724.89" width="4858.23" height="3116.15"/>
  <rect class="fil4" x="47753.51" y="8340.57" width="7934.76" height="1716.7"/>
  <rect class="fil2" x="47753.51" y="8409.41" width="7872.4" height="1647.85"/>
  <ellipse class="fil0" transform="matrix(0.835947 -0.54881 0.54881 0.835947 51579.8 9302.19)" rx="263.38" ry="229.37"/>
  <circle class="fil4" cx="51689.71" cy="9233.34" r="263.1"/>
  <path class="fil2" d="M51888.71 9255.35c0.37,-4.96 0.56,-9.99 0.56,-14.97 0,-98.87 -72.63,-182.78 -170.48,-196.92 3.06,-0.76 6.17,-1.33 9.29,-1.69 7,-0.97 14.1,-1.47 21.17,-1.47 76.25,0 140.83,56.23 151.3,131.76 0.98,7 1.5,14.13 1.5,21.21 0,21.38 -4.57,42.58 -13.34,62.06l0 0.02z"/>
  <rect class="fil4" x="47753.51" y="10234.22" width="7934.76" height="1716.7"/>
  <rect class="fil2" x="47753.51" y="10303.07" width="7872.4" height="1647.85"/>
  <ellipse class="fil0" transform="matrix(0.83595 -0.54881 0.54881 0.83595 51579.9 11195.9)" rx="263.38" ry="229.37"/>
  <circle class="fil4" cx="51689.71" cy="11127" r="263.1"/>
  <path class="fil2" d="M51888.71 11149.01c0.37,-4.97 0.56,-10 0.56,-14.98 0,-98.87 -72.63,-182.79 -170.48,-196.93 3.06,-0.75 6.17,-1.32 9.29,-1.68 7,-0.98 14.1,-1.48 21.17,-1.48 76.25,0 140.83,56.24 151.3,131.77 0.98,7.01 1.5,14.14 1.5,21.22 0,21.38 -4.57,42.58 -13.34,62.06l0 0.02z"/>
  <rect class="fil4" x="47753.51" y="12127.88" width="7934.76" height="1716.7"/>
  <rect class="fil2" x="47753.51" y="12196.72" width="7872.4" height="1647.85"/>
  <ellipse class="fil0" transform="matrix(0.83595 -0.54881 0.54881 0.83595 51579.9 13089.5)" rx="263.38" ry="229.37"/>
  <circle class="fil4" cx="51689.71" cy="13020.65" r="263.1"/>
  <path class="fil2" d="M51888.71 13042.66c0.37,-4.96 0.56,-9.99 0.56,-14.97 0,-98.87 -72.63,-182.79 -170.48,-196.93 3.06,-0.75 6.17,-1.32 9.29,-1.68 7,-0.98 14.1,-1.48 21.17,-1.48 76.25,0 140.83,56.24 151.3,131.77 0.98,7 1.5,14.13 1.5,21.21 0,21.38 -4.57,42.58 -13.34,62.06l0 0.02z"/>
  <rect class="fil0" x="27504.75" y="8532.75" width="387.34" height="5518.53"/>
  <rect class="fil0" x="16729.39" y="8764.02" width="5063.49" height="5518.53"/>
  <path class="fil2" d="M21502.43 9219.25l0 1300.13 -4536.45 0 0 -1300.13 2003.2 0c54.12,95.34 155.44,154.34 265.14,154.34 109.69,0 211.01,-59 265.14,-154.36l2002.97 0.02z"/>
  <path class="fil2" d="M21502.43 10635.59l0 1300.13 -4536.45 0 0 -1300.13 2003.2 0c54.12,95.34 155.44,154.34 265.14,154.34 109.69,0 211.01,-59 265.14,-154.36l2002.97 0.02z"/>
  <path class="fil2" d="M21502.43 12051.94l0 1300.13 -4536.45 0 0 -1300.13 2003.2 0c54.12,95.34 155.44,154.34 265.14,154.34 109.69,0 211.01,-59 265.14,-154.36l2002.97 0.02z"/>
  <path class="fil0" d="M25202.35 7926.38l-3983.99 0c478.6,-186.92 1193.29,-305.58 1992,-305.58 798.71,0 1513.6,118.66 1991.99,305.58z"/>
  <polygon class="fil0" points="22803.72,6923.83 22803.72,7684.77 23616.97,7684.77 23616.97,6646.78 22803.72,6646.78 "/>
  <rect class="fil2" x="23390.29" y="6735.61" width="139.54" height="789.41"/>
  <rect class="fil2" x="20160.65" y="2482.25" width="6099.4" height="4164.54"/>
  <rect class="fil0" x="20160.65" y="5825.03" width="6099.4" height="821.75"/>
  <path class="fil0" d="M26748.67 7934.03l-860.46 0c103.37,-250.18 257.73,-409.01 430.23,-409.01 172.5,0 326.91,158.83 430.23,409.01z"/>
  <rect class="fil0" x="16965.99" y="7525.02" width="2679.71" height="401.36"/>
  <rect class="fil2" x="18193.51" y="7528.85" width="1452.19" height="401.36"/>
  <rect class="fil0" x="16853.65" y="7130.31" width="2679.71" height="401.36"/>
  <rect class="fil2" x="17716.35" y="7134.14" width="1817.01" height="401.36"/>
  <rect class="fil0" x="17524.46" y="6728.96" width="2351.21" height="401.36"/>
  <rect class="fil2" x="18878.12" y="6732.78" width="997.55" height="401.36"/>
  <polygon class="fil4" points="22803.72,6707.69 22803.72,6874.99 23616.97,6874.99 23616.97,6646.78 22803.72,6646.78 "/>
  <path class="fil2" d="M22483.32 11298.14l842.35 0c10.87,-0.01 19.68,8.8 19.68,19.66l-0.01 2.16c0.01,10.85 -8.8,19.66 -19.66,19.66l-842.36 0.01c-10.85,-0.01 -19.66,-8.82 -19.66,-19.68l-0.01 -2.14c0.01,-10.87 8.82,-19.68 19.68,-19.68z"/>
  <rect class="fil0" x="21792.88" y="10823.78" width="1444.11" height="2960.24"/>
  <rect class="fil4" x="21792.87" y="10823.78" width="287.54" height="2960.24"/>
  <circle class="fil2" cx="23000.14" cy="12318.99" r="74.34"/>
  <circle class="fil2" cx="23028.23" cy="12497.49" r="46.24"/>
  <path class="fil2" d="M22330.02 11041.41l842.35 0c10.87,-0.01 19.68,8.8 19.68,19.66l-0.01 2.16c0.01,10.85 -8.8,19.66 -19.66,19.66l-842.36 0.01c-10.85,-0.01 -19.66,-8.82 -19.66,-19.68l-0.01 -2.14c0.01,-10.87 8.82,-19.68 19.68,-19.68z"/>
  <path class="fil2" d="M22330.02 11126.98l842.35 0c10.87,0 19.68,8.81 19.68,19.67l-0.01 2.15c0.01,10.85 -8.8,19.66 -19.66,19.66l-842.36 0.01c-10.85,-0.01 -19.66,-8.82 -19.66,-19.68l-0.01 -2.13c0.01,-10.87 8.82,-19.68 19.68,-19.68z"/>
  <path class="fil2" d="M22330.02 11212.56l842.35 0c10.87,-0.01 19.68,8.8 19.68,19.66l-0.01 2.16c0.01,10.85 -8.8,19.66 -19.66,19.66l-842.36 0.01c-10.85,-0.01 -19.66,-8.82 -19.66,-19.68l-0.01 -2.14c0.01,-10.87 8.82,-19.68 19.68,-19.68z"/>
  <path class="fil2" d="M22330.02 11307.64l842.35 0c10.87,0 19.68,8.81 19.68,19.67l-0.01 2.15c0.01,10.85 -8.8,19.66 -19.66,19.66l-842.36 0.01c-10.85,-0.01 -19.66,-8.82 -19.66,-19.68l-0.01 -2.13c0.01,-10.87 8.82,-19.68 19.68,-19.68z"/>
  <path class="fil2" d="M22330.02 11383.71l842.35 0c10.87,-0.01 19.68,8.8 19.68,19.66l-0.01 2.16c0.01,10.85 -8.8,19.66 -19.66,19.66l-842.36 0.01c-10.85,-0.01 -19.66,-8.82 -19.66,-19.68l-0.01 -2.14c0.01,-10.87 8.82,-19.68 19.68,-19.68z"/>
  <path class="fil0" d="M27022.02 10473.32l0 3310.8 -2945.05 0 0 -3310.8c0.01,-0.04 0.01,-0.13 0.01,-0.18 0,-211.37 171.37,-382.79 382.74,-382.79l2179.54 0.01c211.4,-0.01 382.77,171.41 382.77,382.78 0,0.05 0,0.14 0,0.19l-0.01 -0.01z"/>
  <path class="fil2" d="M27022.02 10473.32l0 234.01 -2945.05 0 0 -234.01c0.01,-0.04 0.01,-0.13 0.01,-0.18 0,-211.37 171.37,-382.79 382.74,-382.79l2179.54 0.01c211.4,-0.01 382.77,171.41 382.77,382.78 0,0.05 0,0.14 0,0.19l-0.01 -0.01z"/>
  <path class="fil0" d="M58258.11 7921.97c0.9,7.18 1.38,14.46 1.38,21.7 0,0.23 0,0.48 0,0.71 0,0.54 0,1.12 0,1.65 0,43.85 -15.89,86.28 -44.67,119.34 -26.76,31.47 -65.88,49.85 -107.19,50.34l-820.49 0.02c-83.6,0 -151.66,-77.11 -151.66,-171.34 -0.01,-7.47 0.41,-15.01 1.17,-22.43l-548.82 0.01 0 2505.52 2219.3 -0.01 0 -2505.51 -549.02 0zm-600.96 934.37c-0.05,25.84 -20.98,46.77 -46.81,46.83l-331.07 -0.01 0 144.58 104.26 0.01c22.12,0.08 40.04,17.99 40.13,40.11l0 16.72c0,22.19 -17.94,40.22 -40.13,40.33l-104.26 0.01 0 34.42c0,26.12 -21.19,47.31 -47.31,47.31 -26.12,0 -47.31,-21.19 -47.31,-47.31l0 -34.42 -145.96 0 0 48c-0.06,20.71 -16.85,37.5 -37.57,37.56l-15.15 0.01c-20.7,-0.07 -37.49,-16.86 -37.56,-37.58l0 -48 -5.52 0.01c-22.25,-0.04 -40.29,-18.08 -40.32,-40.34l0 -16.72c0.11,-22.19 18.13,-40.12 40.33,-40.12l5.5 0.01 0 -267.92c0.07,-20.73 16.86,-37.52 37.58,-37.58l15.14 0c20.73,0.06 37.52,16.85 37.58,37.58l0 26.16 145.95 0 0 -213.04c0,-26.12 21.19,-47.31 47.31,-47.31 26.12,0 47.31,21.19 47.31,47.31l0 213.04 331.07 0c25.82,0.05 46.75,20.98 46.81,46.81l0 3.54zm969.8 814.79c-0.13,25.78 -21.02,46.67 -46.82,46.8l-331.07 0.01 0 213.04c0,0.03 0,0.07 0,0.1 0,26.07 -21.14,47.21 -47.21,47.21 -26.07,0 -47.21,-21.14 -47.21,-47.21 0,-0.03 0,-0.07 0,-0.11l0 -213.04 -146.16 0.01 0 26.16c-0.06,20.61 -16.76,37.31 -37.37,37.37l-15.15 0.01c-20.65,-0.05 -37.42,-16.73 -37.57,-37.38l0 -217.56 -5.71 0c-22.19,-0.12 -40.12,-18.14 -40.13,-40.34l0 -16.52c0.01,-22.19 17.94,-40.21 40.13,-40.32l5.71 0.01 0 -48.2c0.15,-20.66 16.92,-37.34 37.57,-37.38l15.15 0.01c20.61,0.05 37.31,16.75 37.37,37.36l0 48.19 146.16 0.02 0 -34.42c0,-0.06 0,-0.1 0,-0.13 0,-26.07 21.14,-47.21 47.21,-47.21 26.07,0 47.21,21.14 47.21,47.21 0,0.03 0,0.07 0,0.11l0 34.42 104.26 0.02c22.25,0.02 40.29,18.06 40.32,40.32l0 16.52c-0.03,22.25 -18.07,40.29 -40.33,40.32l-104.25 0.01 0 144.58 331.07 0c25.82,0.06 46.75,20.99 46.81,46.82l0.01 -46.81z"/>
  <path class="fil0" d="M57657.15 8852.8l0 3.54c-0.05,25.84 -20.98,46.77 -46.81,46.83l-331.07 -0.01 0 144.58 104.26 0.01c22.12,0.08 40.04,17.99 40.13,40.11l0 16.72c0,22.19 -17.94,40.22 -40.13,40.33l-104.26 0.01 0 34.42c0,26.12 -21.19,47.31 -47.31,47.31 -26.12,0 -47.31,-21.19 -47.31,-47.31l0 -34.42 -145.96 0 0 48c-0.06,20.71 -16.85,37.5 -37.57,37.56l-15.15 0.01c-20.7,-0.07 -37.49,-16.86 -37.56,-37.58l0 -48 -5.52 0.01c-22.25,-0.04 -40.29,-18.08 -40.32,-40.34l0 -16.72c0.11,-22.19 18.13,-40.12 40.33,-40.12l5.5 0.01 0 -267.92c0.07,-20.73 16.86,-37.52 37.58,-37.58l15.14 0c20.73,0.06 37.52,16.85 37.58,37.58l0 26.16 145.95 0 0 -213.04c0,-26.12 21.19,-47.31 47.31,-47.31 26.12,0 47.31,21.19 47.31,47.31l0 213.04 331.07 0c25.82,0.05 46.75,20.98 46.81,46.81z"/>
  <path class="fil0" d="M58673.76 9717.94l0 3.54c-0.13,25.79 -21.02,46.68 -46.82,46.81l-331.06 0.01 0 213.04c0,0.03 0,0.07 0,0.1 0,26.07 -21.14,47.21 -47.21,47.21 -26.07,0 -47.21,-21.14 -47.21,-47.21 0,-0.03 0,-0.07 0,-0.11l0 -213.04 -146.16 0.01 0 26.16c-0.07,20.6 -16.77,37.3 -37.38,37.36l-15.14 0.02c-20.65,-0.05 -37.42,-16.73 -37.57,-37.38l-0.01 -267.92 -5.7 0c-22.19,-0.12 -40.12,-18.14 -40.13,-40.34l0 -16.52c0.01,-22.19 17.94,-40.21 40.13,-40.32l5.7 0.01 0 -48.2c0.16,-20.66 16.93,-37.34 37.58,-37.38l15.14 0.01c20.61,0.05 37.31,16.75 37.37,37.36l0 48.19 146.17 0.02 0 -34.42c0,-0.06 0,-0.1 0,-0.13 0,-26.07 21.14,-47.21 47.21,-47.21 26.07,0 47.21,21.14 47.21,47.21 0,0.03 0,0.07 0,0.11l0 34.42 104.25 0.02c22.26,0.02 40.3,18.06 40.33,40.32l0 16.52c-0.03,22.25 -18.07,40.29 -40.33,40.32l-104.25 0.01 0 144.58 331.06 0c25.83,0.06 46.76,20.99 46.82,46.82z"/>
  <path class="fil2" d="M56998.96 8805.99l611.37 0c25.85,-0.01 46.82,20.96 46.82,46.81l0 3.54c0.01,25.86 -20.96,46.83 -46.81,46.83l-611.38 -0.01c-25.85,0.01 -46.82,-20.96 -46.82,-46.81l0 -3.54c0,-25.86 20.97,-46.83 46.82,-46.83l0 0.01z"/>
  <path class="fil2" d="M57423.66 9087.88l0 16.72c0,22.17 -17.94,40.2 -40.13,40.31l-440.64 0.01c-22.25,-0.04 -40.29,-18.08 -40.32,-40.34l0 -16.72c0.11,-22.19 18.13,-40.12 40.33,-40.12l440.63 0.01c22.12,0.08 40.04,17.99 40.13,40.11l0 0.02z"/>
  <path class="fil2" d="M56985.97 8742.25l15.15 0c20.75,0 37.57,16.82 37.57,37.57l0 413.1c0,20.74 -16.82,37.56 -37.57,37.56l-15.15 0.01c-20.75,-0.01 -37.57,-16.83 -37.57,-37.58l0 -413.09c0,-20.75 16.82,-37.57 37.57,-37.57z"/>
  <path class="fil2" d="M57279.27 8592.95l0 586.4c0,26.11 -21.19,47.3 -47.31,47.3 -26.12,0 -47.31,-21.19 -47.31,-47.31l0 -586.4c0,-26.11 21.19,-47.3 47.31,-47.3 26.12,0 47.31,21.19 47.31,47.31z"/>
  <path class="fil2" d="M58673.76 9717.94l0 3.54c-0.13,25.79 -21.02,46.68 -46.82,46.81l-611.38 0.01c-25.73,-0.21 -46.52,-21.09 -46.62,-46.82l0 -3.54c0.03,-25.77 20.86,-46.69 46.62,-46.83l611.38 0.02c25.83,0.05 46.76,20.98 46.82,46.81z"/>
  <path class="fil2" d="M58440.46 9469.69l0 16.52c-0.03,22.25 -18.07,40.29 -40.33,40.32l-440.63 0.01c-22.19,-0.12 -40.12,-18.14 -40.13,-40.34l0 -16.52c0.01,-22.19 17.94,-40.21 40.13,-40.32l440.63 0.01c22.26,0.02 40.3,18.06 40.33,40.32z"/>
  <path class="fil2" d="M58055.3 9381.17l0 413.29c-0.07,20.6 -16.77,37.3 -37.38,37.36l-15.14 0.02c-20.65,-0.05 -37.42,-16.73 -37.57,-37.38l-0.01 -413.29c0.16,-20.66 16.93,-37.34 37.58,-37.38l15.14 0.01c20.61,0.05 37.31,16.75 37.37,37.36l0.01 0.01z"/>
  <path class="fil2" d="M58295.88 9394.94l0 586.4c0,0.03 0,0.07 0,0.1 0,26.07 -21.14,47.21 -47.21,47.21 -26.07,0 -47.21,-21.14 -47.21,-47.21 0,-0.03 0,-0.07 0,-0.11l0 -586.4c0,-0.04 0,-0.08 0,-0.11 0,-26.07 21.14,-47.21 47.21,-47.21 26.07,0 47.21,21.14 47.21,47.21 0,0.03 0,0.07 0,0.11l0 0.01z"/>
  <path class="fil0" d="M58804.65 11339.23l0 2505.35 -2219.39 0 0 -2505.35 549 0c-0.84,7.12 -1.3,14.36 -1.3,21.56 0,0.28 0,0.57 0,0.85 0,94.13 68.16,171.29 151.73,171.29l820.53 0.02c41.28,-0.54 80.39,-18.89 107.17,-50.33 28.73,-33.13 44.57,-75.57 44.57,-119.43 0,-0.49 0,-1.05 0,-1.54 -0.01,-0.28 -0.01,-0.57 -0.01,-0.85 0,-7.2 -0.46,-14.44 -1.31,-21.57l549.01 0z"/>
  <path class="fil2" d="M56998.22 12223.23l607.84 0c26.82,-0.01 48.56,21.74 48.56,48.55l0 0.01c0,26.8 -21.74,48.55 -48.56,48.55l-607.84 0.02c-26.81,-0.02 -48.56,-21.77 -48.56,-48.58l-0.01 0.01c0.01,-26.82 21.76,-48.57 48.57,-48.57z"/>
  <path class="fil2" d="M56948.7 12464.9l423.94 0c26.82,-0.01 48.56,21.74 48.56,48.55l0 0.01c0,26.8 -21.74,48.55 -48.56,48.55l-423.94 0.02c-26.81,-0.02 -48.56,-21.77 -48.56,-48.58l0 0.01c0,-26.82 21.75,-48.57 48.56,-48.57z"/>
  <path class="fil2" d="M56946 12602.6l0 -397.97c-0.02,-24.91 20.18,-45.11 45.08,-45.11l0.01 0.01c24.89,-0.01 45.09,20.19 45.09,45.09l0.01 397.98c-0.01,24.9 -20.21,45.1 -45.11,45.1l0.01 0c-24.91,0 -45.11,-20.2 -45.11,-45.1z"/>
  <path class="fil2" d="M57182.25 12596.46l0 -586.3c-0.02,-26.09 21.13,-47.24 47.21,-47.24l0.02 0.01c26.06,-0.01 47.21,21.14 47.21,47.22l0.02 586.31c-0.02,26.07 -21.17,47.22 -47.25,47.22l0.02 0.01c-26.1,-0.01 -47.25,-21.16 -47.25,-47.24z"/>
  <path class="fil2" d="M58014.93 13088.26l607.85 0c26.82,-0.01 48.56,21.74 48.56,48.55l0 0.01c0,26.8 -21.74,48.55 -48.56,48.55l-607.85 0.01c-26.81,-0.01 -48.56,-21.76 -48.56,-48.57l0 0.01c0,-26.82 21.75,-48.57 48.56,-48.57z"/>
  <path class="fil2" d="M57965.42 12846.59l423.94 0c26.82,-0.01 48.56,21.74 48.56,48.55l0 0.01c0,26.8 -21.74,48.55 -48.56,48.55l-423.94 0.02c-26.81,-0.02 -48.56,-21.77 -48.56,-48.58l0 0.01c0,-26.82 21.75,-48.57 48.56,-48.57z"/>
  <path class="fil2" d="M58052.9 12806.01l0 397.98c0.01,24.9 -20.19,45.1 -45.09,45.1l0 -0.01c-24.9,0.01 -45.1,-20.19 -45.1,-45.09l0 -397.98c0,-24.9 20.2,-45.1 45.1,-45.1l0 0.01c24.9,-0.01 45.1,20.19 45.1,45.09z"/>
  <path class="fil2" d="M58293.42 12812.16l0 586.29c0.01,26.08 -21.14,47.23 -47.22,47.23l-0.01 0c-26.07,0 -47.22,-21.15 -47.22,-47.23l0 -586.29c0,-26.08 21.15,-47.23 47.23,-47.23l-0.01 0c26.09,0 47.24,21.15 47.24,47.23z"/>
  <path class="fil0" d="M61168.3 11339.23l0 2505.35 -2219.39 0 0 -2505.35 549 0c-0.84,7.12 -1.3,14.36 -1.3,21.56 0,0.28 0,0.57 0,0.85 0,94.13 68.16,171.29 151.73,171.29l820.53 0.02c41.28,-0.54 80.38,-18.89 107.16,-50.33 28.74,-33.13 44.58,-75.57 44.58,-119.43 0,-0.49 0,-1.05 0,-1.54 -0.01,-0.28 -0.01,-0.57 -0.01,-0.85 0,-7.2 -0.46,-14.44 -1.31,-21.57l549.01 0z"/>
  <path class="fil2" d="M60411.8 12387.92l0 -607.84c-0.02,-26.82 21.73,-48.56 48.54,-48.56l0.02 0c26.79,0 48.54,21.74 48.54,48.56l0.03 607.84c-0.03,26.81 -21.78,48.56 -48.59,48.56l0.02 0.01c-26.83,-0.01 -48.58,-21.76 -48.58,-48.57z"/>
  <path class="fil2" d="M60653.47 12437.43l0 -423.93c-0.01,-26.83 21.74,-48.57 48.55,-48.57l0.01 0.01c26.8,-0.01 48.55,21.73 48.55,48.55l0.01 423.94c-0.01,26.81 -21.76,48.56 -48.57,48.56l0.01 0.01c-26.82,-0.01 -48.57,-21.76 -48.57,-48.57z"/>
  <path class="fil2" d="M60791.17 12440.14l-397.98 0c-24.91,0.01 -45.1,-20.19 -45.1,-45.09l0.01 0c-0.01,-24.9 20.18,-45.1 45.09,-45.1l397.98 0c24.9,0 45.1,20.2 45.1,45.1l0 0c0,24.9 -20.2,45.1 -45.1,45.1z"/>
  <path class="fil2" d="M60785.03 12203.89l-586.3 0c-26.08,0.01 -47.23,-21.14 -47.23,-47.22l0 -0.01c0,-26.07 21.15,-47.22 47.23,-47.22l586.3 -0.01c26.07,0.01 47.22,21.16 47.22,47.24l0 -0.01c0,26.09 -21.15,47.24 -47.23,47.24z"/>
  <path class="fil2" d="M59351.5 13063.4l607.84 0c26.82,-0.01 48.56,21.74 48.56,48.55l0 0.01c0,26.8 -21.74,48.55 -48.56,48.55l-607.84 0.02c-26.81,-0.02 -48.56,-21.77 -48.56,-48.58l-0.01 0.01c0.01,-26.82 21.76,-48.57 48.57,-48.57z"/>
  <path class="fil2" d="M59301.98 12821.73l423.94 0c26.82,-0.01 48.56,21.74 48.56,48.55l0 0.01c0,26.8 -21.74,48.55 -48.56,48.55l-423.94 0.02c-26.81,-0.02 -48.56,-21.77 -48.56,-48.58l0 0.01c0,-26.82 21.75,-48.57 48.56,-48.57z"/>
  <path class="fil2" d="M59389.47 12781.15l0 397.98c0.01,24.9 -20.19,45.1 -45.09,45.1l-0.01 0c-24.89,0 -45.09,-20.2 -45.09,-45.1l0 -397.98c0,-24.9 20.2,-45.1 45.1,-45.1l-0.01 0.01c24.91,-0.01 45.11,20.19 45.11,45.09z"/>
  <path class="fil2" d="M59629.99 12787.3l0 586.3c0,26.08 -21.15,47.23 -47.23,47.23l0 0c-26.08,0 -47.23,-21.15 -47.23,-47.23l0 -586.3c0,-26.08 21.15,-47.23 47.23,-47.23l0 0c26.08,0 47.23,21.15 47.23,47.23z"/>
  <rect class="fil0" x="57988.44" y="3138.89" width="2928.38" height="460.5"/>
  <rect class="fil2" x="59266.39" y="3143.23" width="1650.43" height="456.15"/>
  <rect class="fil0" x="58151.92" y="2690.3" width="2637.22" height="456.15"/>
  <rect class="fil2" x="58724.1" y="2694.65" width="2065.04" height="456.15"/>
  <rect class="fil0" x="58506.01" y="2234.15" width="2672.16" height="456.15"/>
  <rect class="fil2" x="59394.07" y="2238.5" width="1784.11" height="456.15"/>
  <rect class="fil0" x="58876.79" y="1773.66" width="2429.11" height="456.15"/>
  <rect class="fil2" x="59684.06" y="1778.01" width="1621.84" height="456.15"/>
  <rect class="fil0" x="56447.67" y="1140.97" width="513.59" height="2458.41"/>
  <rect class="fil0" x="56961.26" y="1549.65" width="397.68" height="2049.73"/>
  <rect class="fil4" x="56447.67" y="1140.98" width="95.09" height="2454.06"/>
  <rect class="fil4" x="56961.26" y="1549.65" width="73.63" height="2046.11"/>
  <rect class="fil4" x="55928.12" y="8006.16" width="79.33" height="5838.42"/>
  <rect class="fil0" x="57358.94" y="1832.59" width="629.5" height="1766.8"/>
  <rect class="fil4" x="57358.93" y="1832.58" width="116.55" height="1763.68"/>
  <rect class="fil0" x="56447.67" y="4553.68" width="513.59" height="2458.41"/>
  <rect class="fil0" x="56961.26" y="4665.82" width="513.59" height="2346.28"/>
  <rect class="fil4" x="56447.67" y="4559.02" width="95.09" height="2454.06"/>
  <rect class="fil4" x="56961.26" y="4665.81" width="95.09" height="2342.13"/>
  <rect class="fil0" x="57474.86" y="5054.84" width="513.59" height="1957.25"/>
  <rect class="fil4" x="57474.85" y="5054.84" width="95.09" height="1953.79"/>
  <rect class="fil0" x="57988.43" y="4665.82" width="513.59" height="2346.28"/>
  <rect class="fil0" x="58502.03" y="4435.94" width="513.59" height="2576.16"/>
  <rect class="fil4" x="57988.43" y="4665.81" width="95.09" height="2342.13"/>
  <rect class="fil4" x="58502.03" y="4435.93" width="95.09" height="2571.61"/>
  <rect class="fil0" x="59015.63" y="5054.84" width="513.59" height="1957.25"/>
  <rect class="fil4" x="59015.63" y="5054.84" width="95.09" height="1953.79"/>
  <rect class="fil0" x="59529.22" y="4553.68" width="513.59" height="2458.41"/>
  <rect class="fil0" x="60042.81" y="4764.06" width="513.59" height="2248.04"/>
  <rect class="fil4" x="59529.22" y="4553.69" width="95.09" height="2454.06"/>
  <rect class="fil4" x="60042.81" y="4764.05" width="95.09" height="2244.07"/>
  <rect class="fil0" transform="matrix(0.992571 -0.121665 0.121665 0.992571 60528.4 4579.04)" width="513.59" height="2458.41"/>
  <rect class="fil4" transform="matrix(0.992571 -0.121665 0.121665 0.992571 60528.4 4579.04)" width="95.09" height="2454.06"/>
  <polygon class="fil0" points="59557.97,10415.3 59048.1,10477.84 58807.14,8511.3 58807.14,8030.55 59258.78,7975.28 "/>
  <polygon class="fil4" points="59141.94,10461.92 59047.51,10473.5 58807.14,8511.3 58807.14,8030.55 58843.34,8026.03 "/>
  <rect class="fil0" x="59529.21" y="8475.75" width="421.4" height="1957.25"/>
  <rect class="fil4" x="59529.21" y="8475.75" width="109.65" height="1953.79"/>
  <rect class="fil0" x="59950.61" y="8086.72" width="763.02" height="2346.28"/>
  <rect class="fil0" x="60713.64" y="7856.84" width="592.21" height="2576.16"/>
  <rect class="fil4" x="59950.62" y="8086.72" width="141.27" height="2342.13"/>
  <rect class="fil4" x="60713.64" y="7856.83" width="109.65" height="2571.61"/>
 </g>
</svg>
