<?xml version="1.0" encoding="UTF-8"?>
<!DOCTYPE svg PUBLIC "-//W3C//DTD SVG 1.1//EN" "http://www.w3.org/Graphics/SVG/1.1/DTD/svg11.dtd">
<!-- Creator: CorelDRAW X7 -->
<svg xmlns="http://www.w3.org/2000/svg" xml:space="preserve" width="166px" height="229px" version="1.1" style="shape-rendering:geometricPrecision; text-rendering:geometricPrecision; image-rendering:optimizeQuality; fill-rule:evenodd; clip-rule:evenodd"
viewBox="0 0 4023 5554"
 xmlns:xlink="http://www.w3.org/1999/xlink">
 <defs>
  <style type="text/css">
   <![CDATA[
    .fil0 {fill:white}
   ]]>
  </style>
 </defs>
 <g id="Слой_x0020_1">
  <metadata id="CorelCorpID_0Corel-Layer"/>
  <g id="_1314530704">
   <path class="fil0" d="M3196 264c103,33 190,102 273,170 140,121 272,255 361,419 129,221 200,477 193,733 -4,279 -67,554 -153,818 -93,279 -214,547 -356,804 -243,428 -519,837 -841,1209 -88,100 -170,209 -278,288 39,-73 97,-133 147,-198 159,-205 307,-419 450,-636 126,-194 249,-392 353,-599 123,-240 243,-483 335,-737 126,-342 195,-707 187,-1072 -14,-361 -171,-711 -415,-976 -77,-83 -175,-144 -256,-223z"/>
   <path class="fil0" d="M650 356c58,-40 120,-77 188,-97 -50,41 -103,79 -152,122 -186,163 -337,369 -424,602 -130,336 -127,709 -58,1059 95,476 297,922 532,1344 214,382 461,744 724,1094 61,83 131,159 186,247 -166,-142 -305,-313 -441,-482 -226,-287 -433,-589 -618,-904 -227,-394 -425,-811 -527,-1256 -69,-303 -89,-625 -3,-927 46,-162 125,-313 229,-446 105,-134 224,-258 364,-356z"/>
   <path class="fil0" d="M1858 76c81,-43 183,-46 266,-6 112,53 193,154 256,258 162,273 225,591 257,903 53,622 -22,1245 -129,1857 -86,481 -206,954 -335,1425 -30,102 -54,207 -101,303 -51,-3 -103,-4 -154,-6 -37,-90 -58,-186 -84,-280 -184,-642 -338,-1295 -426,-1958 -51,-400 -81,-804 -55,-1207 25,-358 89,-724 266,-1040 59,-100 134,-195 239,-249z"/>
   <path class="fil0" d="M2324 0c178,7 342,88 498,166 338,170 590,483 727,833 121,301 139,634 88,953 -77,497 -267,968 -487,1417 -216,433 -466,852 -780,1222 -51,65 -114,118 -175,173 33,-76 79,-146 117,-221 346,-660 645,-1353 804,-2084 76,-362 120,-735 83,-1105 -29,-287 -114,-573 -274,-815 -148,-228 -356,-418 -601,-539z"/>
   <path class="fil0" d="M1484 40c67,-23 137,-39 209,-40 -102,38 -189,107 -272,177 -74,64 -146,130 -212,202 -232,276 -354,631 -389,986 -45,459 27,922 145,1365 114,423 271,832 452,1230 123,275 271,536 404,805 -89,-65 -155,-154 -224,-237 -186,-227 -356,-467 -499,-723 -102,-185 -198,-374 -290,-564 -197,-413 -369,-846 -430,-1302 -48,-358 -14,-734 145,-1062 120,-256 308,-482 545,-638 131,-81 270,-149 416,-199z"/>
   <path class="fil0" d="M1588 5053c275,0 550,0 825,1 -38,167 -76,334 -114,500 -201,0 -402,1 -604,0 -34,-168 -72,-334 -107,-501z"/>
  </g>
 </g>
</svg>
