<?xml version="1.0" encoding="UTF-8"?>
<!DOCTYPE svg PUBLIC "-//W3C//DTD SVG 1.1//EN" "http://www.w3.org/Graphics/SVG/1.1/DTD/svg11.dtd">
<!-- Creator: CorelDRAW X7 -->
<svg xmlns="http://www.w3.org/2000/svg" xml:space="preserve" width="229px" height="229px" version="1.1" style="shape-rendering:geometricPrecision; text-rendering:geometricPrecision; image-rendering:optimizeQuality; fill-rule:evenodd; clip-rule:evenodd"
viewBox="0 0 10670 10670"
 xmlns:xlink="http://www.w3.org/1999/xlink">
 <defs>
  <style type="text/css">
   <![CDATA[
    .fil0 {fill:white}
   ]]>
  </style>
 </defs>
 <g id="Слой_x0020_1">
  <metadata id="CorelCorpID_0Corel-Layer"/>
  <g id="_1824217504">
   <g>
    <path class="fil0" d="M0 0l0 10670 10670 0 0 -10670 -10670 0zm445 456l9781 0 0 9758 -9781 0 0 -9758z"/>
   </g>
   <path class="fil0" d="M3701 6042l-352 1367c-7,38 -22,47 -66,47l-653 0c-44,0 -51,-15 -44,-68l1262 -4535c22,-83 37,-154 44,-380 0,-30 15,-45 37,-45l931 0c30,0 44,8 52,45l1416 4922c7,38 0,61 -37,61l-734 0c-36,0 -58,-9 -66,-39l-366 -1375 -1424 0 0 0zm1240 -741c-125,-504 -418,-1609 -528,-2143l-7 0c-96,534 -331,1436 -514,2143l1049 0zm2001 -2534c0,-294 198,-467 454,-467 272,0 455,188 455,467 0,301 -191,466 -462,466 -264,0 -447,-165 -447,-466zm49 1036c0,-37 15,-52 52,-52l697 0c37,0 52,15 52,52l0 3600c0,38 -8,53 -52,53l-690 0c-44,0 -59,-23 -59,-61l0 -3592z"/>
  </g>
 </g>
</svg>
